<svg width="12" height="12" viewBox="0 0 12 12" fill="none" xmlns="http://www.w3.org/2000/svg">
<path d="M6.183 6.683L7.0705 7.1955C6.54067 8.369 6.48496 9.70188 6.915 10.9155C6.61328 10.9719 6.30696 11.0002 6 11C5.29151 11.0011 4.59092 10.8511 3.945 10.56L6.183 6.683ZM7.9415 7.699L10.0585 8.921C9.50706 9.68642 8.75096 10.2808 7.877 10.636C7.54415 9.73726 7.54556 8.74879 7.881 7.851L7.9415 7.699ZM4.43 5.671L5.3175 6.183L3.0795 10.058C2.25165 9.46174 1.62544 8.62708 1.2845 7.6655C2.49266 7.4424 3.57602 6.78135 4.327 5.809L4.43 5.671ZM10.953 5.308C10.9845 5.5345 11.0005 5.7655 11.0005 6C11.0016 6.7085 10.8516 7.40908 10.5605 8.055L8.4425 6.8325C9.03881 6.04546 9.90561 5.50731 10.8755 5.322L10.953 5.308ZM1.4405 3.9455L3.558 5.168C2.94519 5.9767 2.04763 6.52192 1.0475 6.693C1.01584 6.46336 0.999972 6.23182 1 6C1 5.2675 1.1575 4.572 1.44 3.945L1.4405 3.9455ZM8.921 1.9415C9.74885 2.53777 10.3751 3.37243 10.716 4.334C9.50763 4.55756 8.42416 5.21893 7.673 6.1915L7.5705 6.3295L6.683 5.817L8.921 1.942V1.9415ZM6 1C6.7325 1 7.428 1.1575 8.055 1.44L5.817 5.317L4.9295 4.805C5.45959 3.63122 5.51531 2.29793 5.085 1.084C5.38674 1.02776 5.69306 0.999637 6 1ZM4.1235 1.365C4.45585 2.2639 4.45408 3.25231 4.1185 4.15L4.0585 4.3015L1.9415 3.079C2.47162 2.34349 3.19111 1.76534 4.0235 1.406L4.1235 1.3645V1.365Z" fill="#FF9900"/>
</svg>
