<svg width="12" height="12" viewBox="0 0 12 12" fill="none" xmlns="http://www.w3.org/2000/svg">
<path d="M6 3.50001C7.06087 3.50001 8.07828 3.92144 8.82843 4.67158C9.57857 5.42173 10 6.43915 10 7.50001C10 8.56088 9.57857 9.57829 8.82843 10.3284C8.07828 11.0786 7.06087 11.5 6 11.5C4.93913 11.5 3.92172 11.0786 3.17157 10.3284C2.42143 9.57829 2 8.56088 2 7.50001C2 6.43915 2.42143 5.42173 3.17157 4.67158C3.92172 3.92144 4.93913 3.50001 6 3.50001ZM6 5.25001L5.3385 6.59001L3.86 6.80501L4.93 7.84751L4.6775 9.32051L6 8.62501L7.3225 9.32001L7.07 7.84751L8.14 6.80451L6.6615 6.58951L6 5.25001ZM6.5 0.999512L9 1.00001V2.50001L8.3185 3.06901C7.75297 2.7723 7.13553 2.58743 6.5 2.52451V1.00001V0.999512ZM5.5 0.999512V2.52451C4.86467 2.58733 4.24741 2.77204 3.682 3.06851L3 2.50001V1.00001L5.5 0.999512Z" fill="#FF9900"/>
</svg>
