<svg width="12" height="12" viewBox="0 0 12 12" fill="none" xmlns="http://www.w3.org/2000/svg">
<path d="M8.5003 6.5V7C8.5003 8.385 8.1683 9.72251 7.5428 10.923L7.4293 11.133L6.5558 10.646C7.1358 9.606 7.4608 8.441 7.4968 7.228L7.5003 7V6.5H8.5003ZM5.5003 5H6.5003V7L6.4978 7.1895C6.46001 8.55835 5.98891 9.87991 5.1523 10.964L5.0368 11.109L4.2618 10.477C5.025 9.54494 5.45929 8.38707 5.4973 7.183L5.5003 7V5ZM6.0003 3.00001C6.66335 3.00001 7.29923 3.2634 7.76807 3.73224C8.23691 4.20108 8.5003 4.83696 8.5003 5.5H7.5003C7.5003 5.10218 7.34227 4.72065 7.06097 4.43934C6.77966 4.15804 6.39813 4.00001 6.0003 4.00001C5.60248 4.00001 5.22095 4.15804 4.93964 4.43934C4.65834 4.72065 4.5003 5.10218 4.5003 5.5V7C4.5003 8.1175 4.0903 9.172 3.3648 9.9885L3.2588 10.1035L2.5348 9.4135C3.11978 8.80147 3.46193 7.9974 3.4973 7.1515L3.5003 7V5.5C3.5003 4.83696 3.7637 4.20108 4.23254 3.73224C4.70138 3.2634 5.33726 3.00001 6.0003 3.00001ZM6.0003 1C7.19378 1 8.33837 1.47411 9.18229 2.31802C10.0262 3.16194 10.5003 4.30653 10.5003 5.5V7C10.5003 7.849 10.3993 8.685 10.2018 9.495L10.1323 9.7645L9.1673 9.5015C9.3633 8.783 9.47381 8.0405 9.49631 7.284L9.50031 7V5.5C9.50031 4.85044 9.31954 4.21368 8.97824 3.66101C8.63694 3.10833 8.14857 2.66154 7.56779 2.37062C6.98701 2.07971 6.33672 1.95617 5.68972 2.01381C5.04271 2.07145 4.42451 2.30801 3.9043 2.697L3.1918 1.984C3.98854 1.34565 4.97938 0.998491 6.0003 1ZM2.4843 2.6915L3.1973 3.40401C2.76847 3.97562 2.52583 4.6653 2.5023 5.3795L2.5003 5.5L2.5023 6.5C2.5023 7.06 2.3703 7.6015 2.1213 8.0885L2.0433 8.2335L1.1748 7.7375C1.3648 7.405 1.4758 7.034 1.4978 6.646L1.5023 6.5V5.5C1.49934 4.47917 1.84588 3.48807 2.4843 2.6915Z" fill="#FF9900"/>
</svg>
