<svg width="12" height="12" viewBox="0 0 12 12" fill="none" xmlns="http://www.w3.org/2000/svg">
<path d="M2.5 9V10H4.5V9H2.5ZM1.5 3.5L3.5 1L5.5 3.5V11H1.5V3.5ZM10.5 4H9.5V5H10.5V6H9V7H10.5V8H9.5V9H10.5V10.5C10.5 10.6326 10.4473 10.7598 10.3536 10.8536C10.2598 10.9473 10.1326 11 10 11H7C6.86739 11 6.74021 10.9473 6.64645 10.8536C6.55268 10.7598 6.5 10.6326 6.5 10.5V2.5C6.5 2.36739 6.55268 2.24021 6.64645 2.14645C6.74021 2.05268 6.86739 2 7 2H10C10.1326 2 10.2598 2.05268 10.3536 2.14645C10.4473 2.24021 10.5 2.36739 10.5 2.5V4Z" fill="#FF9900"/>
</svg>
