<svg width="12" height="12" viewBox="0 0 12 12" fill="none" xmlns="http://www.w3.org/2000/svg">
<g clip-path="url(#clip0_2724_40597)">
<path d="M11.9301 5.73697C10.9636 4.04875 9.16464 3.00003 7.23533 3.00003C5.53336 3.00003 3.93333 3.81645 2.9163 5.16765L0.90381 3.15508C0.752447 3.00364 0.524679 2.9584 0.326872 3.0403C0.128984 3.12223 0 3.31531 0 3.52944V8.47062C0 8.68471 0.128984 8.87783 0.326832 8.95973C0.392286 8.98688 0.46111 9.00004 0.529332 9.00004C0.667099 9.00004 0.8025 8.94629 0.90377 8.84494L2.91626 6.83245C3.93325 8.18366 5.53332 9.00004 7.23529 9.00004C9.16472 9.00004 10.9637 7.95128 11.9301 6.26305C12.0233 6.10006 12.0233 5.89993 11.9301 5.73697Z" fill="#FF9900"/>
</g>
<defs>
<clipPath id="clip0_2724_40597">
<rect width="12" height="12" fill="white"/>
</clipPath>
</defs>
</svg>
