<svg width="321" height="123" viewBox="0 0 321 123" fill="none" xmlns="http://www.w3.org/2000/svg">
<path d="M0.179688 77.8305L49.8413 1.80741H76.713V77.8305H90.319V95.8584H76.713V120.859H56.3041V95.8584H0.179688V77.8305ZM56.3041 77.8305V24.4273L22.1192 77.8305H56.3041Z" fill="#F1F3F5"/>
<path d="M160.973 122.56C154.397 122.56 148.444 121.54 143.115 119.499C137.899 117.344 133.477 114 129.849 109.464C126.221 104.929 123.386 99.0898 121.346 91.9467C119.418 84.6902 118.454 75.9597 118.454 65.7553V56.9114C118.454 46.8204 119.418 38.2033 121.346 31.0602C123.386 23.8037 126.221 17.9078 129.849 13.3725C133.591 8.72376 138.069 5.37897 143.285 3.33808C148.501 1.18381 154.397 0.106674 160.973 0.106674C167.549 0.106674 173.445 1.18381 178.66 3.33808C183.989 5.37897 188.468 8.66707 192.096 13.2024C195.838 17.7377 198.673 23.6336 200.6 30.8901C202.528 38.0332 203.491 46.707 203.491 56.9114V65.7553C203.491 75.8463 202.471 84.5201 200.43 91.7766C198.502 98.9197 195.668 104.816 191.926 109.464C188.298 114 183.876 117.344 178.66 119.499C173.445 121.54 167.549 122.56 160.973 122.56ZM160.973 103.512C164.261 103.512 167.209 102.945 169.817 101.811C172.424 100.677 174.635 98.6929 176.45 95.8584C178.264 93.0238 179.624 89.1688 180.531 84.2933C181.552 79.4179 182.062 73.2385 182.062 65.7553V56.9114C182.062 49.5415 181.552 43.4189 180.531 38.5434C179.511 33.668 178.094 29.8129 176.279 26.9784C174.465 24.0304 172.254 21.9895 169.647 20.8557C167.039 19.7219 164.147 19.155 160.973 19.155C157.685 19.155 154.737 19.7219 152.129 20.8557C149.521 21.9895 147.31 23.9737 145.496 26.8083C143.682 29.6429 142.265 33.4979 141.244 38.3733C140.337 43.2488 139.884 49.4282 139.884 56.9114V65.7553C139.884 73.1251 140.337 79.2478 141.244 84.1233C142.265 88.9987 143.682 92.9104 145.496 95.8584C147.424 98.6929 149.635 100.677 152.129 101.811C154.737 102.945 157.685 103.512 160.973 103.512Z" fill="#F1F3F5"/>
<path d="M230.763 77.8305L280.425 1.80741H307.296V77.8305H320.902V95.8584H307.296V120.859H286.887V95.8584H230.763V77.8305ZM286.887 77.8305V24.4273L252.702 77.8305H286.887Z" fill="#F1F3F5"/>
</svg>
