<svg width="308" height="123" viewBox="0 0 308 123" fill="none" xmlns="http://www.w3.org/2000/svg">
<path d="M43.124 122.56C37.6816 122.56 32.5794 121.88 27.8173 120.519C23.0552 119.045 18.8034 116.948 15.0618 114.226C11.4335 111.505 8.37218 108.16 5.87776 104.192C3.38334 100.224 1.62591 95.6883 0.605469 90.5861H22.0348C23.7355 94.8947 26.4 98.1261 30.0283 100.28C33.7699 102.435 38.1351 103.512 43.124 103.512C49.5868 103.512 54.689 101.584 58.4306 97.7292C62.2857 93.7608 64.2132 88.2051 64.2132 81.0619C64.2132 73.9188 62.2857 68.4198 58.4306 64.5648C54.689 60.7098 49.5868 58.7823 43.124 58.7823C38.7021 58.7823 34.7904 59.6893 31.3889 61.5034C28.1008 63.3176 25.5497 65.5852 23.7355 68.3064H4.00695L9.10917 1.80743H77.9892V19.8353H27.4772L25.2662 46.1968C31.1621 41.8882 38.2485 39.734 46.5255 39.734C52.308 39.734 57.5803 40.6977 62.3424 42.6252C67.2178 44.5527 71.3563 47.3306 74.7578 50.9588C78.1592 54.5871 80.8237 58.9523 82.7512 64.0545C84.6787 69.1568 85.6425 74.8259 85.6425 81.0619C85.6425 87.4114 84.6787 93.1372 82.7512 98.2394C80.8237 103.342 77.9892 107.707 74.2475 111.335C70.6193 114.85 66.1407 117.628 60.8117 119.669C55.5961 121.596 49.7002 122.56 43.124 122.56Z" fill="#F1F3F5"/>
<path d="M156.296 122.56C149.72 122.56 143.768 121.54 138.439 119.499C133.223 117.344 128.801 114 125.173 109.464C121.545 104.929 118.71 99.0898 116.669 91.9467C114.742 84.6902 113.778 75.9597 113.778 65.7553V56.9114C113.778 46.8204 114.742 38.2033 116.669 31.0602C118.71 23.8037 121.545 17.9078 125.173 13.3725C128.914 8.72378 133.393 5.37899 138.609 3.3381C143.824 1.18383 149.72 0.106689 156.296 0.106689C162.872 0.106689 168.768 1.18383 173.984 3.3381C179.313 5.37899 183.792 8.66708 187.42 13.2024C191.161 17.7377 193.996 23.6336 195.924 30.8901C197.851 38.0332 198.815 46.707 198.815 56.9114V65.7553C198.815 75.8463 197.794 84.5201 195.753 91.7766C193.826 98.9197 190.991 104.816 187.25 109.464C183.622 114 179.2 117.344 173.984 119.499C168.768 121.54 162.872 122.56 156.296 122.56ZM156.296 103.512C159.584 103.512 162.532 102.945 165.14 101.811C167.748 100.677 169.959 98.693 171.773 95.8584C173.587 93.0238 174.948 89.1688 175.855 84.2934C176.875 79.4179 177.385 73.2385 177.385 65.7553V56.9114C177.385 49.5416 176.875 43.4189 175.855 38.5434C174.834 33.668 173.417 29.813 171.603 26.9784C169.789 24.0304 167.578 21.9896 164.97 20.8557C162.362 19.7219 159.471 19.155 156.296 19.155C153.008 19.155 150.06 19.7219 147.452 20.8557C144.845 21.9896 142.634 23.9738 140.82 26.8083C139.005 29.6429 137.588 33.4979 136.568 38.3734C135.661 43.2488 135.207 49.4282 135.207 56.9114V65.7553C135.207 73.1252 135.661 79.2478 136.568 84.1233C137.588 88.9987 139.005 92.9104 140.82 95.8584C142.747 98.693 144.958 100.677 147.452 101.811C150.06 102.945 153.008 103.512 156.296 103.512Z" fill="#F1F3F5"/>
<path d="M227.787 102.831L266.224 65.9254C269.966 62.2971 273.14 59.1224 275.748 56.4012C278.356 53.68 280.397 51.1856 281.871 48.918C283.458 46.6503 284.592 44.5527 285.272 42.6252C285.953 40.6977 286.293 38.7135 286.293 36.6726C286.293 31.3436 284.649 27.0918 281.361 23.9171C278.072 20.7423 273.537 19.155 267.755 19.155C261.972 19.155 257.437 20.8557 254.149 24.2572C250.861 27.5453 249.217 32.2507 249.217 38.3734H227.787C227.787 32.5908 228.694 27.3185 230.508 22.5565C232.323 17.7944 234.93 13.7693 238.332 10.4812C241.847 7.19311 246.042 4.642 250.917 2.82788C255.906 1.01375 261.519 0.106689 267.755 0.106689C273.991 0.106689 279.546 1.01375 284.422 2.82788C289.411 4.52862 293.606 7.02304 297.007 10.3111C300.522 13.4858 303.187 17.3409 305.001 21.8762C306.815 26.2981 307.722 31.2302 307.722 36.6726C307.722 43.3622 305.568 49.9384 301.259 56.4012C296.951 62.864 290.261 70.2339 281.19 78.5108L254.489 102.831H307.722V120.859H227.787V102.831Z" fill="#F1F3F5"/>
</svg>
