<svg width="313" height="123" viewBox="0 0 313 123" fill="none" xmlns="http://www.w3.org/2000/svg">
<path d="M42.5498 122.56C37.1074 122.56 32.0052 121.88 27.2431 120.519C22.481 119.045 18.2292 116.948 14.4875 114.226C10.8593 111.505 7.79797 108.16 5.30355 104.192C2.80913 100.224 1.05169 95.6883 0.03125 90.5861H21.4606C23.1613 94.8947 25.8258 98.1261 29.4541 100.28C33.1957 102.435 37.5609 103.512 42.5498 103.512C49.0126 103.512 54.1148 101.584 57.8564 97.7292C61.7114 93.7608 63.639 88.2051 63.639 81.0619C63.639 73.9188 61.7114 68.4198 57.8564 64.5648C54.1148 60.7098 49.0126 58.7823 42.5498 58.7823C38.1278 58.7823 34.2161 59.6893 30.8147 61.5034C27.5266 63.3176 24.9754 65.5852 23.1613 68.3064H3.43273L8.53495 1.80743H77.4149V19.8353H26.903L24.692 46.1968C30.5879 41.8882 37.6743 39.734 45.9512 39.734C51.7338 39.734 57.0061 40.6977 61.7681 42.6252C66.6436 44.5527 70.7821 47.3306 74.1835 50.9588C77.585 54.5871 80.2495 58.9523 82.177 64.0545C84.1045 69.1568 85.0683 74.8259 85.0683 81.0619C85.0683 87.4114 84.1045 93.1372 82.177 98.2394C80.2495 103.342 77.415 107.707 73.6733 111.335C70.0451 114.85 65.5665 117.628 60.2375 119.669C55.0219 121.596 49.126 122.56 42.5498 122.56Z" fill="#F1F3F5"/>
<path d="M155.722 122.56C149.146 122.56 143.193 121.54 137.864 119.499C132.649 117.344 128.227 114 124.599 109.464C120.97 104.929 118.136 99.0898 116.095 91.9467C114.167 84.6902 113.204 75.9597 113.204 65.7553V56.9114C113.204 46.8204 114.167 38.2033 116.095 31.0602C118.136 23.8037 120.97 17.9078 124.599 13.3725C128.34 8.72378 132.819 5.37899 138.034 3.3381C143.25 1.18383 149.146 0.106689 155.722 0.106689C162.298 0.106689 168.194 1.18383 173.41 3.3381C178.739 5.37899 183.217 8.66708 186.846 13.2024C190.587 17.7377 193.422 23.6336 195.349 30.8901C197.277 38.0332 198.241 46.707 198.241 56.9114V65.7553C198.241 75.8463 197.22 84.5201 195.179 91.7766C193.252 98.9197 190.417 104.816 186.676 109.464C183.047 114 178.625 117.344 173.41 119.499C168.194 121.54 162.298 122.56 155.722 122.56ZM155.722 103.512C159.01 103.512 161.958 102.945 164.566 101.811C167.174 100.677 169.385 98.693 171.199 95.8584C173.013 93.0238 174.374 89.1688 175.281 84.2934C176.301 79.4179 176.811 73.2385 176.811 65.7553V56.9114C176.811 49.5416 176.301 43.4189 175.281 38.5434C174.26 33.668 172.843 29.813 171.029 26.9784C169.215 24.0304 167.004 21.9896 164.396 20.8557C161.788 19.7219 158.897 19.155 155.722 19.155C152.434 19.155 149.486 19.7219 146.878 20.8557C144.27 21.9896 142.059 23.9738 140.245 26.8083C138.431 29.6429 137.014 33.4979 135.993 38.3734C135.086 43.2488 134.633 49.4282 134.633 56.9114V65.7553C134.633 73.1252 135.086 79.2478 135.993 84.1233C137.014 88.9987 138.431 92.9104 140.245 95.8584C142.173 98.693 144.384 100.677 146.878 101.811C149.486 102.945 152.434 103.512 155.722 103.512Z" fill="#F1F3F5"/>
<path d="M269.732 122.56C256.352 122.56 245.978 118.988 238.608 111.845C231.238 104.589 227.44 94.271 227.213 80.8919H248.642C248.869 88.7153 250.74 94.4411 254.255 98.0694C257.77 101.698 262.929 103.512 269.732 103.512C276.761 103.512 282.034 101.924 285.548 98.7496C289.063 95.4615 290.821 91.0396 290.821 85.4839C290.821 80.6084 289.12 76.5833 285.718 73.4086C282.43 70.2339 277.498 68.6465 270.922 68.6465H255.275V50.6187H270.922C276.364 50.6187 280.616 49.2014 283.678 46.3668C286.739 43.5323 288.27 39.8473 288.27 35.312C288.27 30.4366 286.682 26.5249 283.508 23.5769C280.446 20.629 275.854 19.155 269.732 19.155C258.393 19.155 252.214 25.5611 251.193 38.3734H229.764C229.991 26.3548 233.562 17.0007 240.479 10.3111C247.509 3.50817 257.259 0.106689 269.732 0.106689C276.308 0.106689 282.09 0.95706 287.079 2.6578C292.068 4.24516 296.206 6.5695 299.494 9.63084C302.896 12.5788 305.447 16.1503 307.148 20.3455C308.849 24.4273 309.699 28.9626 309.699 33.9514C309.699 39.3938 308.508 44.3259 306.127 48.7479C303.746 53.1698 300.061 56.7414 295.073 59.4625C300.855 62.2971 305.164 66.0954 307.998 70.8575C310.833 75.6196 312.25 81.0053 312.25 87.0145C312.25 92.3435 311.343 97.1623 309.529 101.471C307.715 105.779 304.994 109.521 301.365 112.696C297.85 115.87 293.429 118.308 288.1 120.009C282.884 121.71 276.761 122.56 269.732 122.56Z" fill="#F1F3F5"/>
</svg>
