<svg width="321" height="123" fill="none" xmlns="http://www.w3.org/2000/svg"><path d="M.18 77.83L49.84 1.808h26.872V77.83h13.606v18.028H76.713v25.001H56.304v-25H.18V77.83zm56.124 0V24.428L22.12 77.831h34.185zm104.669 44.73c-6.576 0-12.529-1.02-17.858-3.061-5.216-2.155-9.638-5.499-13.266-10.035-3.628-4.535-6.463-10.374-8.503-17.517-1.928-7.257-2.892-15.987-2.892-26.192v-8.844c0-10.09.964-18.708 2.892-25.85 2.04-7.257 4.875-13.153 8.503-17.689 3.742-4.648 8.22-7.993 13.436-10.034 5.216-2.154 11.112-3.231 17.688-3.231 6.576 0 12.472 1.077 17.687 3.231 5.329 2.041 9.808 5.33 13.436 9.864 3.742 4.536 6.577 10.432 8.504 17.688 1.928 7.143 2.891 15.817 2.891 26.021v8.844c0 10.091-1.02 18.765-3.061 26.022-1.928 7.143-4.762 13.039-8.504 17.687-3.628 4.536-8.05 7.88-13.266 10.035-5.215 2.041-11.111 3.061-17.687 3.061zm0-19.048c3.288 0 6.236-.567 8.844-1.701 2.607-1.134 4.818-3.118 6.633-5.953 1.814-2.834 3.174-6.69 4.081-11.565 1.021-4.875 1.531-11.055 1.531-18.538v-8.844c0-7.37-.51-13.492-1.531-18.368-1.02-4.875-2.437-8.73-4.252-11.565-1.814-2.948-4.025-4.989-6.632-6.122-2.608-1.134-5.5-1.701-8.674-1.701-3.288 0-6.236.567-8.844 1.7-2.608 1.134-4.819 3.119-6.633 5.953-1.814 2.835-3.231 6.69-4.252 11.565-.907 4.876-1.36 11.055-1.36 18.538v8.844c0 7.37.453 13.493 1.36 18.368 1.021 4.876 2.438 8.787 4.252 11.735 1.928 2.835 4.139 4.819 6.633 5.953 2.608 1.134 5.556 1.701 8.844 1.701zm69.79-25.682l49.662-76.023h26.871V77.83h13.606v18.028h-13.606v25.001h-20.409v-25h-56.124V77.83zm56.124 0V24.428l-34.185 53.404h34.185z" fill="#F1F3F5"/></svg>