<svg width="288" height="123" fill="none" xmlns="http://www.w3.org/2000/svg"><path d="M42.948 122.56c-5.442 0-10.544-.68-15.306-2.041-4.762-1.474-9.014-3.571-12.756-6.293-3.628-2.721-6.69-6.066-9.184-10.034C3.208 100.224 1.45 95.688.43 90.586h21.429c1.7 4.309 4.365 7.54 7.993 9.694 3.742 2.155 8.107 3.232 13.096 3.232 6.463 0 11.565-1.928 15.307-5.783 3.855-3.968 5.782-9.524 5.782-16.667 0-7.143-1.927-12.642-5.782-16.497-3.742-3.855-8.844-5.783-15.307-5.783-4.422 0-8.333.907-11.735 2.721-3.288 1.815-5.84 4.082-7.653 6.803H3.83L8.933 1.807h68.88v18.028H27.301l-2.21 26.362c5.895-4.309 12.982-6.463 21.259-6.463 5.782 0 11.054.964 15.817 2.891 4.875 1.928 9.013 4.706 12.415 8.334 3.402 3.628 6.066 7.993 7.994 13.096 1.927 5.102 2.89 10.77 2.89 17.007 0 6.35-.963 12.075-2.89 17.177-1.928 5.103-4.763 9.468-8.504 13.096-3.629 3.515-8.107 6.293-13.436 8.334-5.216 1.927-11.112 2.891-17.688 2.891zm123.377 0c-6.576 0-12.529-1.02-17.858-3.061-5.215-2.155-9.637-5.499-13.266-10.035-3.628-4.535-6.462-10.374-8.503-17.517-1.928-7.257-2.892-15.987-2.892-26.192v-8.844c0-10.09.964-18.708 2.892-25.85 2.041-7.257 4.875-13.153 8.503-17.689 3.742-4.648 8.221-7.993 13.436-10.034 5.216-2.154 11.112-3.231 17.688-3.231 6.576 0 12.472 1.077 17.688 3.231 5.329 2.041 9.807 5.33 13.436 9.864 3.741 4.536 6.576 10.432 8.503 17.688 1.928 7.143 2.892 15.817 2.892 26.021v8.844c0 10.091-1.021 18.765-3.062 26.022-1.927 7.143-4.762 13.039-8.504 17.687-3.628 4.536-8.05 7.88-13.265 10.035-5.216 2.041-11.112 3.061-17.688 3.061zm0-19.048c3.288 0 6.236-.567 8.844-1.701 2.608-1.134 4.819-3.118 6.633-5.953 1.814-2.834 3.174-6.69 4.082-11.565 1.02-4.875 1.53-11.055 1.53-18.538v-8.844c0-7.37-.51-13.492-1.53-18.368-1.021-4.875-2.438-8.73-4.252-11.565-1.814-2.948-4.025-4.988-6.633-6.122-2.608-1.134-5.499-1.701-8.674-1.701-3.288 0-6.236.567-8.844 1.7-2.608 1.135-4.819 3.119-6.633 5.953-1.814 2.835-3.231 6.69-4.252 11.565-.907 4.876-1.36 11.055-1.36 18.538v8.844c0 7.37.453 13.493 1.36 18.368 1.021 4.876 2.438 8.787 4.252 11.735 1.928 2.835 4.139 4.819 6.633 5.953 2.608 1.134 5.556 1.701 8.844 1.701zm101.254-80.615l-23.811 15.817v-20.92l23.811-15.987h20.409V120.86h-20.409V22.897z" fill="#F1F3F5"/></svg>