<svg width="308" height="123" fill="none" xmlns="http://www.w3.org/2000/svg"><path d="M43.124 122.56c-5.442 0-10.545-.68-15.307-2.041-4.762-1.474-9.014-3.571-12.755-6.293-3.628-2.721-6.69-6.066-9.184-10.034-2.495-3.968-4.252-8.504-5.273-13.606h21.43c1.7 4.309 4.365 7.54 7.993 9.694 3.742 2.155 8.107 3.232 13.096 3.232 6.463 0 11.565-1.928 15.307-5.783 3.855-3.968 5.782-9.524 5.782-16.667 0-7.143-1.927-12.642-5.782-16.497-3.742-3.855-8.844-5.783-15.307-5.783-4.422 0-8.334.907-11.735 2.721-3.288 1.815-5.84 4.082-7.654 6.803H4.007L9.109 1.807h68.88v18.028H27.477l-2.21 26.362c5.895-4.309 12.982-6.463 21.259-6.463 5.782 0 11.054.964 15.816 2.891 4.876 1.928 9.014 4.706 12.416 8.334 3.401 3.628 6.066 7.993 7.993 13.096 1.928 5.102 2.891 10.77 2.891 17.007 0 6.35-.963 12.075-2.89 17.177-1.928 5.103-4.763 9.468-8.504 13.096-3.629 3.515-8.107 6.293-13.436 8.334-5.216 1.927-11.112 2.891-17.688 2.891zm113.172 0c-6.576 0-12.528-1.02-17.857-3.061-5.216-2.155-9.638-5.499-13.266-10.035-3.628-4.535-6.463-10.374-8.504-17.517-1.927-7.257-2.891-15.987-2.891-26.192v-8.844c0-10.09.964-18.708 2.891-25.85 2.041-7.257 4.876-13.153 8.504-17.689 3.741-4.648 8.22-7.993 13.436-10.034C143.824 1.184 149.72.107 156.296.107c6.576 0 12.472 1.077 17.688 3.231 5.329 2.041 9.808 5.33 13.436 9.864 3.741 4.536 6.576 10.432 8.504 17.688 1.927 7.143 2.891 15.817 2.891 26.021v8.844c0 10.091-1.021 18.765-3.062 26.022-1.927 7.143-4.762 13.039-8.503 17.687-3.628 4.536-8.05 7.88-13.266 10.035-5.216 2.041-11.112 3.061-17.688 3.061zm0-19.048c3.288 0 6.236-.567 8.844-1.701 2.608-1.134 4.819-3.118 6.633-5.953 1.814-2.834 3.175-6.69 4.082-11.565 1.02-4.875 1.53-11.055 1.53-18.538v-8.844c0-7.37-.51-13.492-1.53-18.368-1.021-4.875-2.438-8.73-4.252-11.565-1.814-2.948-4.025-4.988-6.633-6.122-2.608-1.134-5.499-1.701-8.674-1.701-3.288 0-6.236.567-8.844 1.7-2.607 1.135-4.818 3.119-6.632 5.953-1.815 2.835-3.232 6.69-4.252 11.565-.907 4.876-1.361 11.055-1.361 18.538v8.844c0 7.37.454 13.493 1.361 18.368 1.02 4.876 2.437 8.787 4.252 11.735 1.927 2.835 4.138 4.819 6.632 5.953 2.608 1.134 5.556 1.701 8.844 1.701zm71.491-.681l38.437-36.906c3.742-3.628 6.916-6.803 9.524-9.524 2.608-2.721 4.649-5.215 6.123-7.483 1.587-2.268 2.721-4.365 3.401-6.293a17.741 17.741 0 001.021-5.952c0-5.33-1.644-9.581-4.932-12.756-3.289-3.175-7.824-4.762-13.606-4.762-5.783 0-10.318 1.7-13.606 5.102-3.288 3.288-4.932 7.994-4.932 14.116h-21.43c0-5.782.907-11.054 2.721-15.816 1.815-4.763 4.422-8.788 7.824-12.076 3.515-3.288 7.71-5.839 12.585-7.653 4.989-1.814 10.602-2.721 16.838-2.721 6.236 0 11.791.907 16.667 2.72 4.989 1.702 9.184 4.196 12.585 7.484 3.515 3.175 6.18 7.03 7.994 11.565 1.814 4.422 2.721 9.354 2.721 14.797 0 6.69-2.154 13.265-6.463 19.728-4.308 6.463-10.998 13.833-20.069 22.11l-26.701 24.32h53.233v18.028h-79.935v-18.028z" fill="#F1F3F5"/></svg>