<svg width="313" height="123" fill="none" xmlns="http://www.w3.org/2000/svg"><path d="M42.55 122.56c-5.443 0-10.545-.68-15.307-2.041-4.762-1.474-9.014-3.571-12.755-6.293-3.629-2.721-6.69-6.066-9.184-10.034-2.495-3.968-4.252-8.504-5.273-13.606h21.43c1.7 4.309 4.365 7.54 7.993 9.694 3.742 2.155 8.107 3.232 13.096 3.232 6.463 0 11.565-1.928 15.306-5.783 3.855-3.968 5.783-9.524 5.783-16.667 0-7.143-1.928-12.642-5.783-16.497-3.741-3.855-8.843-5.783-15.306-5.783-4.422 0-8.334.907-11.735 2.721-3.288 1.815-5.84 4.082-7.654 6.803H3.433L8.535 1.807h68.88v18.028H26.903l-2.211 26.362c5.896-4.309 12.982-6.463 21.26-6.463 5.782 0 11.054.964 15.816 2.891 4.876 1.928 9.014 4.706 12.415 8.334 3.402 3.628 6.066 7.993 7.994 13.096 1.927 5.102 2.891 10.77 2.891 17.007 0 6.35-.963 12.075-2.891 17.177-1.928 5.103-4.762 9.468-8.504 13.096-3.628 3.515-8.106 6.293-13.436 8.334-5.215 1.927-11.111 2.891-17.687 2.891zm113.172 0c-6.576 0-12.529-1.02-17.858-3.061-5.215-2.155-9.637-5.499-13.265-10.035-3.629-4.535-6.463-10.374-8.504-17.517-1.928-7.257-2.891-15.987-2.891-26.192v-8.844c0-10.09.963-18.708 2.891-25.85 2.041-7.257 4.875-13.153 8.504-17.689 3.741-4.648 8.22-7.993 13.435-10.034C143.25 1.184 149.146.107 155.722.107c6.576 0 12.472 1.077 17.688 3.231 5.329 2.041 9.807 5.33 13.436 9.864 3.741 4.536 6.576 10.432 8.503 17.688 1.928 7.143 2.892 15.817 2.892 26.021v8.844c0 10.091-1.021 18.765-3.062 26.022-1.927 7.143-4.762 13.039-8.503 17.687-3.629 4.536-8.051 7.88-13.266 10.035-5.216 2.041-11.112 3.061-17.688 3.061zm0-19.048c3.288 0 6.236-.567 8.844-1.701 2.608-1.134 4.819-3.118 6.633-5.953 1.814-2.834 3.175-6.69 4.082-11.565 1.02-4.875 1.53-11.055 1.53-18.538v-8.844c0-7.37-.51-13.492-1.53-18.368-1.021-4.875-2.438-8.73-4.252-11.565-1.814-2.948-4.025-4.988-6.633-6.122-2.608-1.134-5.499-1.701-8.674-1.701-3.288 0-6.236.567-8.844 1.7-2.608 1.135-4.819 3.119-6.633 5.953-1.814 2.835-3.231 6.69-4.252 11.565-.907 4.876-1.36 11.055-1.36 18.538v8.844c0 7.37.453 13.493 1.36 18.368 1.021 4.876 2.438 8.787 4.252 11.735 1.928 2.835 4.139 4.819 6.633 5.953 2.608 1.134 5.556 1.701 8.844 1.701zm114.01 19.048c-13.38 0-23.754-3.572-31.124-10.715-7.37-7.256-11.168-17.574-11.395-30.953h21.429c.227 7.823 2.098 13.55 5.613 17.177 3.515 3.629 8.674 5.443 15.477 5.443 7.029 0 12.302-1.588 15.816-4.762 3.515-3.288 5.273-7.71 5.273-13.266 0-4.876-1.701-8.9-5.103-12.075-3.288-3.175-8.22-4.763-14.796-4.763h-15.647V50.62h15.647c5.442 0 9.694-1.418 12.756-4.252 3.061-2.835 4.592-6.52 4.592-11.055 0-4.875-1.588-8.787-4.762-11.735-3.062-2.948-7.654-4.422-13.776-4.422-11.339 0-17.518 6.406-18.539 19.218h-21.429c.227-12.018 3.798-21.372 10.715-28.062 7.03-6.803 16.78-10.204 29.253-10.204 6.576 0 12.358.85 17.347 2.55 4.989 1.588 9.127 3.912 12.415 6.974 3.402 2.948 5.953 6.52 7.654 10.715 1.701 4.081 2.551 8.617 2.551 13.605 0 5.443-1.191 10.375-3.572 14.797-2.381 4.422-6.066 7.993-11.054 10.715 5.782 2.834 10.091 6.632 12.925 11.395 2.835 4.762 4.252 10.147 4.252 16.156 0 5.33-.907 10.148-2.721 14.457-1.814 4.308-4.535 8.05-8.164 11.225-3.515 3.174-7.936 5.612-13.265 7.313-5.216 1.701-11.339 2.551-18.368 2.551z" fill="#F1F3F5"/></svg>