<svg width="168" height="88" fill="none" xmlns="http://www.w3.org/2000/svg"><path fill-rule="evenodd" clip-rule="evenodd" d="M129.772 71H46.275c-3.889 0-7.041-3.134-7.041-7s3.152-7 7.041-7H7.042C3.152 57 0 53.866 0 50s3.153-7 7.042-7h40.24c3.889 0 7.041-3.134 7.041-7s-3.152-7-7.042-7h-25.15c-3.888 0-7.041-3.134-7.041-7s3.153-7 7.042-7h40.24c-3.89 0-7.043-3.134-7.043-7s3.153-7 7.042-7h98.587C164.847 1 168 4.134 168 8s-3.153 7-7.042 7h-40.239c3.889 0 7.041 3.134 7.041 7s-3.152 7-7.041 7h22.131c3.889 0 7.042 3.134 7.042 7s-3.153 7-7.042 7h-10.235c-4.903 0-8.878 3.134-8.878 7 0 2.577 2.011 4.91 6.035 7 3.89 0 7.042 3.134 7.042 7s-3.152 7-7.042 7zm31.186-28c-3.889 0-7.042-3.134-7.042-7s3.153-7 7.042-7S168 32.134 168 36s-3.153 7-7.042 7z" fill="#F1F3F5"/><g clip-path="url(#clip0_2155_1985)"><path fill-rule="evenodd" clip-rule="evenodd" d="M84 60c8.837 0 16-7.163 16-16s-7.163-16-16-16-16 7.163-16 16 7.163 16 16 16zm0-8a8 8 0 100-16 8 8 0 000 16z" fill="#D1D5D9"/><path d="M119.448 68.346a43.4 43.4 0 00.317-.466L120 66l-2-2.5-3.249 1.083C108.111 74.483 96.816 81 83.999 81c-20.253 0-36.705-16.273-36.996-36.457L41 44.2C41.108 67.856 60.318 87 84 87c11.91 0 22.688-4.842 30.475-12.664L117 76.5h1l1-.5.5-7.5-.052-.154zM84 1c23.498 0 42.594 18.849 42.993 42.252L124 44l-3.003-.429C120.767 23.334 104.291 7 83.999 7c-13.385 0-25.11 7.108-31.607 17.755L51.5 24.5h-2l-1.321-4.295c.106-.16.213-.318.322-.476V12l1.5-.5 2.5 1 1.094 1.094C61.375 5.813 72.125 1 83.999 1z" fill="#D1D5D9"/><path d="M52.365 38.694a1.29 1.29 0 00-.904 1.23v8.153c0 .563.366 1.062.904 1.23l7.79 2.434a24.985 24.985 0 001.51 3.648l-3.786 7.23a1.29 1.29 0 00.23 1.509l5.765 5.765a1.29 1.29 0 001.51.23l7.229-3.787a24.982 24.982 0 003.648 1.512l2.434 7.789a1.29 1.29 0 001.23.904h8.153a1.29 1.29 0 001.23-.904l2.435-7.79a24.985 24.985 0 003.648-1.51l7.229 3.786a1.288 1.288 0 001.509-.23l5.765-5.765a1.29 1.29 0 00.231-1.51l-3.787-7.229a24.96 24.96 0 001.511-3.648l7.789-2.434a1.29 1.29 0 00.905-1.23v-8.153a1.29 1.29 0 00-.905-1.23l-7.789-2.435a24.957 24.957 0 00-1.511-3.648l3.787-7.229a1.29 1.29 0 00-.231-1.51l-5.765-5.764a1.288 1.288 0 00-1.509-.23l-7.23 3.786a24.974 24.974 0 00-3.647-1.511l-2.434-7.79a1.29 1.29 0 00-1.23-.904h-8.153a1.29 1.29 0 00-1.231.905l-2.434 7.789a24.97 24.97 0 00-3.648 1.511l-7.23-3.787a1.289 1.289 0 00-1.509.23l-5.765 5.766a1.289 1.289 0 00-.23 1.51l3.787 7.228a24.981 24.981 0 00-1.512 3.648l-7.789 2.434zm10.057-1.043a22.4 22.4 0 011.831-4.419c.207-.378.211-.834.011-1.216l-3.661-6.99 4.424-4.425 6.99 3.662c.382.2.838.196 1.217-.011a22.39 22.39 0 014.419-1.831 1.29 1.29 0 00.867-.852l2.353-7.531h6.257l2.354 7.53c.128.412.454.731.867.853 1.533.45 3.02 1.066 4.419 1.83.378.207.834.212 1.216.011l6.99-3.661 4.425 4.424-3.662 6.99c-.2.382-.196.839.011 1.217a22.46 22.46 0 011.831 4.419c.121.413.441.738.852.867l7.531 2.353v6.258l-7.531 2.353a1.288 1.288 0 00-.852.867 22.465 22.465 0 01-1.831 4.42 1.288 1.288 0 00-.011 1.215l3.662 6.99-4.425 4.425-6.99-3.662a1.289 1.289 0 00-1.216.011 22.39 22.39 0 01-4.42 1.831 1.29 1.29 0 00-.866.852l-2.354 7.531h-6.257l-2.353-7.53a1.29 1.29 0 00-.867-.853 22.402 22.402 0 01-4.42-1.83 1.288 1.288 0 00-1.216-.012l-6.99 3.662-4.425-4.424 3.662-6.99a1.29 1.29 0 00-.01-1.217 22.398 22.398 0 01-1.832-4.419 1.29 1.29 0 00-.852-.867l-7.53-2.353V40.87l7.53-2.353a1.29 1.29 0 00.852-.867z" fill="#A1A3A5"/><path d="M76.944 48.618a1.29 1.29 0 00.64-1.706 7.053 7.053 0 016.418-9.957A7.053 7.053 0 0191.047 44a7.053 7.053 0 01-9.914 6.437 1.289 1.289 0 10-1.05 2.354 9.559 9.559 0 003.92.832c5.305 0 9.623-4.317 9.623-9.623 0-5.306-4.318-9.623-9.624-9.623-5.306 0-9.623 4.317-9.623 9.623 0 1.386.288 2.724.858 3.977a1.29 1.29 0 001.707.641z" fill="#A1A3A5"/><path d="M84.001 60.915c9.327 0 16.915-7.588 16.915-16.915 0-9.327-7.588-16.915-16.915-16.915-9.327 0-16.915 7.588-16.915 16.915 0 9.327 7.588 16.915 16.915 16.915zm0-31.252c7.905 0 14.337 6.431 14.337 14.337s-6.432 14.337-14.337 14.337c-7.905 0-14.337-6.432-14.337-14.337 0-7.905 6.432-14.337 14.337-14.337z" fill="#A1A3A5"/><path d="M120.29 19.111a1.289 1.289 0 10-2.125 1.46 41.247 41.247 0 017.234 22.047c0 .01.001.034-.025.061a.103.103 0 01-.076.032h-2.779c-.054 0-.097-.046-.099-.108-.346-9.729-4.336-18.886-11.236-25.786a38.245 38.245 0 00-12.472-8.334 38.233 38.233 0 00-14.705-2.926H84c-10.27 0-19.924 3.998-27.184 11.259a1.291 1.291 0 00-.26.374l-5.923 5.92a.425.425 0 01-.487.097.425.425 0 01-.275-.413V12.772c0-.26.172-.37.275-.412a.426.426 0 01.487.096l2.253 2.254a1.29 1.29 0 001.823 0C62.533 6.887 72.935 2.578 84 2.578c5.909 0 11.614 1.218 16.959 3.62a41.274 41.274 0 0113.575 9.812 1.29 1.29 0 001.9-1.743 43.848 43.848 0 00-14.419-10.421C96.336 1.294 90.275 0 84 0 72.677 0 62.008 4.247 53.811 11.988l-1.354-1.355a3.016 3.016 0 00-3.297-.655 3.015 3.015 0 00-1.867 2.794v10.022c0 1.228.733 2.325 1.867 2.794a3.016 3.016 0 003.297-.655l6.239-6.238a1.31 1.31 0 00.257-.366C65.689 11.751 74.566 8.135 84 8.135h.007c4.73 0 9.346.918 13.718 2.73a35.67 35.67 0 0111.636 7.775c6.437 6.437 10.16 14.98 10.483 24.053a2.672 2.672 0 002.675 2.596h2.779a2.7 2.7 0 001.929-.817 2.644 2.644 0 00.748-1.939 43.806 43.806 0 00-7.685-23.422zm-1.45 43.301a3.016 3.016 0 00-3.296.655l-6.239 6.238a1.298 1.298 0 00-.257.366C102.311 76.249 93.434 79.865 84 79.865h-.007c-4.73 0-9.346-.918-13.718-2.73a35.681 35.681 0 01-11.636-7.775c-6.437-6.437-10.16-14.98-10.483-24.053a2.672 2.672 0 00-2.675-2.596h-2.779c-.723 0-1.426.298-1.928.817a2.641 2.641 0 00-.75 1.94c.313 9.507 3.608 18.468 9.53 25.912a1.29 1.29 0 002.018-1.606c-5.575-7.007-8.677-15.441-8.97-24.392 0-.01-.001-.034.025-.061a.101.101 0 01.075-.032h2.78c.054 0 .096.046.098.108.346 9.729 4.337 18.886 11.236 25.786a38.25 38.25 0 0012.472 8.334 38.228 38.228 0 0014.706 2.926H84c10.269 0 19.923-3.998 27.184-11.259.111-.111.198-.238.26-.374l5.922-5.92a.426.426 0 01.487-.097.425.425 0 01.276.413v10.022c0 .26-.173.37-.276.413a.426.426 0 01-.487-.097l-2.253-2.254a1.29 1.29 0 00-1.823 0C105.466 81.113 95.064 85.422 84 85.422A41.248 41.248 0 0155.512 74.07a1.29 1.29 0 10-1.773 1.87C61.945 83.719 72.692 88 84 88c11.323 0 21.993-4.247 30.189-11.988l1.355 1.355a3.015 3.015 0 003.296.655 3.015 3.015 0 001.868-2.794V65.206a3.015 3.015 0 00-1.868-2.794z" fill="#A1A3A5"/></g><defs><clipPath id="clip0_2155_1985"><path fill="#fff" transform="translate(40)" d="M0 0h88v88H0z"/></clipPath></defs></svg>