<svg width="16" height="16" viewBox="0 0 16 16" fill="none" xmlns="http://www.w3.org/2000/svg">
<g clip-path="url(#clip0_2936_4600)">
<path fill-rule="evenodd" clip-rule="evenodd" d="M8 1.41667C6.60761 1.41667 5.27226 1.96979 4.28769 2.95436C3.30312 3.93892 2.75 5.27428 2.75 6.66667C2.75 8.69854 4.0743 10.6824 5.54446 12.2342C6.26421 12.9939 6.9865 13.6162 7.5297 14.0487C7.70883 14.1913 7.86782 14.3128 8 14.4113C8.13218 14.3128 8.29117 14.1913 8.4703 14.0487C9.0135 13.6162 9.73579 12.9939 10.4555 12.2342C11.9257 10.6824 13.25 8.69854 13.25 6.66667C13.25 5.27428 12.6969 3.93892 11.7123 2.95436C10.7277 1.96979 9.39239 1.41667 8 1.41667ZM8 15.3333C7.58397 15.9574 7.58379 15.9572 7.58358 15.9571L7.58156 15.9558L7.57697 15.9527L7.56139 15.9421C7.54821 15.9332 7.52948 15.9204 7.50559 15.9038C7.45781 15.8707 7.38932 15.8226 7.30307 15.7604C7.13064 15.6358 6.8868 15.4542 6.5953 15.2221C6.0135 14.7588 5.23579 14.0894 4.45554 13.2658C2.9257 11.651 1.25 9.30146 1.25 6.66667C1.25 4.87646 1.96116 3.15957 3.22703 1.8937C4.4929 0.627825 6.20979 -0.083333 8 -0.083333C9.79021 -0.083333 11.5071 0.627825 12.773 1.8937C14.0388 3.15957 14.75 4.87646 14.75 6.66667C14.75 9.30146 13.0743 11.651 11.5445 13.2658C10.7642 14.0894 9.9865 14.7588 9.4047 15.2221C9.1132 15.4542 8.86936 15.6358 8.69693 15.7604C8.61068 15.8226 8.54219 15.8707 8.49441 15.9038C8.47052 15.9204 8.45179 15.9332 8.43861 15.9421L8.42303 15.9527L8.41844 15.9558L8.41696 15.9567C8.41675 15.9569 8.41603 15.9574 8 15.3333ZM8 15.3333L8.41603 15.9574C8.1641 16.1253 7.8355 16.1251 7.58358 15.9571L8 15.3333Z" fill="white"/>
<path fill-rule="evenodd" clip-rule="evenodd" d="M8 5.41667C7.30964 5.41667 6.75 5.97631 6.75 6.66667C6.75 7.35702 7.30964 7.91667 8 7.91667C8.69036 7.91667 9.25 7.35702 9.25 6.66667C9.25 5.97631 8.69036 5.41667 8 5.41667ZM5.25 6.66667C5.25 5.14788 6.48122 3.91667 8 3.91667C9.51878 3.91667 10.75 5.14788 10.75 6.66667C10.75 8.18545 9.51878 9.41667 8 9.41667C6.48122 9.41667 5.25 8.18545 5.25 6.66667Z" fill="white"/>
</g>
<defs>
<clipPath id="clip0_2936_4600">
<rect width="16" height="16" fill="white"/>
</clipPath>
</defs>
</svg>
