<svg width="16" height="16" viewBox="0 0 16 16" fill="none" xmlns="http://www.w3.org/2000/svg">
<path fill-rule="evenodd" clip-rule="evenodd" d="M4.6413 1.97458C5.5321 1.08378 6.74028 0.583333 8.00006 0.583333C9.25984 0.583333 10.468 1.08378 11.3588 1.97458C12.2496 2.86537 12.7501 4.07355 12.7501 5.33333C12.7501 7.55616 13.2254 8.93014 13.6585 9.72419C13.8761 10.1231 14.0871 10.3833 14.232 10.5363C14.3047 10.6129 14.3612 10.6632 14.3943 10.6908C14.4108 10.7046 14.4215 10.7127 14.4255 10.7156M8.00006 2.08333C7.1381 2.08333 6.31146 2.42574 5.70196 3.03524C5.09247 3.64473 4.75006 4.47138 4.75006 5.33333C4.75006 7.77717 4.22536 9.40319 3.65848 10.4425C3.63215 10.4907 3.60576 10.5377 3.57937 10.5833H12.4207C12.3944 10.5377 12.368 10.4907 12.3416 10.4425C11.7748 9.40319 11.2501 7.77717 11.2501 5.33333C11.2501 4.47138 10.9076 3.64473 10.2982 3.03524C9.68866 2.42574 8.86201 2.08333 8.00006 2.08333ZM14.417 10.7099L14.418 10.7106L14.4197 10.7117L14.4225 10.7136L14.4262 10.7162C14.4268 10.7166 14.4272 10.7169 14.4272 10.7169C14.4272 10.7169 14.4267 10.7166 14.4259 10.716C14.694 10.9008 14.8125 11.2382 14.7179 11.5507C14.6221 11.867 14.3306 12.0833 14.0001 12.0833H2.00006C1.66956 12.0833 1.37801 11.867 1.28224 11.5507C1.18762 11.2381 1.30613 10.9008 1.5742 10.716C1.57434 10.7159 1.57449 10.7157 1.57466 10.7156C1.5786 10.7127 1.58931 10.7046 1.60586 10.6908C1.63893 10.6632 1.69546 10.6129 1.76809 10.5363C1.91298 10.3833 2.12404 10.1231 2.34164 9.72419C2.77476 8.93014 3.25006 7.55616 3.25006 5.33333C3.25006 4.07355 3.7505 2.86537 4.6413 1.97458" fill="white"/>
<path fill-rule="evenodd" clip-rule="evenodd" d="M6.4695 13.3512C6.82779 13.1434 7.28674 13.2654 7.49458 13.6237C7.54586 13.7121 7.61946 13.7854 7.70801 13.8365C7.79656 13.8875 7.89697 13.9143 7.99916 13.9143C8.10135 13.9143 8.20176 13.8875 8.29031 13.8365C8.37886 13.7854 8.45247 13.7121 8.50374 13.6237C8.71158 13.2654 9.17053 13.1434 9.52882 13.3512C9.88712 13.5591 10.0091 14.018 9.80124 14.3763C9.61811 14.692 9.35525 14.9541 9.03898 15.1363C8.72271 15.3184 8.36414 15.4143 7.99916 15.4143C7.63418 15.4143 7.27561 15.3184 6.95934 15.1363C6.64307 14.9541 6.38021 14.692 6.19708 14.3763C5.98924 14.018 6.1112 13.5591 6.4695 13.3512Z" fill="white"/>
</svg>
