<svg width="16" height="16" viewBox="0 0 16 16" fill="none" xmlns="http://www.w3.org/2000/svg">
<g clip-path="url(#clip0_2936_4574)">
<path fill-rule="evenodd" clip-rule="evenodd" d="M6.00065 14.0833C6.04668 14.0833 6.08398 14.046 6.08398 14C6.08398 13.954 6.04668 13.9167 6.00065 13.9167C5.95463 13.9167 5.91732 13.954 5.91732 14C5.91732 14.046 5.95463 14.0833 6.00065 14.0833ZM4.58398 14C4.58398 13.2176 5.21825 12.5833 6.00065 12.5833C6.78305 12.5833 7.41732 13.2176 7.41732 14C7.41732 14.7824 6.78305 15.4167 6.00065 15.4167C5.21825 15.4167 4.58398 14.7824 4.58398 14Z" fill="white"/>
<path fill-rule="evenodd" clip-rule="evenodd" d="M13.3327 14.0833C13.3787 14.0833 13.416 14.046 13.416 14C13.416 13.954 13.3787 13.9167 13.3327 13.9167C13.2867 13.9167 13.2493 13.954 13.2493 14C13.2493 14.046 13.2867 14.0833 13.3327 14.0833ZM11.916 14C11.916 13.2176 12.5503 12.5833 13.3327 12.5833C14.1151 12.5833 14.7493 13.2176 14.7493 14C14.7493 14.7824 14.1151 15.4167 13.3327 15.4167C12.5503 15.4167 11.916 14.7824 11.916 14Z" fill="white"/>
<path fill-rule="evenodd" clip-rule="evenodd" d="M-0.0839844 0.666667C-0.0839844 0.252453 0.251802 -0.083333 0.666016 -0.083333H3.33268C3.69015 -0.083333 3.99794 0.168956 4.0681 0.519474L4.61461 3.25H15.3327C15.5562 3.25 15.7681 3.3497 15.9106 3.52192C16.053 3.69414 16.1113 3.92093 16.0694 4.1405L15.0017 9.73945C14.9064 10.219 14.6455 10.6498 14.2646 10.9564C13.8858 11.2614 13.4123 11.4241 12.9263 11.4167H6.45909C5.97303 11.4241 5.49955 11.2614 5.12075 10.9564C4.74001 10.6499 4.47916 10.2193 4.38382 9.73997C4.38379 9.7398 4.38386 9.74015 4.38382 9.73997L3.2706 4.178C3.26578 4.15821 3.26175 4.13811 3.25854 4.11774L2.71792 1.41667H0.666016C0.251802 1.41667 -0.0839844 1.08088 -0.0839844 0.666667ZM4.91483 4.75L5.85498 9.44722C5.88165 9.5815 5.9547 9.70213 6.06135 9.78798C6.16799 9.87382 6.30143 9.91943 6.43831 9.91681L6.45268 9.91667H12.9327L12.9471 9.91681C13.0839 9.91943 13.2174 9.87382 13.324 9.78798C13.4301 9.70261 13.5029 9.58286 13.5299 9.44949L14.4261 4.75H4.91483Z" fill="white"/>
</g>
<defs>
<clipPath id="clip0_2936_4574">
<rect width="16" height="16" fill="white"/>
</clipPath>
</defs>
</svg>
