<svg width="16" height="16" viewBox="0 0 16 16" fill="none" xmlns="http://www.w3.org/2000/svg">
<path fill-rule="evenodd" clip-rule="evenodd" d="M2.91673 10.2507C3.55748 9.60997 4.42653 9.25 5.33268 9.25H10.666C11.5722 9.25 12.4412 9.60997 13.082 10.2507C13.7227 10.8915 14.0827 11.7605 14.0827 12.6667V14C14.0827 14.4142 13.7469 14.75 13.3327 14.75C12.9185 14.75 12.5827 14.4142 12.5827 14V12.6667C12.5827 12.1583 12.3807 11.6708 12.0213 11.3114C11.6619 10.9519 11.1743 10.75 10.666 10.75H5.33268C4.82435 10.75 4.33684 10.9519 3.97739 11.3114C3.61795 11.6708 3.41602 12.1583 3.41602 12.6667V14C3.41602 14.4142 3.08023 14.75 2.66602 14.75C2.2518 14.75 1.91602 14.4142 1.91602 14V12.6667C1.91602 11.7605 2.27598 10.8915 2.91673 10.2507Z" fill="white"/>
<path fill-rule="evenodd" clip-rule="evenodd" d="M8.00065 2.75C6.94211 2.75 6.08398 3.60812 6.08398 4.66667C6.08398 5.72521 6.94211 6.58333 8.00065 6.58333C9.0592 6.58333 9.91732 5.72521 9.91732 4.66667C9.91732 3.60812 9.0592 2.75 8.00065 2.75ZM4.58398 4.66667C4.58398 2.77969 6.11368 1.25 8.00065 1.25C9.88762 1.25 11.4173 2.77969 11.4173 4.66667C11.4173 6.55364 9.88762 8.08333 8.00065 8.08333C6.11368 8.08333 4.58398 6.55364 4.58398 4.66667Z" fill="white"/>
</svg>
