<svg width="16" height="16" viewBox="0 0 16 16" fill="none" xmlns="http://www.w3.org/2000/svg">
<g clip-path="url(#clip0_1746_13045)">
<path fill-rule="evenodd" clip-rule="evenodd" d="M8.00065 1.41669C5.83754 1.41669 4.08398 3.17024 4.08398 5.33335C4.08398 7.49647 5.83754 9.25002 8.00065 9.25002C10.1638 9.25002 11.9173 7.49647 11.9173 5.33335C11.9173 3.17024 10.1638 1.41669 8.00065 1.41669ZM2.58398 5.33335C2.58398 2.34181 5.00911 -0.083313 8.00065 -0.083313C10.9922 -0.083313 13.4173 2.34181 13.4173 5.33335C13.4173 8.3249 10.9922 10.75 8.00065 10.75C5.00911 10.75 2.58398 8.3249 2.58398 5.33335Z" fill="white"/>
<path fill-rule="evenodd" clip-rule="evenodd" d="M10.4274 8.50984C10.838 8.45536 11.215 8.74406 11.2695 9.15468L12.0762 15.2347C12.1141 15.5202 11.9851 15.8021 11.7444 15.9602C11.5037 16.1183 11.1938 16.1246 10.9468 15.9764L7.99937 14.208L5.05191 15.9764C4.80495 16.1246 4.49496 16.1183 4.25426 15.9602C4.01355 15.802 3.88464 15.5201 3.92256 15.2346L4.72923 9.16124C4.78377 8.75063 5.16084 8.46198 5.57145 8.51652C5.98206 8.57105 6.27071 8.94813 6.21617 9.35874L5.61437 13.8897L7.6135 12.6902C7.85101 12.5477 8.14773 12.5477 8.38524 12.6902L10.3846 13.8898L9.78255 9.35196C9.72807 8.94135 10.0168 8.56431 10.4274 8.50984Z" fill="white"/>
</g>
<defs>
<clipPath id="clip0_1746_13045">
<rect width="16" height="16" fill="white"/>
</clipPath>
</defs>
</svg>
