<svg width="17" height="16" viewBox="0 0 17 16" fill="none" xmlns="http://www.w3.org/2000/svg">
<g clip-path="url(#clip0_1746_23790)">
<path fill-rule="evenodd" clip-rule="evenodd" d="M2.49935 3.41669C2.17718 3.41669 1.91602 3.67785 1.91602 4.00002V12C1.91602 12.3222 2.17718 12.5834 2.49935 12.5834H14.4993C14.8215 12.5834 15.0827 12.3222 15.0827 12V4.00002C15.0827 3.67785 14.8215 3.41669 14.4993 3.41669H2.49935ZM0.416016 4.00002C0.416016 2.84943 1.34876 1.91669 2.49935 1.91669H14.4993C15.6499 1.91669 16.5827 2.84943 16.5827 4.00002V12C16.5827 13.1506 15.6499 14.0834 14.4993 14.0834H2.49935C1.34876 14.0834 0.416016 13.1506 0.416016 12V4.00002Z" fill="#D1D5D9"/>
<path fill-rule="evenodd" clip-rule="evenodd" d="M0.416016 6.66669C0.416016 6.25247 0.751802 5.91669 1.16602 5.91669H15.8327C16.2469 5.91669 16.5827 6.25247 16.5827 6.66669C16.5827 7.0809 16.2469 7.41669 15.8327 7.41669H1.16602C0.751802 7.41669 0.416016 7.0809 0.416016 6.66669Z" fill="#D1D5D9"/>
</g>
<defs>
<clipPath id="clip0_1746_23790">
<rect width="16" height="16" fill="white" transform="translate(0.5)"/>
</clipPath>
</defs>
</svg>
