<svg width="17" height="16" viewBox="0 0 17 16" fill="none" xmlns="http://www.w3.org/2000/svg">
<path fill-rule="evenodd" clip-rule="evenodd" d="M3.02621 1.19351C3.41691 0.802806 3.94681 0.583313 4.49935 0.583313H9.83268C10.0316 0.583313 10.2224 0.662331 10.363 0.802983L14.363 4.80298C14.5037 4.94364 14.5827 5.1344 14.5827 5.33331V13.3333C14.5827 13.8858 14.3632 14.4158 13.9725 14.8065C13.5818 15.1972 13.0519 15.4166 12.4993 15.4166H4.49935C3.94681 15.4166 3.41691 15.1972 3.02621 14.8065C2.63551 14.4158 2.41602 13.8858 2.41602 13.3333V2.66665C2.41602 2.11411 2.63551 1.58421 3.02621 1.19351ZM4.49935 2.08331C4.34464 2.08331 4.19627 2.14477 4.08687 2.25417C3.97747 2.36356 3.91602 2.51194 3.91602 2.66665V13.3333C3.91602 13.488 3.97747 13.6364 4.08687 13.7458C4.19627 13.8552 4.34464 13.9166 4.49935 13.9166H12.4993C12.6541 13.9166 12.8024 13.8552 12.9118 13.7458C13.0212 13.6364 13.0827 13.488 13.0827 13.3333V5.64397L9.52202 2.08331H4.49935Z" fill="#D1D5D9"/>
<path fill-rule="evenodd" clip-rule="evenodd" d="M9.83398 0.583313C10.2482 0.583313 10.584 0.919099 10.584 1.33331V4.58331H13.834C14.2482 4.58331 14.584 4.9191 14.584 5.33331C14.584 5.74753 14.2482 6.08331 13.834 6.08331H9.83398C9.41977 6.08331 9.08398 5.74753 9.08398 5.33331V1.33331C9.08398 0.919099 9.41977 0.583313 9.83398 0.583313Z" fill="#D1D5D9"/>
<path fill-rule="evenodd" clip-rule="evenodd" d="M5.08398 8.66669C5.08398 8.25247 5.41977 7.91669 5.83398 7.91669H11.1673C11.5815 7.91669 11.9173 8.25247 11.9173 8.66669C11.9173 9.0809 11.5815 9.41669 11.1673 9.41669H5.83398C5.41977 9.41669 5.08398 9.0809 5.08398 8.66669Z" fill="#D1D5D9"/>
<path fill-rule="evenodd" clip-rule="evenodd" d="M5.08398 11.3333C5.08398 10.9191 5.41977 10.5833 5.83398 10.5833H11.1673C11.5815 10.5833 11.9173 10.9191 11.9173 11.3333C11.9173 11.7475 11.5815 12.0833 11.1673 12.0833H5.83398C5.41977 12.0833 5.08398 11.7475 5.08398 11.3333Z" fill="#D1D5D9"/>
<path fill-rule="evenodd" clip-rule="evenodd" d="M5.08398 6C5.08398 5.58579 5.41977 5.25 5.83398 5.25H7.16732C7.58153 5.25 7.91732 5.58579 7.91732 6C7.91732 6.41421 7.58153 6.75 7.16732 6.75H5.83398C5.41977 6.75 5.08398 6.41421 5.08398 6Z" fill="#D1D5D9"/>
</svg>
