<svg width="15" height="14" viewBox="0 0 15 14" fill="none" xmlns="http://www.w3.org/2000/svg">
<path fill-rule="evenodd" clip-rule="evenodd" d="M2.83333 1.75C2.67862 1.75 2.53025 1.81146 2.42085 1.92085C2.31146 2.03025 2.25 2.17862 2.25 2.33333V11.1893L3.63634 9.803C3.77699 9.66235 3.96775 9.58333 4.16667 9.58333H12.1667C12.3214 9.58333 12.4697 9.52188 12.5791 9.41248C12.6885 9.30308 12.75 9.15471 12.75 9V2.33333C12.75 2.17862 12.6885 2.03025 12.5791 1.92085C12.4697 1.81146 12.3214 1.75 12.1667 1.75H2.83333ZM1.36019 0.860194C1.7509 0.469493 2.2808 0.25 2.83333 0.25H12.1667C12.7192 0.25 13.2491 0.469493 13.6398 0.860194C14.0305 1.25089 14.25 1.7808 14.25 2.33333V9C14.25 9.55254 14.0305 10.0824 13.6398 10.4731C13.2491 10.8638 12.7192 11.0833 12.1667 11.0833H4.47733L2.03033 13.5303C1.81583 13.7448 1.49324 13.809 1.21299 13.6929C0.932732 13.5768 0.75 13.3033 0.75 13V2.33333C0.75 1.7808 0.969493 1.2509 1.36019 0.860194Z" fill="#D1D5D9"/>
</svg>
