<svg width="16" height="15" viewBox="0 0 16 15" fill="none" xmlns="http://www.w3.org/2000/svg">
<path fill-rule="evenodd" clip-rule="evenodd" d="M8.00067 0.583344C8.28614 0.583344 8.54685 0.745398 8.6732 1.00138L10.5589 4.82153L14.7758 5.4379C15.0582 5.47918 15.2927 5.67718 15.3808 5.94869C15.4688 6.22019 15.3951 6.51813 15.1906 6.71728L12.1399 9.6887L12.8599 13.8866C12.9081 14.168 12.7925 14.4523 12.5615 14.6201C12.3305 14.7879 12.0243 14.81 11.7716 14.6771L8.00067 12.6941L4.22976 14.6771C3.97707 14.81 3.67086 14.7879 3.43987 14.6201C3.20889 14.4523 3.0932 14.168 3.14147 13.8866L3.86145 9.6887L0.810707 6.71728C0.606243 6.51813 0.532538 6.22019 0.620572 5.94869C0.708605 5.67718 0.943115 5.47918 1.22554 5.4379L5.44248 4.82153L7.32814 1.00138C7.4545 0.745398 7.71521 0.583344 8.00067 0.583344ZM8.00067 3.02778L6.6132 5.83864C6.50405 6.05978 6.29316 6.21313 6.04914 6.24879L2.94532 6.70246L5.19064 8.88941C5.36754 9.06171 5.44829 9.31006 5.40655 9.55346L4.87681 12.6421L7.65158 11.1829C7.87012 11.0679 8.13122 11.0679 8.34976 11.1829L11.1245 12.6421L10.5948 9.55346C10.5531 9.31006 10.6338 9.06171 10.8107 8.88941L13.056 6.70246L9.9522 6.24879C9.70819 6.21313 9.4973 6.05978 9.38814 5.83864L8.00067 3.02778Z" fill="white"/>
</svg>
