<svg width="16" height="16" viewBox="0 0 16 16" fill="none" xmlns="http://www.w3.org/2000/svg">
<path fill-rule="evenodd" clip-rule="evenodd" d="M7.66524 0.662523C7.87639 0.55695 8.12492 0.55695 8.33606 0.662523L15.0027 3.99586C15.2568 4.1229 15.4173 4.3826 15.4173 4.66668C15.4173 4.95076 15.2568 5.21045 15.0027 5.3375L8.33606 8.67083C8.12492 8.7764 7.87639 8.7764 7.66524 8.67083L0.998574 5.3375C0.744486 5.21045 0.583984 4.95076 0.583984 4.66668C0.583984 4.3826 0.744486 4.1229 0.998574 3.99586L7.66524 0.662523ZM3.01104 4.66668L8.00065 7.16148L12.9903 4.66668L8.00065 2.17187L3.01104 4.66668Z" fill="white"/>
<path fill-rule="evenodd" clip-rule="evenodd" d="M0.663328 10.9979C0.84857 10.6274 1.29908 10.4773 1.66956 10.6625L8.00082 13.8281L14.3321 10.6625C14.7026 10.4773 15.1531 10.6274 15.3383 10.9979C15.5235 11.3684 15.3734 11.8189 15.0029 12.0041L8.33623 15.3375C8.12508 15.4431 7.87655 15.4431 7.66541 15.3375L0.998738 12.0041C0.628255 11.8189 0.478086 11.3684 0.663328 10.9979Z" fill="white"/>
<path fill-rule="evenodd" clip-rule="evenodd" d="M0.663328 7.6646C0.84857 7.29412 1.29908 7.14395 1.66956 7.32919L8.00082 10.4948L14.3321 7.32919C14.7026 7.14395 15.1531 7.29412 15.3383 7.6646C15.5235 8.03509 15.3734 8.48559 15.0029 8.67083L8.33623 12.0042C8.12508 12.1097 7.87655 12.1097 7.66541 12.0042L0.998738 8.67083C0.628255 8.48559 0.478086 8.03509 0.663328 7.6646Z" fill="white"/>
</svg>
