<svg width="16" height="16" viewBox="0 0 16 16" fill="none" xmlns="http://www.w3.org/2000/svg">
<path fill-rule="evenodd" clip-rule="evenodd" d="M13.1976 2.80301C13.4905 3.09591 13.4905 3.57078 13.1976 3.86367L3.86431 13.197C3.57142 13.4899 3.09655 13.4899 2.80365 13.197C2.51076 12.9041 2.51076 12.4292 2.80365 12.1363L12.137 2.80301C12.4299 2.51012 12.9048 2.51012 13.1976 2.80301Z" fill="white"/>
<path fill-rule="evenodd" clip-rule="evenodd" d="M4.33268 3.41666C3.82642 3.41666 3.41602 3.82706 3.41602 4.33332C3.41602 4.83958 3.82642 5.24999 4.33268 5.24999C4.83894 5.24999 5.24935 4.83958 5.24935 4.33332C5.24935 3.82706 4.83894 3.41666 4.33268 3.41666ZM1.91602 4.33332C1.91602 2.99863 2.99799 1.91666 4.33268 1.91666C5.66737 1.91666 6.74935 2.99863 6.74935 4.33332C6.74935 5.66801 5.66737 6.74999 4.33268 6.74999C2.99799 6.74999 1.91602 5.66801 1.91602 4.33332Z" fill="white"/>
<path fill-rule="evenodd" clip-rule="evenodd" d="M11.6667 10.75C11.1604 10.75 10.75 11.1604 10.75 11.6667C10.75 12.1729 11.1604 12.5833 11.6667 12.5833C12.1729 12.5833 12.5833 12.1729 12.5833 11.6667C12.5833 11.1604 12.1729 10.75 11.6667 10.75ZM9.25 11.6667C9.25 10.332 10.332 9.25 11.6667 9.25C13.0014 9.25 14.0833 10.332 14.0833 11.6667C14.0833 13.0014 13.0014 14.0833 11.6667 14.0833C10.332 14.0833 9.25 13.0014 9.25 11.6667Z" fill="white"/>
</svg>
