<svg width="16" height="16" viewBox="0 0 16 16" fill="none" xmlns="http://www.w3.org/2000/svg">
<path fill-rule="evenodd" clip-rule="evenodd" d="M2.52621 1.19351C2.91691 0.802806 3.44681 0.583313 3.99935 0.583313H9.33268C9.53159 0.583313 9.72236 0.662331 9.86301 0.802983L13.863 4.80298C14.0037 4.94364 14.0827 5.1344 14.0827 5.33331V13.3333C14.0827 13.8858 13.8632 14.4158 13.4725 14.8065C13.0818 15.1972 12.5519 15.4166 11.9993 15.4166H3.99935C3.44681 15.4166 2.91691 15.1972 2.52621 14.8065C2.13551 14.4158 1.91602 13.8858 1.91602 13.3333V2.66665C1.91602 2.11411 2.13551 1.58421 2.52621 1.19351ZM3.99935 2.08331C3.84464 2.08331 3.69627 2.14477 3.58687 2.25417C3.47747 2.36356 3.41602 2.51194 3.41602 2.66665V13.3333C3.41602 13.488 3.47747 13.6364 3.58687 13.7458C3.69627 13.8552 3.84464 13.9166 3.99935 13.9166H11.9993C12.1541 13.9166 12.3024 13.8552 12.4118 13.7458C12.5212 13.6364 12.5827 13.488 12.5827 13.3333V5.64397L9.02202 2.08331H3.99935Z" fill="white"/>
<path fill-rule="evenodd" clip-rule="evenodd" d="M9.33398 0.583313C9.7482 0.583313 10.084 0.919099 10.084 1.33331V4.58331H13.334C13.7482 4.58331 14.084 4.9191 14.084 5.33331C14.084 5.74753 13.7482 6.08331 13.334 6.08331H9.33398C8.91977 6.08331 8.58398 5.74753 8.58398 5.33331V1.33331C8.58398 0.919099 8.91977 0.583313 9.33398 0.583313Z" fill="white"/>
<path fill-rule="evenodd" clip-rule="evenodd" d="M4.58398 8.66669C4.58398 8.25247 4.91977 7.91669 5.33398 7.91669H10.6673C11.0815 7.91669 11.4173 8.25247 11.4173 8.66669C11.4173 9.0809 11.0815 9.41669 10.6673 9.41669H5.33398C4.91977 9.41669 4.58398 9.0809 4.58398 8.66669Z" fill="white"/>
<path fill-rule="evenodd" clip-rule="evenodd" d="M4.58398 11.3333C4.58398 10.9191 4.91977 10.5833 5.33398 10.5833H10.6673C11.0815 10.5833 11.4173 10.9191 11.4173 11.3333C11.4173 11.7475 11.0815 12.0833 10.6673 12.0833H5.33398C4.91977 12.0833 4.58398 11.7475 4.58398 11.3333Z" fill="white"/>
<path fill-rule="evenodd" clip-rule="evenodd" d="M4.58398 6C4.58398 5.58579 4.91977 5.25 5.33398 5.25H6.66732C7.08153 5.25 7.41732 5.58579 7.41732 6C7.41732 6.41421 7.08153 6.75 6.66732 6.75H5.33398C4.91977 6.75 4.58398 6.41421 4.58398 6Z" fill="white"/>
</svg>
