<svg width="16" height="16" viewBox="0 0 16 16" fill="none" xmlns="http://www.w3.org/2000/svg">
<path fill-rule="evenodd" clip-rule="evenodd" d="M8.00065 2.08331C4.73297 2.08331 2.08398 4.73229 2.08398 7.99998C2.08398 11.2677 4.73297 13.9166 8.00065 13.9166C11.2683 13.9166 13.9173 11.2677 13.9173 7.99998C13.9173 4.73229 11.2683 2.08331 8.00065 2.08331ZM0.583984 7.99998C0.583984 3.90387 3.90454 0.583313 8.00065 0.583313C12.0968 0.583313 15.4173 3.90387 15.4173 7.99998C15.4173 12.0961 12.0968 15.4166 8.00065 15.4166C3.90454 15.4166 0.583984 12.0961 0.583984 7.99998Z" fill="white"/>
<path fill-rule="evenodd" clip-rule="evenodd" d="M8 4.58331C8.41421 4.58331 8.75 4.9191 8.75 5.33331V10.6666C8.75 11.0809 8.41421 11.4166 8 11.4166C7.58579 11.4166 7.25 11.0809 7.25 10.6666V5.33331C7.25 4.9191 7.58579 4.58331 8 4.58331Z" fill="white"/>
<path fill-rule="evenodd" clip-rule="evenodd" d="M4.58398 8C4.58398 7.58579 4.91977 7.25 5.33398 7.25H10.6673C11.0815 7.25 11.4173 7.58579 11.4173 8C11.4173 8.41421 11.0815 8.75 10.6673 8.75H5.33398C4.91977 8.75 4.58398 8.41421 4.58398 8Z" fill="white"/>
</svg>
