<svg width="16" height="16" viewBox="0 0 16 16" fill="none" xmlns="http://www.w3.org/2000/svg">
<path fill-rule="evenodd" clip-rule="evenodd" d="M8.00065 2.08331C4.73297 2.08331 2.08398 4.73229 2.08398 7.99998C2.08398 11.2677 4.73297 13.9166 8.00065 13.9166C11.2683 13.9166 13.9173 11.2677 13.9173 7.99998C13.9173 4.73229 11.2683 2.08331 8.00065 2.08331ZM0.583984 7.99998C0.583984 3.90387 3.90454 0.583313 8.00065 0.583313C12.0968 0.583313 15.4173 3.90387 15.4173 7.99998C15.4173 12.0961 12.0968 15.4166 8.00065 15.4166C3.90454 15.4166 0.583984 12.0961 0.583984 7.99998Z" fill="white"/>
<path fill-rule="evenodd" clip-rule="evenodd" d="M8.15874 5.43169C7.86779 5.38179 7.56857 5.43646 7.31407 5.58604C7.05957 5.73561 6.86621 5.97043 6.76825 6.2489C6.6308 6.63964 6.20261 6.84497 5.81187 6.70752C5.42113 6.57006 5.2158 6.14187 5.35325 5.75113C5.56876 5.13849 5.99414 4.6219 6.55404 4.29284C7.11394 3.96378 7.77224 3.84349 8.41233 3.95329C9.05242 4.06308 9.633 4.39586 10.0512 4.8927C10.4693 5.38937 10.6982 6.01793 10.6974 6.66714C10.6972 7.7317 9.90866 8.42724 9.36344 8.79072C9.06797 8.9877 8.77783 9.13224 8.56452 9.22704C8.4568 9.27492 8.36599 9.31129 8.30035 9.3363C8.26747 9.34882 8.24073 9.35856 8.22114 9.36553L8.19718 9.37392L8.18942 9.37657L8.18663 9.37751L8.18552 9.37788C8.18529 9.37796 8.18459 9.37819 7.94742 8.66668L8.18552 9.37788C7.79256 9.50887 7.36689 9.29681 7.23591 8.90385C7.10512 8.51148 7.31666 8.08742 7.70849 7.95576C7.70875 7.95567 7.70822 7.95585 7.70849 7.95576L7.71862 7.95221C7.72833 7.94876 7.74455 7.94287 7.76636 7.93457C7.8101 7.9179 7.87554 7.89178 7.95531 7.85632C8.117 7.78446 8.32687 7.679 8.53139 7.54264C8.98609 7.23951 9.19742 6.9352 9.19742 6.66668L9.19742 6.66557C9.19786 6.37037 9.09381 6.08454 8.9037 5.8587C8.71359 5.63287 8.44969 5.4816 8.15874 5.43169ZM7.7098 7.95532C7.70982 7.95531 7.70978 7.95532 7.7098 7.95532L7.939 8.64142C7.71147 7.95886 7.71 7.95527 7.7098 7.95532Z" fill="white"/>
<path fill-rule="evenodd" clip-rule="evenodd" d="M7.25 11.3333C7.25 10.9191 7.58579 10.5833 8 10.5833H8.00667C8.42088 10.5833 8.75667 10.9191 8.75667 11.3333C8.75667 11.7475 8.42088 12.0833 8.00667 12.0833H8C7.58579 12.0833 7.25 11.7475 7.25 11.3333Z" fill="white"/>
</svg>
