<svg width="14" height="14" viewBox="0 0 14 14" fill="none" xmlns="http://www.w3.org/2000/svg">
<path fill-rule="evenodd" clip-rule="evenodd" d="M2.33333 1.75C2.17862 1.75 2.03025 1.81146 1.92085 1.92085C1.81146 2.03025 1.75 2.17862 1.75 2.33333V11.1893L3.13634 9.803C3.27699 9.66235 3.46775 9.58333 3.66667 9.58333H11.6667C11.8214 9.58333 11.9697 9.52188 12.0791 9.41248C12.1885 9.30308 12.25 9.15471 12.25 9V2.33333C12.25 2.17862 12.1885 2.03025 12.0791 1.92085C11.9697 1.81146 11.8214 1.75 11.6667 1.75H2.33333ZM0.860194 0.860194C1.2509 0.469493 1.7808 0.25 2.33333 0.25H11.6667C12.2192 0.25 12.7491 0.469493 13.1398 0.860194C13.5305 1.25089 13.75 1.7808 13.75 2.33333V9C13.75 9.55254 13.5305 10.0824 13.1398 10.4731C12.7491 10.8638 12.2192 11.0833 11.6667 11.0833H3.97733L1.53033 13.5303C1.31583 13.7448 0.993243 13.809 0.712987 13.6929C0.432732 13.5768 0.25 13.3033 0.25 13V2.33333C0.25 1.7808 0.469493 1.2509 0.860194 0.860194Z" fill="white"/>
</svg>
