<svg width="16" height="16" viewBox="0 0 16 16" fill="none" xmlns="http://www.w3.org/2000/svg">
<path fill-rule="evenodd" clip-rule="evenodd" d="M10.4087 2.59181C9.24331 2.07253 7.94124 1.94388 6.69673 2.22506C5.45222 2.50625 4.33194 3.18219 3.50297 4.15208C2.674 5.12197 2.18076 6.33385 2.09681 7.60696C2.01286 8.88008 2.3427 10.1462 3.03714 11.2166C3.73157 12.2869 4.7534 13.1041 5.95021 13.5463C7.14703 13.9884 8.45472 14.0319 9.67824 13.6701C10.9018 13.3084 11.9756 12.5608 12.7395 11.5389C13.5034 10.5171 13.9165 9.27581 13.9173 8.00007C13.9173 7.99993 13.9173 8.00022 13.9173 8.00007M13.9173 8.00007V7.38674C13.9173 6.97253 14.2531 6.63674 14.6673 6.63674C15.0815 6.63674 15.4173 6.97253 15.4173 7.38674V8.00007C15.4164 9.59942 14.8985 11.1561 13.9409 12.437C12.9833 13.718 11.6373 14.6551 10.1035 15.1086C8.56983 15.562 6.93062 15.5076 5.43038 14.9533C3.93015 14.3991 2.64927 13.3747 1.77878 12.033C0.90829 10.6913 0.49483 9.10415 0.600061 7.50827C0.705293 5.91239 1.32358 4.39328 2.36271 3.1775C3.40184 1.96172 4.80613 1.11441 6.36616 0.761943C7.92618 0.409476 9.55835 0.570735 11.0192 1.22167C11.3976 1.39025 11.5676 1.83364 11.3991 2.21199C11.2305 2.59034 10.7871 2.7604 10.4087 2.59181" fill="#FF9900"/>
<path fill-rule="evenodd" clip-rule="evenodd" d="M15.1967 2.13615C15.4898 2.4289 15.49 2.90377 15.1973 3.19681L8.5306 9.87015C8.38997 10.0109 8.19916 10.09 8.00019 10.0901C7.80121 10.0901 7.61037 10.0111 7.46967 9.87041L5.46967 7.87041C5.17678 7.57752 5.17678 7.10264 5.46967 6.80975C5.76256 6.51686 6.23744 6.51686 6.53033 6.80975L7.99973 8.27916L14.1361 2.13668C14.4288 1.84364 14.9037 1.84341 15.1967 2.13615Z" fill="#FF9900"/>
</svg>
