<svg width="6" height="9" viewBox="0 0 6 9" fill="none" xmlns="http://www.w3.org/2000/svg">
<path d="M2.34922 5.86016C2.34922 5.52016 2.38922 5.24016 2.46922 5.02016C2.54922 4.79349 2.64589 4.60349 2.75922 4.45016C2.87922 4.29016 3.00589 4.15682 3.13922 4.05016C3.27922 3.94349 3.40589 3.84016 3.51922 3.74016C3.63922 3.63349 3.73922 3.51682 3.81922 3.39016C3.89922 3.25682 3.93922 3.09349 3.93922 2.90016C3.93922 2.63349 3.85589 2.42349 3.68922 2.27016C3.52922 2.11016 3.29922 2.03016 2.99922 2.03016C2.68589 2.03016 2.43922 2.11682 2.25922 2.29016C2.08589 2.46349 1.98589 2.70016 1.95922 3.00016H0.699219C0.712552 2.69349 0.772552 2.41349 0.879219 2.16016C0.992552 1.90682 1.14589 1.68682 1.33922 1.50016C1.53922 1.31349 1.77255 1.17016 2.03922 1.07016C2.31255 0.96349 2.61589 0.910156 2.94922 0.910156C3.31589 0.910156 3.63922 0.956823 3.91922 1.05016C4.19922 1.14349 4.43255 1.27349 4.61922 1.44016C4.81255 1.60682 4.95589 1.80682 5.04922 2.04016C5.14922 2.26682 5.19922 2.52016 5.19922 2.80016C5.19922 3.08682 5.15922 3.32682 5.07922 3.52016C4.99922 3.71349 4.89589 3.88349 4.76922 4.03016C4.64922 4.17016 4.51589 4.29682 4.36922 4.41016C4.22922 4.52349 4.09589 4.64682 3.96922 4.78016C3.84922 4.91349 3.74922 5.06349 3.66922 5.23016C3.58922 5.39682 3.54922 5.60682 3.54922 5.86016H2.34922ZM2.94922 8.09016C2.71589 8.09016 2.52255 8.01349 2.36922 7.86016C2.22255 7.70016 2.14922 7.51016 2.14922 7.29016C2.14922 7.07016 2.22255 6.88349 2.36922 6.73016C2.52255 6.57016 2.71589 6.49016 2.94922 6.49016C3.18255 6.49016 3.37255 6.57016 3.51922 6.73016C3.67255 6.88349 3.74922 7.07016 3.74922 7.29016C3.74922 7.51016 3.67255 7.70016 3.51922 7.86016C3.37255 8.01349 3.18255 8.09016 2.94922 8.09016Z" fill="white"/>
</svg>
