<svg width="16" height="10" viewBox="0 0 16 10" fill="none" xmlns="http://www.w3.org/2000/svg">
<path d="M13.2767 5.68525C13.018 5.35859 13.092 5.21325 13.2767 4.92125C13.28 4.91792 15.4153 1.96725 15.6353 0.966585L15.6367 0.965919C15.746 0.601252 15.6367 0.333252 15.108 0.333252H13.3587C12.9133 0.333252 12.708 0.563252 12.598 0.820585C12.598 0.820585 11.7073 2.95259 10.4473 4.33459C10.0407 4.73392 9.85267 4.86192 9.63067 4.86192C9.52133 4.86192 9.35133 4.73392 9.35133 4.36925V0.965919C9.35133 0.528585 9.22667 0.333252 8.858 0.333252H6.10733C5.828 0.333252 5.662 0.537252 5.662 0.727252C5.662 1.14192 6.292 1.23725 6.35733 2.40392V4.93525C6.35733 5.48992 6.25667 5.59192 6.03333 5.59192C5.43867 5.59192 3.99533 3.45125 3.14 1.00125C2.96733 0.525919 2.79867 0.333919 2.35 0.333919H0.6C0.100667 0.333919 0 0.563919 0 0.821252C0 1.27592 0.594666 3.53659 2.76533 6.52325C4.212 8.56192 6.24933 9.66659 8.10267 9.66659C9.21667 9.66659 9.35267 9.42125 9.35267 8.99925C9.35267 7.05125 9.252 6.86725 9.81 6.86725C10.0687 6.86725 10.514 6.99525 11.554 7.97859C12.7427 9.14459 12.938 9.66659 13.6033 9.66659H15.3527C15.8513 9.66659 16.104 9.42125 15.9587 8.93725C15.626 7.91925 13.378 5.82525 13.2767 5.68525V5.68525Z" fill="white"/>
</svg>
