<svg width="20" height="20" viewBox="0 0 20 20" fill="none" xmlns="http://www.w3.org/2000/svg">
<path fill-rule="evenodd" clip-rule="evenodd" d="M20 10.1112V10.0007V9.89059C15.5719 9.75659 13.547 9.64613 11.932 8.06871C10.3551 6.45404 10.2441 4.4292 10.1105 0.000976562H9.99998H9.88948C9.75585 4.4292 9.64494 6.45404 8.06793 8.06871C6.45293 9.64613 4.42801 9.75659 0 9.89059V10.0007V10.1112C4.42801 10.2452 6.45293 10.3557 8.06793 11.9327C9.64494 13.5478 9.75585 15.5726 9.88948 20.0008H9.99998H10.1105C10.2441 15.5726 10.3551 13.5478 11.932 11.9327C13.547 10.3557 15.5719 10.2452 20 10.1112Z" fill="#414549"/>
</svg>
