<svg width="16" height="16" viewBox="0 0 16 16" fill="none" xmlns="http://www.w3.org/2000/svg">
<g clip-path="url(#clip0_656_1299)">
<path fill-rule="evenodd" clip-rule="evenodd" d="M7.99967 2.0835C4.73199 2.0835 2.08301 4.73248 2.08301 8.00016C2.08301 11.2678 4.73199 13.9168 7.99967 13.9168C11.2674 13.9168 13.9163 11.2678 13.9163 8.00016C13.9163 4.73248 11.2674 2.0835 7.99967 2.0835ZM0.583008 8.00016C0.583008 3.90405 3.90356 0.583496 7.99967 0.583496C12.0958 0.583496 15.4163 3.90405 15.4163 8.00016C15.4163 12.0963 12.0958 15.4168 7.99967 15.4168C3.90356 15.4168 0.583008 12.0963 0.583008 8.00016Z" fill="#D1D5D9"/>
<path fill-rule="evenodd" clip-rule="evenodd" d="M11.25 8.00018C11.25 7.58597 11.5858 7.25018 12 7.25018H14.6667C15.0809 7.25018 15.4167 7.58597 15.4167 8.00018C15.4167 8.4144 15.0809 8.75018 14.6667 8.75018H12C11.5858 8.75018 11.25 8.4144 11.25 8.00018Z" fill="#D1D5D9"/>
<path fill-rule="evenodd" clip-rule="evenodd" d="M0.583008 8.00018C0.583008 7.58597 0.918794 7.25018 1.33301 7.25018H3.99967C4.41389 7.25018 4.74967 7.58597 4.74967 8.00018C4.74967 8.4144 4.41389 8.75018 3.99967 8.75018H1.33301C0.918794 8.75018 0.583008 8.4144 0.583008 8.00018Z" fill="#D1D5D9"/>
<path fill-rule="evenodd" clip-rule="evenodd" d="M8 0.583496C8.41421 0.583496 8.75 0.919283 8.75 1.3335V4.00016C8.75 4.41438 8.41421 4.75016 8 4.75016C7.58579 4.75016 7.25 4.41438 7.25 4.00016V1.3335C7.25 0.919283 7.58579 0.583496 8 0.583496Z" fill="#D1D5D9"/>
<path fill-rule="evenodd" clip-rule="evenodd" d="M8 11.2502C8.41421 11.2502 8.75 11.586 8.75 12.0002V14.6669C8.75 15.0811 8.41421 15.4169 8 15.4169C7.58579 15.4169 7.25 15.0811 7.25 14.6669V12.0002C7.25 11.586 7.58579 11.2502 8 11.2502Z" fill="#D1D5D9"/>
</g>
<defs>
<clipPath id="clip0_656_1299">
<rect width="16" height="16" fill="white" transform="translate(0 0.000183105)"/>
</clipPath>
</defs>
</svg>
