<svg width="28" height="28" viewBox="0 0 28 28" fill="none" xmlns="http://www.w3.org/2000/svg">
<path fill-rule="evenodd" clip-rule="evenodd" d="M18.9033 1.09302C19.4012 0.854113 19.9985 1.06409 20.2374 1.56203L20.9044 2.95208C21.1433 3.45001 20.9333 4.04735 20.4354 4.28625C19.9374 4.52517 19.3401 4.31518 19.1012 3.81725L18.4343 2.4272C18.1953 1.92926 18.4053 1.33193 18.9033 1.09302ZM25.4487 4.02034C25.8393 3.62982 25.8393 2.99666 25.4487 2.60613C25.0582 2.2156 24.425 2.2156 24.0345 2.60612L22.8258 3.81485C22.4352 4.20537 22.4352 4.83854 22.8258 5.22907C23.2163 5.61959 23.8495 5.6196 24.24 5.22907L25.4487 4.02034ZM12.1046 6.78569C7.07357 6.78569 2.99512 10.8641 2.99512 15.8952C2.99512 20.9262 7.07357 25.0046 12.1046 25.0046C17.1356 25.0046 21.2141 20.9262 21.2141 15.8952C21.2141 13.3962 20.2078 11.1322 18.5783 9.48633C18.5671 9.47606 18.556 9.46549 18.5452 9.45462C18.5343 9.44374 18.5237 9.43268 18.5135 9.42145C16.8676 7.79197 14.6036 6.78569 12.1046 6.78569ZM23.2141 15.8952C23.2141 13.1874 22.2454 10.706 20.6356 8.7784L21.5733 7.84069C21.9638 7.45017 21.9638 6.817 21.5733 6.42648C21.1828 6.03595 20.5496 6.03595 20.1591 6.42648L19.2214 7.36418C17.2938 5.7544 14.8123 4.78569 12.1046 4.78569C5.969 4.78569 0.995117 9.75957 0.995117 15.8952C0.995117 22.0308 5.969 27.0046 12.1046 27.0046C18.2402 27.0046 23.2141 22.0308 23.2141 15.8952ZM25.2082 7.11272C24.7197 6.85494 24.1148 7.04192 23.857 7.53035C23.5992 8.01878 23.7862 8.62371 24.2747 8.88149L25.5383 9.54844C26.0268 9.80622 26.6317 9.61924 26.8895 9.13081C27.1473 8.64238 26.9603 8.03745 26.4719 7.77967L25.2082 7.11272Z" fill="#EF3900"/>
</svg>
