<svg width="16" height="16" viewBox="0 0 16 16" fill="none" xmlns="http://www.w3.org/2000/svg">
<path fill-rule="evenodd" clip-rule="evenodd" d="M3.33333 2.75C3.17862 2.75 3.03025 2.81146 2.92085 2.92085C2.81146 3.03025 2.75 3.17862 2.75 3.33333V12.6667C2.75 12.8214 2.81146 12.9697 2.92085 13.0791C3.03025 13.1885 3.17862 13.25 3.33333 13.25H6C6.41421 13.25 6.75 13.5858 6.75 14C6.75 14.4142 6.41421 14.75 6 14.75H3.33333C2.7808 14.75 2.25089 14.5305 1.86019 14.1398C1.46949 13.7491 1.25 13.2192 1.25 12.6667V3.33333C1.25 2.7808 1.46949 2.2509 1.86019 1.86019C2.2509 1.46949 2.7808 1.25 3.33333 1.25H6C6.41421 1.25 6.75 1.58579 6.75 2C6.75 2.41421 6.41421 2.75 6 2.75H3.33333Z" fill="white"/>
<path fill-rule="evenodd" clip-rule="evenodd" d="M10.1362 4.13642C10.4291 3.84352 10.9039 3.84352 11.1968 4.13642L14.5302 7.46975C14.8231 7.76264 14.8231 8.23752 14.5302 8.53041L11.1968 11.8637C10.9039 12.1566 10.4291 12.1566 10.1362 11.8637C9.84328 11.5709 9.84328 11.096 10.1362 10.8031L12.9392 8.00008L10.1362 5.19708C9.84328 4.90418 9.84328 4.42931 10.1362 4.13642Z" fill="white"/>
<path fill-rule="evenodd" clip-rule="evenodd" d="M5.25 8C5.25 7.58579 5.58579 7.25 6 7.25H14C14.4142 7.25 14.75 7.58579 14.75 8C14.75 8.41421 14.4142 8.75 14 8.75H6C5.58579 8.75 5.25 8.41421 5.25 8Z" fill="white"/>
</svg>
