<svg width="16" height="16" viewBox="0 0 16 16" fill="none" xmlns="http://www.w3.org/2000/svg">
<path fill-rule="evenodd" clip-rule="evenodd" d="M9.25 2C9.25 1.58579 9.58579 1.25 10 1.25H12.6667C13.2192 1.25 13.7491 1.46949 14.1398 1.86019C14.5305 2.25089 14.75 2.7808 14.75 3.33333V12.6667C14.75 13.2192 14.5305 13.7491 14.1398 14.1398C13.7491 14.5305 13.2192 14.75 12.6667 14.75H10C9.58579 14.75 9.25 14.4142 9.25 14C9.25 13.5858 9.58579 13.25 10 13.25H12.6667C12.8214 13.25 12.9697 13.1885 13.0791 13.0791C13.1885 12.9697 13.25 12.8214 13.25 12.6667V3.33333C13.25 3.17862 13.1885 3.03025 13.0791 2.92085C12.9697 2.81146 12.8214 2.75 12.6667 2.75H10C9.58579 2.75 9.25 2.41421 9.25 2Z" fill="white"/>
<path fill-rule="evenodd" clip-rule="evenodd" d="M6.13666 4.13634C6.42956 3.84344 6.90443 3.84344 7.19732 4.13634L10.5307 7.46967C10.6713 7.61032 10.7503 7.80109 10.7503 8C10.7503 8.19891 10.6713 8.38968 10.5307 8.53033L7.19732 11.8637C6.90443 12.1566 6.42956 12.1566 6.13666 11.8637C5.84377 11.5708 5.84377 11.0959 6.13666 10.803L8.93967 8L6.13666 5.197C5.84377 4.9041 5.84377 4.42923 6.13666 4.13634Z" fill="white"/>
<path fill-rule="evenodd" clip-rule="evenodd" d="M1.25 8C1.25 7.58579 1.58579 7.25 2 7.25H10C10.4142 7.25 10.75 7.58579 10.75 8C10.75 8.41421 10.4142 8.75 10 8.75H2C1.58579 8.75 1.25 8.41421 1.25 8Z" fill="white"/>
</svg>
