<svg width="16" height="16" viewBox="0 0 16 16" fill="none" xmlns="http://www.w3.org/2000/svg">
<path fill-rule="evenodd" clip-rule="evenodd" d="M2.91722 10.2507C3.55797 9.60997 4.42701 9.25 5.33317 9.25H10.6665C11.5727 9.25 12.4417 9.60997 13.0825 10.2507C13.7232 10.8915 14.0832 11.7605 14.0832 12.6667V14C14.0832 14.4142 13.7474 14.75 13.3332 14.75C12.919 14.75 12.5832 14.4142 12.5832 14V12.6667C12.5832 12.1583 12.3812 11.6708 12.0218 11.3114C11.6623 10.9519 11.1748 10.75 10.6665 10.75H5.33317C4.82484 10.75 4.33733 10.9519 3.97788 11.3114C3.61844 11.6708 3.4165 12.1583 3.4165 12.6667V14C3.4165 14.4142 3.08072 14.75 2.6665 14.75C2.25229 14.75 1.9165 14.4142 1.9165 14V12.6667C1.9165 11.7605 2.27647 10.8915 2.91722 10.2507Z" fill="white"/>
<path fill-rule="evenodd" clip-rule="evenodd" d="M8.00016 2.75C6.94162 2.75 6.0835 3.60812 6.0835 4.66667C6.0835 5.72521 6.94162 6.58333 8.00016 6.58333C9.05871 6.58333 9.91683 5.72521 9.91683 4.66667C9.91683 3.60812 9.05871 2.75 8.00016 2.75ZM4.5835 4.66667C4.5835 2.77969 6.11319 1.25 8.00016 1.25C9.88714 1.25 11.4168 2.77969 11.4168 4.66667C11.4168 6.55364 9.88714 8.08333 8.00016 8.08333C6.11319 8.08333 4.5835 6.55364 4.5835 4.66667Z" fill="white"/>
</svg>
