<svg width="16" height="16" viewBox="0 0 16 16" fill="none" xmlns="http://www.w3.org/2000/svg">
<path fill-rule="evenodd" clip-rule="evenodd" d="M10.5148 3.9635L13.1064 1.84175C11.7209 0.691437 9.94112 0 8.00003 0C4.90819 0 2.22602 1.75381 0.89457 4.3208C0.322695 5.42233 0 6.67333 0 7.99993C0 9.3718 0.345063 10.6628 0.953406 11.7911C2.30462 14.297 4.95337 15.9999 7.99996 15.9999C9.89577 15.9999 11.6373 15.3406 13.0083 14.2386C14.418 13.1054 15.4355 11.5041 15.825 9.67021C15.9397 9.13131 15.9999 8.57262 15.9999 7.99987C15.9999 7.48909 15.952 6.98931 15.8601 6.50537H8.17578V9.67021H12.4536C12.0685 10.6979 11.3375 11.5564 10.4022 12.1049C9.69756 12.5186 8.87643 12.7555 7.99996 12.7555C5.96086 12.7555 4.22153 11.472 3.54592 9.66899C3.35076 9.1499 3.24441 8.58718 3.24434 7.99993C3.24434 7.45884 3.3349 6.93884 3.50106 6.45444C4.14281 4.58673 5.91475 3.24437 8.00003 3.24437C8.92353 3.24437 9.78553 3.50769 10.5148 3.9635Z" fill="white"/>
</svg>
