<svg width="16" height="16" viewBox="0 0 16 16" fill="none" xmlns="http://www.w3.org/2000/svg">
<path fill-rule="evenodd" clip-rule="evenodd" d="M8.00065 2.08334C4.73297 2.08334 2.08398 4.73233 2.08398 8.00001C2.08398 11.2677 4.73297 13.9167 8.00065 13.9167C11.2683 13.9167 13.9173 11.2677 13.9173 8.00001C13.9173 4.73233 11.2683 2.08334 8.00065 2.08334ZM0.583984 8.00001C0.583984 3.9039 3.90454 0.583344 8.00065 0.583344C12.0968 0.583344 15.4173 3.9039 15.4173 8.00001C15.4173 12.0961 12.0968 15.4167 8.00065 15.4167C3.90454 15.4167 0.583984 12.0961 0.583984 8.00001Z" fill="white"/>
<path fill-rule="evenodd" clip-rule="evenodd" d="M8 7.25C8.41421 7.25 8.75 7.58579 8.75 8V10.6667C8.75 11.0809 8.41421 11.4167 8 11.4167C7.58579 11.4167 7.25 11.0809 7.25 10.6667V8C7.25 7.58579 7.58579 7.25 8 7.25Z" fill="white"/>
<path fill-rule="evenodd" clip-rule="evenodd" d="M7.25 5.33334C7.25 4.91913 7.58579 4.58334 8 4.58334H8.00667C8.42088 4.58334 8.75667 4.91913 8.75667 5.33334C8.75667 5.74756 8.42088 6.08334 8.00667 6.08334H8C7.58579 6.08334 7.25 5.74756 7.25 5.33334Z" fill="white"/>
</svg>
