<svg width="20" height="16" viewBox="0 0 20 16" fill="none" xmlns="http://www.w3.org/2000/svg">
<path fill-rule="evenodd" clip-rule="evenodd" d="M2.11971 6.41757C3.49798 3.60008 6.56983 1.75 10 1.75C13.4302 1.75 16.502 3.60008 17.8803 6.41757C18.1248 6.91749 18.25 7.45692 18.25 8C18.25 8.54308 18.1248 9.08251 17.8803 9.58243C16.502 12.3999 13.4302 14.25 10 14.25C6.56983 14.25 3.49798 12.3999 2.11971 9.58243C1.87516 9.08251 1.75 8.54308 1.75 8C1.75 7.45692 1.87516 6.91749 2.11971 6.41757ZM10 0.25C6.04817 0.25 2.42402 2.38192 0.77229 5.75843C0.428843 6.46051 0.25 7.22508 0.25 8C0.25 8.77493 0.428843 9.53949 0.77229 10.2416C2.42402 13.6181 6.04817 15.75 10 15.75C13.9518 15.75 17.576 13.6181 19.2277 10.2416C19.5712 9.53949 19.75 8.77492 19.75 8C19.75 7.22508 19.5712 6.46051 19.2277 5.75843C17.576 2.38192 13.9518 0.25 10 0.25ZM8.4076 6.41009C9.28785 5.53009 10.7126 5.5305 11.5915 6.4101L11.5917 6.41032C12.4694 7.28803 12.4702 8.71417 11.5917 9.59466C10.7139 10.4724 9.28771 10.4732 8.40723 9.59453C7.52957 8.71673 7.5289 7.29052 8.4076 6.41009ZM7.3467 5.34966C8.81211 3.88426 11.1863 3.88357 12.6515 5.34881L12.6526 5.34989C14.1165 6.81405 14.1158 9.18941 12.6528 10.6549L12.6524 10.6553C11.1882 12.1195 8.81269 12.1188 7.34715 10.6558L7.3467 10.6553C5.88256 9.19118 5.88321 6.81566 7.34625 5.35012L7.3467 5.34966Z" fill="url(#paint0_linear_3016_25758)"/>
<defs>
<linearGradient id="paint0_linear_3016_25758" x1="0.25" y1="15.7501" x2="19.75" y2="15.7501" gradientUnits="userSpaceOnUse">
<stop stop-color="#22BB00"/>
<stop offset="1" stop-color="#66BB00"/>
</linearGradient>
</defs>
</svg>
