<svg width="16" height="16" viewBox="0 0 16 16" fill="none" xmlns="http://www.w3.org/2000/svg">
<path fill-rule="evenodd" clip-rule="evenodd" d="M7.33333 6.75C7.01117 6.75 6.75 7.01117 6.75 7.33333V13.3333C6.75 13.6555 7.01117 13.9167 7.33333 13.9167H13.3333C13.6555 13.9167 13.9167 13.6555 13.9167 13.3333V7.33333C13.9167 7.01117 13.6555 6.75 13.3333 6.75H7.33333ZM5.25 7.33333C5.25 6.18274 6.18274 5.25 7.33333 5.25H13.3333C14.4839 5.25 15.4167 6.18274 15.4167 7.33333V13.3333C15.4167 14.4839 14.4839 15.4167 13.3333 15.4167H7.33333C6.18274 15.4167 5.25 14.4839 5.25 13.3333V7.33333Z" fill="#414549"/>
<path fill-rule="evenodd" clip-rule="evenodd" d="M2.66732 2.08301C2.51261 2.08301 2.36423 2.14447 2.25484 2.25386C2.14544 2.36326 2.08398 2.51163 2.08398 2.66634V8.66634C2.08398 8.82105 2.14544 8.96942 2.25484 9.07882C2.36424 9.18822 2.51261 9.24967 2.66732 9.24967H3.33398C3.7482 9.24967 4.08398 9.58546 4.08398 9.99967C4.08398 10.4139 3.7482 10.7497 3.33398 10.7497H2.66732C2.11478 10.7497 1.58488 10.5302 1.19418 10.1395C0.803478 9.74878 0.583984 9.21888 0.583984 8.66634V2.66634C0.583984 2.11381 0.803478 1.5839 1.19418 1.1932C1.58488 0.802501 2.11478 0.583008 2.66732 0.583008H8.66732C9.21985 0.583008 9.74976 0.802501 10.1405 1.1932C10.5312 1.5839 10.7507 2.11381 10.7507 2.66634V3.33301C10.7507 3.74722 10.4149 4.08301 10.0007 4.08301C9.58644 4.08301 9.25065 3.74722 9.25065 3.33301V2.66634C9.25065 2.51163 9.18919 2.36326 9.0798 2.25386C8.9704 2.14447 8.82203 2.08301 8.66732 2.08301H2.66732Z" fill="#414549"/>
</svg>
