<svg width="16" height="16" viewBox="0 0 16 16" fill="none" xmlns="http://www.w3.org/2000/svg">
<g clip-path="url(#clip0_1993_18627)">
<path fill-rule="evenodd" clip-rule="evenodd" d="M15.333 1.91669C15.7472 1.91669 16.083 2.25247 16.083 2.66669V6.66669C16.083 7.0809 15.7472 7.41669 15.333 7.41669H11.333C10.9188 7.41669 10.583 7.0809 10.583 6.66669C10.583 6.25247 10.9188 5.91669 11.333 5.91669H14.583V2.66669C14.583 2.25247 14.9188 1.91669 15.333 1.91669Z" fill="#414549"/>
<path fill-rule="evenodd" clip-rule="evenodd" d="M-0.0830078 9.33331C-0.0830078 8.9191 0.252779 8.58331 0.666992 8.58331H4.66699C5.08121 8.58331 5.41699 8.9191 5.41699 9.33331C5.41699 9.74753 5.08121 10.0833 4.66699 10.0833H1.41699V13.3333C1.41699 13.7475 1.08121 14.0833 0.666992 14.0833C0.252779 14.0833 -0.0830078 13.7475 -0.0830078 13.3333V9.33331Z" fill="#414549"/>
<path fill-rule="evenodd" clip-rule="evenodd" d="M9.45539 2.95826C8.60347 2.71184 7.70301 2.68525 6.83803 2.88096C5.97305 3.07668 5.17175 3.48832 4.50889 4.07747C3.84603 4.66663 3.34321 5.4141 3.04736 6.25015C2.90918 6.64063 2.48062 6.84517 2.09013 6.70699C1.69964 6.56881 1.49511 6.14024 1.63329 5.74975C2.01367 4.67484 2.66014 3.7138 3.51239 2.95632C4.36464 2.19883 5.39489 1.66958 6.50701 1.41795C7.61912 1.16631 8.77686 1.20051 9.87218 1.51733C10.9636 1.83303 11.9577 2.41912 12.7622 3.22119L15.8472 6.12005C16.1491 6.40369 16.1639 6.87834 15.8802 7.1802C15.5966 7.48206 15.1219 7.49682 14.8201 7.21318L11.7267 4.30651C11.721 4.30115 11.7154 4.29569 11.7099 4.29015C11.0829 3.6629 10.3073 3.20468 9.45539 2.95826ZM0.12043 8.8197C0.404074 8.51784 0.878718 8.50307 1.18058 8.78672L4.27391 11.6934C4.27962 11.6988 4.28525 11.7042 4.29079 11.7098C4.91773 12.337 5.69334 12.7952 6.54526 13.0416C7.39718 13.2881 8.29764 13.3146 9.16262 13.1189C10.0276 12.9232 10.8289 12.5116 11.4918 11.9224C12.1546 11.3333 12.6574 10.5858 12.9533 9.74975C13.0915 9.35927 13.52 9.15473 13.9105 9.29291C14.301 9.43109 14.5055 9.85966 14.3674 10.2501C13.987 11.3251 13.3405 12.2861 12.4883 13.0436C11.636 13.8011 10.6058 14.3303 9.49365 14.582C8.38153 14.8336 7.2238 14.7994 6.12847 14.4826C5.03702 14.1669 4.04299 13.5808 3.23843 12.7787L0.153412 9.87985C-0.148447 9.5962 -0.163214 9.12156 0.12043 8.8197Z" fill="#414549"/>
</g>
<defs>
<clipPath id="clip0_1993_18627">
<rect width="16" height="16" fill="white"/>
</clipPath>
</defs>
</svg>
