<svg width="16" height="16" viewBox="0 0 16 16" fill="none" xmlns="http://www.w3.org/2000/svg">
<path fill-rule="evenodd" clip-rule="evenodd" d="M5.99967 1.25003C6.3225 1.25003 6.6091 1.4566 6.71119 1.76286L9.99967 11.6283L11.2882 7.76286C11.3902 7.4566 11.6769 7.25003 11.9997 7.25003H14.6663C15.0806 7.25003 15.4163 7.58582 15.4163 8.00003C15.4163 8.41424 15.0806 8.75003 14.6663 8.75003H12.5402L10.7112 14.2372C10.6091 14.5435 10.3225 14.75 9.99967 14.75C9.67685 14.75 9.39025 14.5435 9.28816 14.2372L5.99967 4.37174L4.71119 8.2372C4.6091 8.54346 4.3225 8.75003 3.99967 8.75003H1.33301C0.918794 8.75003 0.583008 8.41424 0.583008 8.00003C0.583008 7.58582 0.918794 7.25003 1.33301 7.25003H3.45911L5.28816 1.76286C5.39025 1.4566 5.67685 1.25003 5.99967 1.25003Z" fill="white"/>
</svg>
