<svg width="16" height="16" viewBox="0 0 16 16" fill="none" xmlns="http://www.w3.org/2000/svg">
<path fill-rule="evenodd" clip-rule="evenodd" d="M8.00065 2.08331C4.73297 2.08331 2.08398 4.73229 2.08398 7.99998C2.08398 11.2677 4.73297 13.9166 8.00065 13.9166C11.2683 13.9166 13.9173 11.2677 13.9173 7.99998C13.9173 4.73229 11.2683 2.08331 8.00065 2.08331ZM0.583984 7.99998C0.583984 3.90387 3.90454 0.583313 8.00065 0.583313C12.0968 0.583313 15.4173 3.90387 15.4173 7.99998C15.4173 12.0961 12.0968 15.4166 8.00065 15.4166C3.90454 15.4166 0.583984 12.0961 0.583984 7.99998Z" fill="#FF9900"/>
<path fill-rule="evenodd" clip-rule="evenodd" d="M8 4.58331C8.41421 4.58331 8.75 4.9191 8.75 5.33331V7.99998C8.75 8.41419 8.41421 8.74998 8 8.74998C7.58579 8.74998 7.25 8.41419 7.25 7.99998V5.33331C7.25 4.9191 7.58579 4.58331 8 4.58331Z" fill="#FF9900"/>
<path fill-rule="evenodd" clip-rule="evenodd" d="M7.25 10.6667C7.25 10.2525 7.58579 9.91669 8 9.91669H8.00667C8.42088 9.91669 8.75667 10.2525 8.75667 10.6667C8.75667 11.0809 8.42088 11.4167 8.00667 11.4167H8C7.58579 11.4167 7.25 11.0809 7.25 10.6667Z" fill="#FF9900"/>
</svg>
