<svg width="16" height="16" viewBox="0 0 16 16" fill="none" xmlns="http://www.w3.org/2000/svg">
<path fill-rule="evenodd" clip-rule="evenodd" d="M10.4087 2.59169C9.24331 2.0724 7.94124 1.94376 6.69673 2.22494C5.45222 2.50612 4.33194 3.18207 3.50297 4.15196C2.674 5.12185 2.18076 6.33372 2.09681 7.60684C2.01286 8.87996 2.3427 10.1461 3.03714 11.2165C3.73157 12.2868 4.7534 13.104 5.95021 13.5462C7.14703 13.9883 8.45472 14.0318 9.67824 13.67C10.9018 13.3082 11.9756 12.5607 12.7395 11.5388C13.5034 10.517 13.9165 9.27568 13.9173 7.99995C13.9173 7.99981 13.9173 8.00009 13.9173 7.99995M13.9173 7.99995V7.38662C13.9173 6.9724 14.2531 6.63662 14.6673 6.63662C15.0815 6.63662 15.4173 6.9724 15.4173 7.38662V7.99995C15.4164 9.5993 14.8985 11.1559 13.9409 12.4369C12.9833 13.7179 11.6373 14.655 10.1035 15.1084C8.56983 15.5619 6.93062 15.5075 5.43038 14.9532C3.93015 14.3989 2.64927 13.3746 1.77878 12.0329C0.90829 10.6912 0.49483 9.10403 0.600061 7.50815C0.705293 5.91227 1.32358 4.39315 2.36271 3.17738C3.40184 1.9616 4.80613 1.11429 6.36616 0.761821C7.92618 0.409354 9.55835 0.570613 11.0192 1.22155C11.3976 1.39013 11.5676 1.83351 11.3991 2.21187C11.2305 2.59022 10.7871 2.76027 10.4087 2.59169" fill="#44BB00"/>
<path fill-rule="evenodd" clip-rule="evenodd" d="M15.1967 2.13609C15.4898 2.42884 15.49 2.90371 15.1973 3.19675L8.5306 9.87009C8.38997 10.0109 8.19916 10.09 8.00019 10.09C7.80121 10.0901 7.61037 10.011 7.46967 9.87035L5.46967 7.87035C5.17678 7.57746 5.17678 7.10258 5.46967 6.80969C5.76256 6.5168 6.23744 6.5168 6.53033 6.80969L7.99973 8.27909L14.1361 2.13662C14.4288 1.84358 14.9037 1.84335 15.1967 2.13609Z" fill="#44BB00"/>
</svg>
