<svg width="12" height="12" viewBox="0 0 12 12" fill="none" xmlns="http://www.w3.org/2000/svg">
<path d="M10.852 10.0636C11.0629 9.71027 11.1742 9.30646 11.1742 8.89499C11.1745 8.41216 11.0214 7.94169 10.737 7.5515C10.4525 7.16131 10.0515 6.87156 9.59165 6.72407C9.58953 6.72237 9.58708 6.72115 9.58446 6.72046C9.26302 6.61858 8.923 6.58918 8.58883 6.63436C8.25468 6.67954 7.93468 6.7982 7.65185 6.98178C7.5013 7.09243 7.35793 7.21254 7.22265 7.34141C6.93372 7.58595 6.54048 7.68545 6.13646 7.70463C6.0861 7.70703 6.03455 7.70823 5.9842 7.70823C5.5562 7.70823 5.121 7.6411 4.81528 7.38576C4.8132 7.38409 4.81111 7.38228 4.80897 7.38042C4.80497 7.37694 4.80079 7.3733 4.7961 7.37018C4.74215 7.31144 4.6882 7.2527 4.63785 7.19157C4.47347 6.97838 4.37064 6.72423 4.34052 6.45673C4.31965 6.31063 4.30963 6.16318 4.31055 6.01559C4.31055 5.55407 4.40646 5.09495 4.68341 4.7665C4.80508 4.63735 4.91917 4.50127 5.02509 4.35892C5.26806 3.99014 5.39845 3.55862 5.40034 3.11702V3.10623C5.40041 2.50575 5.16368 1.92945 4.74149 1.50238C4.31932 1.07532 3.74574 0.831923 3.14523 0.825012H3.12006C2.70947 0.824954 2.30649 0.935701 1.95361 1.14557C1.60074 1.35543 1.31105 1.65664 1.11511 2.01741C0.919178 2.37818 0.824259 2.78514 0.840367 3.19536C0.856475 3.60557 0.983012 4.00384 1.20663 4.34813C1.31765 4.49836 1.43818 4.6413 1.5675 4.7761C1.84085 5.10096 1.93316 5.55767 1.93316 6.01559C1.93483 6.19043 1.91998 6.36502 1.8888 6.53705C1.88753 6.54498 1.88673 6.55299 1.8864 6.56102C1.84846 6.77422 1.76235 6.97593 1.63464 7.15081C1.27723 7.45222 1.02108 7.85615 0.900882 8.30795C0.780684 8.75973 0.802241 9.23754 0.962634 9.67667C1.12303 10.1158 1.4145 10.495 1.7976 10.763C2.18071 11.0311 2.63692 11.1749 3.10447 11.175H3.12006C3.53943 11.1757 3.95075 11.06 4.30816 10.8406C4.30816 10.8406 4.30935 10.8406 4.31175 10.8382C4.31558 10.8366 4.3192 10.8346 4.32254 10.8322V10.831C4.32574 10.828 4.32939 10.8256 4.33333 10.8238C4.52448 10.7038 4.69663 10.5559 4.84406 10.385C5.15097 10.1513 5.56938 10.0853 5.9842 10.0853C6.44457 10.0853 6.90494 10.1812 7.23344 10.4582C7.36239 10.5801 7.4985 10.6941 7.64106 10.7998C7.98485 11.0259 8.38345 11.1548 8.79458 11.1728C9.20571 11.1908 9.61402 11.0971 9.97624 10.9019C10.3385 10.7066 10.6411 10.4169 10.852 10.0636Z" fill="white"/>
<path d="M10.7982 4.36056C11.0435 3.98808 11.1742 3.55186 11.1742 3.10588C11.1745 2.75776 11.0949 2.41421 10.9416 2.10169C10.9396 2.09958 10.938 2.09715 10.9368 2.0945C10.7344 1.68472 10.4131 1.3455 10.0149 1.12111C10.0149 1.12111 10.0112 1.11871 10.0029 1.11272C9.65559 0.919544 9.26387 0.820426 8.8665 0.825175C8.46914 0.829924 8.0799 0.938375 7.73734 1.13979C7.3948 1.34121 7.11079 1.6286 6.91348 1.97351C6.71617 2.31842 6.61239 2.70889 6.61241 3.10624C6.61221 3.11784 6.61261 3.12945 6.6136 3.141V3.14544C6.6181 3.44764 6.68287 3.74592 6.80413 4.02277C6.92538 4.29963 7.10067 4.54951 7.31975 4.75776L7.32335 4.76135C7.64703 5.06821 8.05357 5.27345 8.49269 5.3517C8.93181 5.42994 9.38423 5.37776 9.794 5.20161C10.2038 5.02545 10.5529 4.73304 10.7982 4.36056Z" fill="white"/>
</svg>
