<svg width="12" height="12" viewBox="0 0 12 12" fill="none" xmlns="http://www.w3.org/2000/svg">
<path d="M6 0.5C6.72935 0.5 7.42882 0.789731 7.94454 1.30546C8.46027 1.82118 8.75 2.52065 8.75 3.25C8.75 3.97935 8.46027 4.67882 7.94454 5.19454C7.42882 5.71027 6.72935 6 6 6C5.27065 6 4.57118 5.71027 4.05546 5.19454C3.53973 4.67882 3.25 3.97935 3.25 3.25C3.25 2.52065 3.53973 1.82118 4.05546 1.30546C4.57118 0.789731 5.27065 0.5 6 0.5ZM6 7.375C9.03875 7.375 11.5 8.60563 11.5 10.125C11.5 10.8844 10.8844 11.5 10.125 11.5H1.875C1.11561 11.5 0.5 10.8844 0.5 10.125C0.5 8.60563 2.96125 7.375 6 7.375Z" fill="white"/>
</svg>
