<svg width="18" height="16" viewBox="0 0 18 16" fill="none" xmlns="http://www.w3.org/2000/svg">
<path d="M14.8327 3.83336H13.9993V3.00003C13.9993 2.33699 13.736 1.7011 13.2671 1.23226C12.7983 0.763423 12.1624 0.500031 11.4993 0.500031H3.16602C2.50297 0.500031 1.86709 0.763423 1.39825 1.23226C0.929408 1.7011 0.666016 2.33699 0.666016 3.00003V13C0.666016 13.6631 0.929408 14.299 1.39825 14.7678C1.86709 15.2366 2.50297 15.5 3.16602 15.5H14.8327C15.4957 15.5 16.1316 15.2366 16.6005 14.7678C17.0693 14.299 17.3327 13.6631 17.3327 13V6.33336C17.3327 5.67032 17.0693 5.03444 16.6005 4.5656C16.1316 4.09676 15.4957 3.83336 14.8327 3.83336ZM3.16602 2.1667H11.4993C11.7204 2.1667 11.9323 2.25449 12.0886 2.41077C12.2449 2.56706 12.3327 2.77902 12.3327 3.00003V3.83336H3.16602C2.945 3.83336 2.73304 3.74557 2.57676 3.58929C2.42048 3.43301 2.33268 3.22104 2.33268 3.00003C2.33268 2.77902 2.42048 2.56706 2.57676 2.41077C2.73304 2.25449 2.945 2.1667 3.16602 2.1667ZM15.666 10.5H14.8327C14.6117 10.5 14.3997 10.4122 14.2434 10.256C14.0871 10.0997 13.9993 9.88771 13.9993 9.6667C13.9993 9.44568 14.0871 9.23372 14.2434 9.07744C14.3997 8.92116 14.6117 8.83336 14.8327 8.83336H15.666V10.5ZM15.666 7.1667H14.8327C14.1696 7.1667 13.5338 7.43009 13.0649 7.89893C12.5961 8.36777 12.3327 9.00366 12.3327 9.6667C12.3327 10.3297 12.5961 10.9656 13.0649 11.4345C13.5338 11.9033 14.1696 12.1667 14.8327 12.1667H15.666V13C15.666 13.221 15.5782 13.433 15.4219 13.5893C15.2657 13.7456 15.0537 13.8334 14.8327 13.8334H3.16602C2.945 13.8334 2.73304 13.7456 2.57676 13.5893C2.42048 13.433 2.33268 13.221 2.33268 13V5.35836C2.60041 5.45254 2.88221 5.50045 3.16602 5.50003H14.8327C15.0537 5.50003 15.2657 5.58783 15.4219 5.74411C15.5782 5.90039 15.666 6.11235 15.666 6.33336V7.1667Z" fill="#D1D5D9"/>
</svg>
