<svg width="16" height="16" viewBox="0 0 16 16" fill="none" xmlns="http://www.w3.org/2000/svg">
<path fill-rule="evenodd" clip-rule="evenodd" d="M1.91602 7.33337C1.91602 6.91916 2.2518 6.58337 2.66602 6.58337C4.45623 6.58337 6.17312 7.29453 7.43899 8.5604C8.70486 9.82627 9.41602 11.5432 9.41602 13.3334C9.41602 13.7476 9.08023 14.0834 8.66602 14.0834C8.2518 14.0834 7.91602 13.7476 7.91602 13.3334C7.91602 11.941 7.36289 10.6056 6.37833 9.62106C5.39376 8.6365 4.0584 8.08337 2.66602 8.08337C2.2518 8.08337 1.91602 7.74759 1.91602 7.33337Z" fill="white"/>
<path fill-rule="evenodd" clip-rule="evenodd" d="M1.91602 2.66675C1.91602 2.25253 2.2518 1.91675 2.66602 1.91675C5.6939 1.91675 8.59778 3.11957 10.7388 5.26061C12.8799 7.40165 14.0827 10.3055 14.0827 13.3334C14.0827 13.7476 13.7469 14.0834 13.3327 14.0834C12.9185 14.0834 12.5827 13.7476 12.5827 13.3334C12.5827 10.7034 11.5379 8.18101 9.67816 6.32127C7.81842 4.46154 5.29608 3.41675 2.66602 3.41675C2.2518 3.41675 1.91602 3.08096 1.91602 2.66675Z" fill="white"/>
<path fill-rule="evenodd" clip-rule="evenodd" d="M3.33268 12.7501C3.37871 12.7501 3.41602 12.7128 3.41602 12.6667C3.41602 12.6207 3.37871 12.5834 3.33268 12.5834C3.28666 12.5834 3.24935 12.6207 3.24935 12.6667C3.24935 12.7128 3.28666 12.7501 3.33268 12.7501ZM1.91602 12.6667C1.91602 11.8843 2.55028 11.2501 3.33268 11.2501C4.11509 11.2501 4.74935 11.8843 4.74935 12.6667C4.74935 13.4491 4.11509 14.0834 3.33268 14.0834C2.55028 14.0834 1.91602 13.4491 1.91602 12.6667Z" fill="white"/>
</svg>
