<svg width="16" height="16" viewBox="0 0 16 16" fill="none" xmlns="http://www.w3.org/2000/svg">
<g clip-path="url(#clip0_760_914)">
<path fill-rule="evenodd" clip-rule="evenodd" d="M0.916734 10.2508C1.55748 9.61003 2.42653 9.25006 3.33268 9.25006H8.66602C9.57217 9.25006 10.4412 9.61003 11.082 10.2508C11.7227 10.8915 12.0827 11.7606 12.0827 12.6667V14.0001C12.0827 14.4143 11.7469 14.7501 11.3327 14.7501C10.9185 14.7501 10.5827 14.4143 10.5827 14.0001V12.6667C10.5827 12.1584 10.3807 11.6709 10.0213 11.3114C9.66186 10.952 9.17435 10.7501 8.66602 10.7501H3.33268C2.82435 10.7501 2.33684 10.952 1.97739 11.3114C1.61795 11.6709 1.41602 12.1584 1.41602 12.6667V14.0001C1.41602 14.4143 1.08023 14.7501 0.666016 14.7501C0.251802 14.7501 -0.0839844 14.4143 -0.0839844 14.0001V12.6667C-0.0839844 11.7606 0.275985 10.8915 0.916734 10.2508Z" fill="white"/>
<path fill-rule="evenodd" clip-rule="evenodd" d="M6.00065 2.75006C4.94211 2.75006 4.08398 3.60818 4.08398 4.66673C4.08398 5.72527 4.94211 6.58339 6.00065 6.58339C7.0592 6.58339 7.91732 5.72527 7.91732 4.66673C7.91732 3.60818 7.0592 2.75006 6.00065 2.75006ZM2.58398 4.66673C2.58398 2.77975 4.11368 1.25006 6.00065 1.25006C7.88762 1.25006 9.41732 2.77975 9.41732 4.66673C9.41732 6.5537 7.88762 8.08339 6.00065 8.08339C4.11368 8.08339 2.58398 6.5537 2.58398 4.66673Z" fill="white"/>
<path fill-rule="evenodd" clip-rule="evenodd" d="M12.608 9.89929C12.7115 9.49823 13.1206 9.25705 13.5217 9.36061C14.2547 9.54986 14.904 9.97719 15.3678 10.5755C15.8316 11.1738 16.0836 11.9092 16.0842 12.6662L16.0842 14.0001C16.0842 14.4143 15.7484 14.7501 15.3342 14.7501C14.92 14.7501 14.5842 14.4143 14.5842 14.0001V12.6671C14.5838 12.2425 14.4424 11.8301 14.1823 11.4945C13.9221 11.1589 13.5579 10.9191 13.1467 10.813C12.7456 10.7094 12.5044 10.3004 12.608 9.89929Z" fill="white"/>
<path fill-rule="evenodd" clip-rule="evenodd" d="M9.93963 1.90076C10.0424 1.49949 10.451 1.25749 10.8522 1.36023C11.5872 1.5484 12.2386 1.97583 12.7038 2.57512C13.1689 3.17441 13.4214 3.91148 13.4214 4.67012C13.4214 5.42877 13.1689 6.16584 12.7038 6.76513C12.2386 7.36442 11.5872 7.79184 10.8522 7.98002C10.451 8.08276 10.0424 7.84076 9.93963 7.43949C9.83689 7.03822 10.0789 6.62964 10.4802 6.52689C10.8924 6.42133 11.2579 6.18156 11.5188 5.84537C11.7798 5.50918 11.9214 5.0957 11.9214 4.67012C11.9214 4.24454 11.7798 3.83106 11.5188 3.49488C11.2579 3.15869 10.8924 2.91891 10.4802 2.81335C10.0789 2.71061 9.83689 2.30203 9.93963 1.90076Z" fill="white"/>
</g>
<defs>
<clipPath id="clip0_760_914">
<rect width="16" height="16" fill="white"/>
</clipPath>
</defs>
</svg>
