<svg width="17" height="16" viewBox="0 0 17 16" fill="none" xmlns="http://www.w3.org/2000/svg">
<path fill-rule="evenodd" clip-rule="evenodd" d="M13.0187 3.75541C12.4642 3.19734 11.8046 2.75482 11.0779 2.45351C10.3512 2.1522 9.572 1.99808 8.78533 2.00008C5.48667 2.00008 2.80133 4.68475 2.8 7.98475C2.8 9.03941 3.07533 10.0687 3.59867 10.9767L2.75 14.0774L5.92267 13.2447C6.80026 13.7225 7.78347 13.973 8.78267 13.9734H8.78533C12.0833 13.9734 14.7687 11.2887 14.77 7.98875C14.7723 7.2024 14.6187 6.42341 14.3181 5.69679C14.0174 4.97017 13.5758 4.31033 13.0187 3.75541ZM8.78533 12.9634H8.78333C7.89234 12.9635 7.01776 12.7238 6.25133 12.2694L6.07 12.1614L4.18733 12.6554L4.68933 10.8201L4.57133 10.6321C4.07319 9.83903 3.80949 8.92127 3.81067 7.98475C3.812 5.24208 6.04333 3.01075 8.78733 3.01075C9.44083 3.00929 10.0881 3.13747 10.6918 3.38785C11.2954 3.63823 11.8434 4.00584 12.304 4.46941C12.7671 4.93077 13.1341 5.47934 13.3839 6.08341C13.6337 6.68748 13.7613 7.33507 13.7593 7.98875C13.758 10.7314 11.5267 12.9634 8.78533 12.9634ZM11.514 9.23741C11.364 9.16208 10.6293 8.80075 10.492 8.75075C10.3553 8.70075 10.256 8.67608 10.156 8.82541C10.056 8.97475 9.76933 9.31141 9.682 9.41141C9.59467 9.51141 9.50733 9.52341 9.358 9.44875C9.20867 9.37408 8.72667 9.21608 8.15533 8.70675C7.71067 8.31008 7.41067 7.82075 7.32333 7.67075C7.236 7.52075 7.314 7.44008 7.38933 7.36541C7.45667 7.29875 7.53867 7.19075 7.61333 7.10341C7.688 7.01608 7.71267 6.95408 7.76267 6.85408C7.81267 6.75408 7.788 6.66675 7.75 6.59208C7.71267 6.51675 7.41333 5.78075 7.28867 5.48141C7.168 5.19141 7.04467 5.23008 6.95267 5.22608C6.85738 5.22218 6.76203 5.2204 6.66667 5.22075C6.59084 5.22268 6.51622 5.24026 6.44751 5.27238C6.37879 5.3045 6.31745 5.35047 6.26733 5.40741C6.13 5.55741 5.744 5.91875 5.744 6.65475C5.744 7.39075 6.28 8.10208 6.35467 8.20208C6.42933 8.30208 7.40933 9.81208 8.90933 10.4601C9.26667 10.6141 9.54533 10.7061 9.762 10.7754C10.12 10.8894 10.446 10.8727 10.704 10.8347C10.9913 10.7921 11.5887 10.4734 11.7133 10.1241C11.838 9.77475 11.838 9.47541 11.8007 9.41275C11.7633 9.35008 11.6627 9.31208 11.514 9.23741Z" fill="#A1A3A5"/>
</svg>
