<svg width="24" height="24" viewBox="0 0 24 24" fill="none" xmlns="http://www.w3.org/2000/svg">
<g opacity="0.72">
<path d="M23.25 12C23.25 13.0384 22.9421 14.0534 22.3652 14.9168C21.7883 15.7801 20.9684 16.453 20.0091 16.8504C19.0498 17.2477 17.9942 17.3517 16.9758 17.1491C15.9574 16.9466 15.0219 16.4465 14.2877 15.7123C14.277 15.7016 14.2666 15.6905 14.2566 15.6792L8.63625 9.33301C8.11008 8.81292 7.44183 8.46008 6.7156 8.31891C5.98937 8.17774 5.23761 8.25454 4.55492 8.53964C3.87224 8.82474 3.28914 9.30541 2.879 9.92114C2.46887 10.5369 2.25003 11.2602 2.25003 12C2.25003 12.7398 2.46887 13.4631 2.879 14.0789C3.28914 14.6946 3.87224 15.1753 4.55492 15.4604C5.23761 15.7455 5.98937 15.8223 6.7156 15.6811C7.44183 15.5399 8.11008 15.1871 8.63625 14.667L9.4349 13.7651C9.50016 13.6912 9.57935 13.6309 9.66793 13.5877C9.75652 13.5444 9.85277 13.519 9.95117 13.513C10.0496 13.5069 10.1482 13.5204 10.2414 13.5525C10.3346 13.5846 10.4206 13.6348 10.4944 13.7002C10.5682 13.7655 10.6284 13.8448 10.6715 13.9335C10.7146 14.0221 10.7399 14.1184 10.7457 14.2168C10.7516 14.3152 10.7381 14.4138 10.7058 14.507C10.6735 14.6001 10.6232 14.686 10.5577 14.7597L9.74343 15.6792C9.73343 15.6905 9.72306 15.7016 9.71231 15.7123C8.97808 16.4465 8.04262 16.9466 7.02422 17.1491C6.00582 17.3517 4.95022 17.2477 3.99091 16.8504C3.0316 16.453 2.21166 15.7801 1.63478 14.9167C1.05791 14.0534 0.75 13.0384 0.75 12C0.75 10.9617 1.05791 9.94662 1.63478 9.08326C2.21166 8.2199 3.0316 7.547 3.99091 7.14964C4.95022 6.75228 6.00582 6.64831 7.02422 6.85088C8.04262 7.05345 8.97808 7.55347 9.71231 8.28769C9.723 8.29844 9.73337 8.30947 9.74343 8.32079L15.3637 14.667C15.8899 15.1871 16.5582 15.5399 17.2844 15.6811C18.0106 15.8223 18.7624 15.7455 19.4451 15.4604C20.1278 15.1753 20.7109 14.6946 21.121 14.0789C21.5311 13.4631 21.75 12.7398 21.75 12C21.75 11.2602 21.5311 10.5369 21.121 9.92114C20.7109 9.30541 20.1278 8.82474 19.4451 8.53964C18.7624 8.25454 18.0106 8.17774 17.2844 8.31891C16.5582 8.46008 15.8899 8.81292 15.3637 9.33301L14.5651 10.2349C14.4331 10.3834 14.2476 10.4735 14.0492 10.4854C13.8508 10.4973 13.6559 10.4299 13.5071 10.2982C13.3584 10.1664 13.268 9.98099 13.2558 9.78264C13.2437 9.5843 13.3107 9.38924 13.4422 9.24029L14.2566 8.32079C14.2666 8.30947 14.2769 8.29844 14.2877 8.28769C15.0219 7.55347 15.9574 7.05345 16.9758 6.85088C17.9942 6.64831 19.0498 6.75227 20.0091 7.14964C20.9684 7.547 21.7883 8.2199 22.3652 9.08326C22.9421 9.94662 23.25 10.9617 23.25 12Z" fill="black"/>
<path fill-rule="evenodd" clip-rule="evenodd" d="M19.8576 7.51916C18.9714 7.15208 17.9962 7.05603 17.0554 7.24317C16.1146 7.43031 15.2504 7.89223 14.5721 8.57051C14.5671 8.57549 14.5624 8.58055 14.5578 8.58569L13.7436 9.50503C13.6823 9.57454 13.651 9.66557 13.6566 9.75813C13.6623 9.85069 13.7045 9.93722 13.7739 9.9987C13.8433 10.0602 13.9343 10.0916 14.0269 10.0861C14.1194 10.0806 14.2059 10.0386 14.2675 9.96934C14.2675 9.96929 14.2674 9.9694 14.2675 9.96934L15.0747 9.05784L15.0841 9.0485C15.6664 8.47294 16.4059 8.08247 17.2096 7.92624C18.0133 7.77001 18.8453 7.85499 19.6008 8.17051C20.3563 8.48602 21.0016 9.01796 21.4555 9.69938C21.9093 10.3808 22.1515 11.1812 22.1515 12C22.1515 12.8187 21.9093 13.6192 21.4555 14.3006C21.0016 14.982 20.3563 15.5139 19.6008 15.8295C18.8453 16.145 18.0133 16.23 17.2096 16.0737C16.4059 15.9175 15.6664 15.527 15.0841 14.9515L15.0747 14.9421L9.44612 8.58661C9.44606 8.58654 9.44619 8.58668 9.44612 8.58661C9.44105 8.58091 9.43561 8.57513 9.43021 8.56969L9.71387 8.28767L9.43103 8.57051C8.75274 7.89223 7.88856 7.43031 6.94775 7.24317C6.00694 7.05603 5.03177 7.15208 4.14555 7.51917C3.25933 7.88625 2.50186 8.50789 1.96893 9.30547C1.43601 10.103 1.15156 11.0407 1.15156 12C1.15156 12.9592 1.43601 13.8969 1.96893 14.6945C2.50186 15.4921 3.25933 16.1137 4.14555 16.4808C5.03177 16.8479 6.00694 16.9439 6.94775 16.7568C7.88856 16.5697 8.75274 16.1077 9.43103 15.4295C9.43601 15.4245 9.44076 15.4194 9.4453 15.4143L10.2599 14.4945C10.2904 14.4601 10.3143 14.4195 10.3294 14.3761C10.3444 14.3326 10.3508 14.2866 10.348 14.2407C10.3453 14.1947 10.3335 14.1498 10.3134 14.1084C10.2932 14.0671 10.2652 14.0301 10.2307 13.9996C10.1963 13.969 10.1562 13.9456 10.1127 13.9306C10.0692 13.9157 10.0231 13.9094 9.97722 13.9122C9.93129 13.915 9.88638 13.9269 9.84504 13.9471C9.8037 13.9672 9.76675 13.9954 9.73629 14.0299L8.92846 14.9421L8.919 14.9515C8.33672 15.527 7.59719 15.9175 6.79349 16.0737C5.9898 16.23 5.15784 16.145 4.40234 15.8295C3.64683 15.5139 3.00153 14.982 2.54766 14.3006C2.09378 13.6192 1.8516 12.8187 1.8516 12C1.8516 11.1812 2.09378 10.3808 2.54766 9.69938C3.00154 9.01796 3.64683 8.48602 4.40234 8.17051C5.15784 7.85499 5.9898 7.77001 6.79349 7.92624C7.59719 8.08247 8.33672 8.47294 8.919 9.0485L8.92845 9.05784L14.557 15.4134C14.5571 15.4134 14.5569 15.4133 14.557 15.4134C14.5621 15.4191 14.5675 15.4249 14.5729 15.4303L14.2892 15.7123L14.5721 15.4295C15.2504 16.1077 16.1146 16.5697 17.0554 16.7568C17.9962 16.9439 18.9714 16.8479 19.8576 16.4808C20.7438 16.1137 21.5013 15.4921 22.0342 14.6945C22.5671 13.8969 22.8516 12.9592 22.8516 12C22.8516 11.0407 22.5671 10.103 22.0342 9.30546C21.5013 8.50788 20.7438 7.88625 19.8576 7.51916ZM16.8993 6.45854C17.9953 6.24053 19.1313 6.35242 20.1637 6.78006C21.1961 7.20769 22.0785 7.93187 22.6994 8.86101C23.3202 9.79015 23.6516 10.8825 23.6516 12C23.6516 13.1174 23.3202 14.2098 22.6994 15.139C22.0785 16.0681 21.1961 16.7923 20.1637 17.2199C19.1313 17.6475 17.9953 17.7594 16.8993 17.5414C15.8033 17.3234 14.7966 16.7853 14.0064 15.9951L14.0056 15.9943C13.9897 15.9783 13.9742 15.9619 13.9592 15.945L8.34742 9.60841C7.8788 9.14875 7.28538 8.83683 6.64084 8.71154C5.99207 8.58542 5.32049 8.65403 4.71063 8.90872C4.10076 9.16341 3.57986 9.59281 3.21348 10.1429C2.84709 10.6929 2.6516 11.3391 2.6516 12C2.6516 12.6609 2.84709 13.307 3.21348 13.8571C3.57986 14.4072 4.10076 14.8366 4.71063 15.0912C5.32049 15.3459 5.99207 15.4145 6.64084 15.2884C7.28538 15.1631 7.87879 14.8512 8.34741 14.3916L9.13664 13.5003C9.13671 13.5003 9.13657 13.5004 9.13664 13.5003M10.0444 15.9444C10.0291 15.9618 10.0131 15.9787 9.99671 15.9951C9.20655 16.7853 8.19981 17.3234 7.10382 17.5414C6.00783 17.7594 4.8718 17.6475 3.8394 17.2199C2.807 16.7923 1.92459 16.0681 1.30376 15.139C0.682929 14.2098 0.351562 13.1174 0.351562 12C0.351562 10.8825 0.682929 9.79015 1.30376 8.86101C1.92459 7.93187 2.807 7.2077 3.8394 6.78006C4.8718 6.35243 6.00783 6.24054 7.10382 6.45854C8.19981 6.67655 9.20655 7.21466 9.99671 8.00483L9.99754 8.00565C10.0134 8.02164 10.0289 8.03806 10.0439 8.05491L15.6557 14.3916C16.1243 14.8512 16.7177 15.1631 17.3623 15.2884C18.011 15.4145 18.6826 15.3459 19.2925 15.0912C19.9024 14.8366 20.4233 14.4072 20.7896 13.8571C21.156 13.307 21.3515 12.6609 21.3515 12C21.3515 11.3391 21.156 10.6929 20.7896 10.1429C20.4233 9.59281 19.9024 9.16341 19.2925 8.90872C18.6826 8.65403 18.011 8.58542 17.3623 8.71154C16.7177 8.83683 16.1243 9.14875 15.6557 9.6084L14.8661 10.5C14.6637 10.7278 14.3788 10.8665 14.0746 10.8847C13.7705 10.9028 13.4715 10.7996 13.2435 10.5976C13.0154 10.3955 12.8768 10.1112 12.8581 9.8071C12.8395 9.50298 12.9423 9.20388 13.144 8.97549L13.9584 8.05584C13.9739 8.03835 13.9899 8.02135 14.0064 8.00483C14.7966 7.21466 15.8033 6.67655 16.8993 6.45854" fill="black"/>
</g>
</svg>
