<svg width="16" height="20" viewBox="0 0 16 20" fill="none" xmlns="http://www.w3.org/2000/svg">
<path fill-rule="evenodd" clip-rule="evenodd" d="M9.25175 0.306151C9.56828 0.436049 9.75677 0.763701 9.70995 1.10263L8.86073 7.25H15.25C15.5338 7.25 15.7933 7.41021 15.9205 7.66394C16.0477 7.91767 16.0207 8.22146 15.8509 8.44884L7.63387 19.4488C7.42911 19.723 7.06479 19.8237 6.74826 19.6938C6.43173 19.5639 6.24324 19.2363 6.29006 18.8974L7.13927 12.75H0.750004C0.466185 12.75 0.206678 12.5898 0.0795066 12.3361C-0.0476653 12.0823 -0.0207147 11.7785 0.14914 11.5512L8.36614 0.55115C8.5709 0.277039 8.93522 0.176252 9.25175 0.306151ZM2.24641 11.25H8C8.21682 11.25 8.42302 11.3438 8.56546 11.5073C8.70789 11.6708 8.77262 11.8879 8.74295 12.1026L8.17431 16.2189L13.7536 8.75H8C7.78319 8.75 7.57699 8.65617 7.43455 8.49271C7.29212 8.32924 7.22739 8.11214 7.25706 7.89736L7.8257 3.78107L2.24641 11.25Z" fill="#F7AC61"/>
</svg>
