<svg width="20" height="21" viewBox="0 0 20 21" fill="none" xmlns="http://www.w3.org/2000/svg">
<path d="M19.2 3.8C18.9 3.5 18.4 3.3 17.9 3.3C17.1 3.3 16.4 3.4 15.7 3.5V2C15.7 1.4 15.4 0.8 14.9 0.5C14.4 0.2 13.8 0.2 13.2 0.4C11.4 1.3 9.90001 3.1 9.30001 4.9C7.10001 3.9 4.90001 3.4 2.00001 3.3C1.50001 3.3 1.10001 3.5 0.700012 3.8C0.300012 4.1 0.200012 4.5 0.200012 5V16.8C0.200012 17.8 1.00001 18.5 1.90001 18.5C5.00001 18.5 7.10001 19.1 9.60001 20.5C9.70001 20.5 9.80001 20.6 9.90001 20.6C9.90001 20.6 9.90001 20.6 10 20.6C10.1 20.6 10.2 20.6 10.3 20.5C12.7 19.1 14.9 18.5 18 18.5C18.9 18.5 19.7 17.7 19.7 16.8V5C19.8 4.5 19.6 4.1 19.2 3.8ZM10.8 5.7C11.1 4.1 12.4 2.6 14 1.8C14.1 1.8 14.1 1.8 14.2 1.8C14.2 1.8 14.3 1.9 14.3 2V14.2C14.3 14.3 14.2 14.4 14.1 14.4C12.8 14.8 11.6 15.7 10.8 16.8V5.7ZM1.80001 16.9V5C1.80001 4.9 1.80001 4.8 1.90001 4.8C1.90001 4.8 2.00001 4.7 2.10001 4.7C5.00001 4.8 7.10001 5.3 9.40001 6.5V18.6C7.00001 17.6 4.80001 17.1 2.00001 17.1C1.90001 17.1 1.80001 17 1.80001 16.9ZM18.2 16.9C18.2 17 18.1 17.1 18 17.1C15.5 17.1 13.4 17.5 11.4 18.4C12.1 17.3 13.3 16.3 14.5 15.9C15.2 15.7 15.7 15 15.7 14.3V5C16.4 4.9 17.1 4.8 17.9 4.8C18 4.8 18.1 4.8 18.1 4.9C18.1 4.9 18.2 5 18.2 5.1V16.9Z" fill="#414549"/>
</svg>
