<svg width="20" height="20" viewBox="0 0 20 20" fill="none" xmlns="http://www.w3.org/2000/svg">
<path fill-rule="evenodd" clip-rule="evenodd" d="M1.75 9.29099C1.75 5.23406 5.39093 1.85999 10 1.85999C14.6089 1.85999 18.25 5.23495 18.25 9.29199L18.2501 9.30379C18.2425 13.3551 14.6042 16.723 10.0001 16.723C9.43285 16.723 8.8794 16.6696 8.34182 16.5705C8.16702 16.519 7.97311 16.5307 7.79697 16.618L5.34941 17.8314L5.34922 17.5549V17.5547L5.34922 17.5533C5.34876 16.9165 5.34834 16.332 5.34889 15.843C5.34976 15.8035 5.34748 15.7639 5.34216 15.7249C5.33209 15.6502 5.31105 15.579 5.28069 15.513C5.23019 15.4027 5.15232 15.3034 5.04919 15.2261C5.03811 15.2178 5.02679 15.2098 5.01524 15.2021C3.01782 13.8332 1.75 11.6926 1.75 9.29102V9.29099ZM10 0.359985C15.29 0.359985 19.7416 4.26364 19.75 9.27775L19.7501 9.29102C19.7501 14.312 15.2952 18.223 10.0001 18.223C9.39658 18.223 8.80757 18.1711 8.23551 18.0749L4.96614 19.6956C4.85783 19.7564 4.73291 19.791 4.59991 19.791C4.1857 19.791 3.84991 19.4552 3.84991 19.041C3.84991 18.5314 3.84956 18.031 3.84922 17.5586C3.84887 17.0732 3.84855 16.6174 3.84865 16.2115C1.67512 14.5902 0.25 12.1134 0.25 9.29102V9.29099C0.25 4.26991 4.70507 0.359985 10 0.359985ZM7.1001 6C7.1001 5.58579 7.43588 5.25 7.8501 5.25H12.1501C12.5643 5.25 12.9001 5.58579 12.9001 6C12.9001 6.41421 12.5643 6.75 12.1501 6.75H7.8501C7.43588 6.75 7.1001 6.41421 7.1001 6ZM6 8.5C5.58579 8.5 5.25 8.83579 5.25 9.25C5.25 9.66421 5.58579 10 6 10H14C14.4142 10 14.75 9.66421 14.75 9.25C14.75 8.83579 14.4142 8.5 14 8.5H6ZM7.8501 11.75C7.43588 11.75 7.1001 12.0858 7.1001 12.5C7.1001 12.9142 7.43588 13.25 7.8501 13.25H12.1501C12.5643 13.25 12.9001 12.9142 12.9001 12.5C12.9001 12.0858 12.5643 11.75 12.1501 11.75H7.8501Z" fill="#414549"/>
</svg>
