<svg width="20" height="20" viewBox="0 0 20 20" fill="none" xmlns="http://www.w3.org/2000/svg">
<path fill-rule="evenodd" clip-rule="evenodd" d="M6.75 3C6.75 2.30964 7.30964 1.75 8 1.75C8.69036 1.75 9.25 2.30964 9.25 3V4.25H9H8C7.30964 4.25 6.75 3.69036 6.75 3ZM7.26772 5.75H2.5C2.08579 5.75 1.75 6.08579 1.75 6.5V7.5C1.75 7.91421 2.08579 8.25 2.5 8.25H7.25V6C7.25 5.91512 7.25604 5.83165 7.26772 5.75ZM7.25 9.75H2.75V17C2.75 17.6904 3.30964 18.25 4 18.25H7.26772C7.25604 18.1683 7.25 18.0849 7.25 18V9.75ZM9 18.25C8.86193 18.25 8.75 18.1381 8.75 18V9V6C8.75 5.86193 8.86193 5.75 9 5.75H10H11C11.1381 5.75 11.25 5.86193 11.25 6V9V18C11.25 18.1381 11.1381 18.25 11 18.25H9ZM11 19.75H9H4C2.48122 19.75 1.25 18.5188 1.25 17V9.37111C0.647007 8.96748 0.25 8.2801 0.25 7.5V6.5C0.25 5.25736 1.25736 4.25 2.5 4.25H5.54985C5.35814 3.87497 5.25 3.45011 5.25 3C5.25 1.48122 6.48122 0.25 8 0.25C8.78802 0.25 9.49862 0.581446 10 1.11253C10.5014 0.581446 11.212 0.25 12 0.25C13.5188 0.25 14.75 1.48122 14.75 3C14.75 3.45011 14.6419 3.87497 14.4501 4.25H17.5C18.7426 4.25 19.75 5.25736 19.75 6.5V7.5C19.75 8.2801 19.353 8.96748 18.75 9.37111V17C18.75 18.5188 17.5188 19.75 16 19.75H11ZM12.7323 18.25C12.744 18.1683 12.75 18.0849 12.75 18V9.75H17.25V17C17.25 17.6904 16.6904 18.25 16 18.25H12.7323ZM12.75 8.25H17.5C17.9142 8.25 18.25 7.91421 18.25 7.5V6.5C18.25 6.08579 17.9142 5.75 17.5 5.75H12.7323C12.744 5.83165 12.75 5.91512 12.75 6V8.25ZM11 4.25H12C12.6904 4.25 13.25 3.69036 13.25 3C13.25 2.30964 12.6904 1.75 12 1.75C11.3096 1.75 10.75 2.30964 10.75 3V4.25H11Z" fill="#F7AC61"/>
</svg>
