<svg width="17" height="20" viewBox="0 0 17 20" fill="none" xmlns="http://www.w3.org/2000/svg">
<path d="M16.3124 11.28C16.1124 10.58 15.6124 9.98005 14.9124 9.68005L14.1124 9.28005C13.8124 9.18005 13.6124 8.88005 13.5124 8.58005L12.5124 5.98005C12.0124 4.68005 11.1124 3.58005 9.81242 2.98005C9.11242 2.58005 8.31242 2.48005 7.41242 2.48005L7.31242 2.18005C6.91242 0.680046 5.51242 -0.0199536 4.11242 0.480046C2.81242 0.980046 2.01242 2.38005 2.51242 3.78005L2.61242 4.08005C2.01242 4.58005 1.51242 5.18005 1.11242 5.98005C0.512424 7.28005 0.412424 8.68005 0.912424 9.98005L1.81242 12.58C1.91242 12.88 1.91242 13.28 1.71242 13.58L1.31242 14.38C1.01242 15.08 0.912424 15.78 1.21242 16.48C1.61242 17.58 2.61242 18.28 3.71242 18.28C4.01242 18.28 4.31242 18.28 4.61242 18.18L5.11242 17.98C5.61242 19.08 6.71242 19.68 7.81242 19.68C8.11242 19.68 8.51242 19.58 8.81242 19.48C10.3124 18.98 11.1124 17.48 10.8124 15.98L14.6124 14.68C15.3124 14.48 15.8124 13.98 16.1124 13.38C16.5124 12.68 16.5124 11.98 16.3124 11.28ZM3.91242 3.28005C3.71242 2.68005 4.01242 2.08005 4.61242 1.88005C5.21242 1.68005 5.81242 1.98005 6.01242 2.58005V2.68005C5.91242 2.68005 4.01242 3.28005 3.91242 3.28005ZM8.41242 18.08C7.71242 18.28 7.01242 18.08 6.61242 17.48L9.41242 16.48C9.41242 17.18 9.01242 17.78 8.41242 18.08ZM14.8124 12.68C14.7124 12.98 14.4124 13.18 14.1124 13.28L4.01242 16.68C3.41242 16.88 2.81242 16.58 2.51242 15.98C2.41242 15.68 2.41242 15.28 2.61242 14.98L3.01242 14.28C3.31242 13.58 3.41242 12.88 3.11242 12.18L2.21242 9.58005C1.91242 8.58005 1.91242 7.58005 2.41242 6.68005C2.91242 5.68005 3.71242 4.98005 4.61242 4.68005L6.31242 4.08005C6.71242 3.98005 7.11242 3.88005 7.51242 3.88005C8.11242 3.88005 8.61242 3.98005 9.21242 4.28005C10.1124 4.68005 10.8124 5.48005 11.1124 6.48005L12.0124 9.08005C12.2124 9.78005 12.7124 10.38 13.4124 10.68L14.2124 11.08C14.7758 11.2678 15.1432 12.1839 14.8124 12.68Z" fill="url(#paint0_linear_3122_174)"/>
<defs>
<linearGradient id="paint0_linear_3122_174" x1="0.592285" y1="19.6801" x2="16.4438" y2="19.6801" gradientUnits="userSpaceOnUse">
<stop stop-color="#22BB00"/>
<stop offset="1" stop-color="#66BB00"/>
</linearGradient>
</defs>
</svg>
