<svg width="16" height="20" viewBox="0 0 16 20" fill="none" xmlns="http://www.w3.org/2000/svg">
<path fill-rule="evenodd" clip-rule="evenodd" d="M12 0.25C12.4142 0.25 12.75 0.585786 12.75 1V8.74C12.75 9.15421 12.4142 9.49 12 9.49C11.5858 9.49 11.25 9.15421 11.25 8.74V1C11.25 0.585786 11.5858 0.25 12 0.25Z" fill="url(#paint0_linear_3122_5771)"/>
<path fill-rule="evenodd" clip-rule="evenodd" d="M4 0.25C4.41421 0.25 4.75 0.585786 4.75 1V8.74C4.75 9.15421 4.41421 9.49 4 9.49C3.58579 9.49 3.25 9.15421 3.25 8.74V1C3.25 0.585786 3.58579 0.25 4 0.25Z" fill="url(#paint1_linear_3122_5771)"/>
<path fill-rule="evenodd" clip-rule="evenodd" d="M9.38762 7.11322L10.7172 9.80855L13.6897 10.2408C14.961 10.4254 15.4657 11.9871 14.5475 12.8821L12.3959 14.9779L12.9042 17.938C13.1212 19.2018 11.7952 20.1686 10.6581 19.5709L7.9995 18.1735L5.34005 19.5714C4.20499 20.166 2.87747 19.2036 3.09482 17.9381L3.60305 14.9779L1.45167 12.8822C0.53343 11.9872 1.0377 10.4254 2.30908 10.2408L5.28171 9.80857L6.61029 7.11339C7.17835 5.96177 8.81956 5.9616 9.38762 7.11322ZM7.9995 16.5758C7.86781 16.5759 7.7383 16.6107 7.62461 16.676L4.64395 18.2426C4.63478 18.2474 4.62871 18.249 4.62607 18.2495C4.62322 18.2501 4.62081 18.2502 4.61828 18.2499C4.61264 18.2494 4.60288 18.2467 4.59224 18.239C4.5816 18.2312 4.57616 18.2229 4.57403 18.2179C4.57308 18.2157 4.57246 18.2136 4.57213 18.2108C4.57182 18.2082 4.5714 18.2023 4.57317 18.192L5.14818 14.8429C5.18998 14.5995 5.10925 14.3511 4.93233 14.1788L2.49849 11.8079C2.49094 11.8006 2.48774 11.7955 2.48644 11.7931C2.48504 11.7906 2.48422 11.7884 2.48367 11.7859C2.48243 11.7804 2.48196 11.7703 2.48602 11.7578C2.49008 11.7453 2.49634 11.7376 2.50035 11.734C2.50214 11.7324 2.50401 11.7312 2.50649 11.73C2.50881 11.729 2.51429 11.7267 2.52465 11.7252L5.88792 11.2362C6.1323 11.2007 6.34352 11.0471 6.45271 10.8256L7.95562 7.77678C7.96029 7.76737 7.96423 7.76258 7.96605 7.76062C7.96801 7.75852 7.96986 7.75707 7.97197 7.75582C7.97667 7.75303 7.98598 7.7495 7.999 7.7495C8.01202 7.7495 8.02133 7.75303 8.02603 7.75582C8.02814 7.75707 8.02999 7.75852 8.03195 7.76062C8.03378 7.76259 8.03768 7.76725 8.04238 7.77678L9.54638 10.8258C9.65559 11.0472 9.86677 11.2007 10.1111 11.2362L13.4741 11.7252C13.4844 11.7267 13.4902 11.729 13.4925 11.73C13.495 11.7312 13.4969 11.7324 13.4986 11.734C13.5027 11.7376 13.5089 11.7453 13.513 11.7578C13.517 11.7703 13.5166 11.7804 13.5153 11.7859C13.5148 11.7884 13.514 11.7906 13.5126 11.7931C13.5113 11.7955 13.5081 11.8006 13.5005 11.8079L11.0667 14.1788C10.8898 14.3511 10.809 14.5995 10.8508 14.8429L11.4258 18.1919C11.4276 18.2022 11.4272 18.2083 11.4269 18.2109L11.426 18.2151L11.4249 18.2182C11.4227 18.2233 11.4172 18.2318 11.4065 18.2395C11.3959 18.2472 11.3863 18.2498 11.381 18.2503C11.3786 18.2506 11.3763 18.2505 11.3736 18.2499C11.371 18.2494 11.3652 18.248 11.3559 18.2431L8.37439 16.676C8.2955 16.6307 8.20898 16.6 8.11941 16.5855C8.07949 16.579 8.0394 16.5758 7.9995 16.5758Z" fill="url(#paint2_linear_3122_5771)"/>
<path fill-rule="evenodd" clip-rule="evenodd" d="M3 1.75C2.30921 1.75 1.75 2.30921 1.75 3V5.861C1.75 6.30916 1.99012 6.72297 2.37801 6.94533L6.43504 9.27135C6.79438 9.47737 6.91867 9.93569 6.71265 10.295C6.50663 10.6544 6.04831 10.7787 5.68896 10.5726L1.63199 8.24667C0.777896 7.75702 0.25 6.84683 0.25 5.861V3C0.25 1.48079 1.48079 0.25 3 0.25H13C14.5192 0.25 15.75 1.48079 15.75 3V5.861C15.75 6.84626 15.2236 7.75698 14.3676 8.24692L10.311 10.5726C9.95169 10.7787 9.49337 10.6544 9.28735 10.295C9.08133 9.93569 9.20562 9.47737 9.56496 9.27135L13.622 6.94535C14.0099 6.7233 14.25 6.30974 14.25 5.861V3C14.25 2.30921 13.6908 1.75 13 1.75H3Z" fill="url(#paint3_linear_3122_5771)"/>
<defs>
<linearGradient id="paint0_linear_3122_5771" x1="0.25" y1="19.7523" x2="15.75" y2="19.7523" gradientUnits="userSpaceOnUse">
<stop stop-color="#22BB00"/>
<stop offset="1" stop-color="#66BB00"/>
</linearGradient>
<linearGradient id="paint1_linear_3122_5771" x1="0.25" y1="19.7523" x2="15.75" y2="19.7523" gradientUnits="userSpaceOnUse">
<stop stop-color="#22BB00"/>
<stop offset="1" stop-color="#66BB00"/>
</linearGradient>
<linearGradient id="paint2_linear_3122_5771" x1="0.25" y1="19.7523" x2="15.75" y2="19.7523" gradientUnits="userSpaceOnUse">
<stop stop-color="#22BB00"/>
<stop offset="1" stop-color="#66BB00"/>
</linearGradient>
<linearGradient id="paint3_linear_3122_5771" x1="0.25" y1="19.7523" x2="15.75" y2="19.7523" gradientUnits="userSpaceOnUse">
<stop stop-color="#22BB00"/>
<stop offset="1" stop-color="#66BB00"/>
</linearGradient>
</defs>
</svg>
