<svg width="20" height="20" viewBox="0 0 20 20" fill="none" xmlns="http://www.w3.org/2000/svg">
<path fill-rule="evenodd" clip-rule="evenodd" d="M13.6774 0.319736C14.0509 0.140554 14.4989 0.298041 14.6781 0.671493L15.1783 1.71403C15.3575 2.08748 15.2 2.53548 14.8265 2.71466C14.4531 2.89384 14.0051 2.73636 13.8259 2.3629L13.3257 1.32037C13.1465 0.946918 13.304 0.498919 13.6774 0.319736ZM18.5865 2.51523C18.8794 2.22234 18.8794 1.74746 18.5865 1.45457C18.2937 1.16167 17.8188 1.16167 17.5259 1.45456L16.6193 2.36111C16.3264 2.654 16.3264 3.12887 16.6193 3.42177C16.9122 3.71466 17.3871 3.71467 17.68 3.42177L18.5865 2.51523ZM8.57845 4.58923C4.80518 4.58923 1.74634 7.64807 1.74634 11.4213C1.74634 15.1946 4.80518 18.2534 8.57845 18.2534C12.3517 18.2534 15.4106 15.1946 15.4106 11.4213C15.4106 9.54709 14.6558 7.84911 13.4338 6.61471C13.4253 6.60701 13.417 6.59909 13.4089 6.59093C13.4007 6.58278 13.3928 6.57448 13.3851 6.56605C12.1507 5.34395 10.4527 4.58923 8.57845 4.58923ZM16.9106 11.4213C16.9106 9.39055 16.184 7.52944 14.9767 6.08377L15.68 5.38049C15.9729 5.0876 15.9729 4.61272 15.68 4.31983C15.3871 4.02694 14.9122 4.02694 14.6193 4.31983L13.916 5.0231C12.4704 3.81577 10.6093 3.08923 8.57845 3.08923C3.97675 3.08923 0.246338 6.81964 0.246338 11.4213C0.246338 16.023 3.97675 19.7534 8.57845 19.7534C13.1801 19.7534 16.9106 16.023 16.9106 11.4213ZM18.4061 4.83451C18.0398 4.64117 17.5861 4.78141 17.3928 5.14773C17.1994 5.51406 17.3397 5.96775 17.706 6.16109L18.6538 6.6613C19.0201 6.85464 19.4738 6.7144 19.6671 6.34808C19.8605 5.98175 19.7202 5.52806 19.3539 5.33472L18.4061 4.83451Z" fill="#D3350D"/>
</svg>
