<svg width="14" height="16" viewBox="0 0 14 16" fill="none" xmlns="http://www.w3.org/2000/svg">
<path fill-rule="evenodd" clip-rule="evenodd" d="M7 4.75C9.89979 4.75 12.25 7.10021 12.25 10V10.076C12.25 10.4902 12.5858 10.826 13 10.826C13.4142 10.826 13.75 10.4902 13.75 10.076V10C13.75 6.27179 10.7282 3.25 7 3.25H1C0.585787 3.25 0.25 3.58579 0.25 4C0.25 4.41421 0.585787 4.75 1 4.75H7Z" fill="white"/>
<path fill-rule="evenodd" clip-rule="evenodd" d="M13 9.33C12.5858 9.33 12.25 9.66579 12.25 10.08V15C12.25 15.4142 12.5858 15.75 13 15.75C13.4142 15.75 13.75 15.4142 13.75 15V10.08C13.75 9.66579 13.4142 9.33 13 9.33Z" fill="white"/>
<path fill-rule="evenodd" clip-rule="evenodd" d="M4.53033 0.46967C4.23744 0.176777 3.76256 0.176777 3.46967 0.46967L0.469669 3.46967C0.176776 3.76256 0.176776 4.23744 0.469669 4.53033L3.46967 7.53033C3.76256 7.82322 4.23744 7.82322 4.53033 7.53033C4.82322 7.23744 4.82322 6.76256 4.53033 6.46967L2.06066 4L4.53033 1.53033C4.82322 1.23744 4.82322 0.762563 4.53033 0.46967Z" fill="white"/>
</svg>
