<svg width="14" height="16" viewBox="0 0 14 16" fill="none" xmlns="http://www.w3.org/2000/svg">
<path fill-rule="evenodd" clip-rule="evenodd" d="M7 4.75C4.10021 4.75 1.75 7.10021 1.75 10V10.076C1.75 10.4902 1.41421 10.826 1 10.826C0.585786 10.826 0.25 10.4902 0.25 10.076V10C0.25 6.27179 3.27179 3.25 7 3.25H13C13.4142 3.25 13.75 3.58579 13.75 4C13.75 4.41421 13.4142 4.75 13 4.75H7Z" fill="white"/>
<path fill-rule="evenodd" clip-rule="evenodd" d="M1 9.33C1.41421 9.33 1.75 9.66579 1.75 10.08V15C1.75 15.4142 1.41421 15.75 1 15.75C0.585786 15.75 0.25 15.4142 0.25 15V10.08C0.25 9.66579 0.585786 9.33 1 9.33Z" fill="white"/>
<path fill-rule="evenodd" clip-rule="evenodd" d="M9.46967 0.46967C9.76256 0.176777 10.2374 0.176777 10.5303 0.46967L13.5303 3.46967C13.8232 3.76256 13.8232 4.23744 13.5303 4.53033L10.5303 7.53033C10.2374 7.82322 9.76256 7.82322 9.46967 7.53033C9.17678 7.23744 9.17678 6.76256 9.46967 6.46967L11.9393 4L9.46967 1.53033C9.17678 1.23744 9.17678 0.762563 9.46967 0.46967Z" fill="white"/>
</svg>
