<svg width="18" height="20" viewBox="0 0 18 20" fill="none" xmlns="http://www.w3.org/2000/svg">
<path fill-rule="evenodd" clip-rule="evenodd" d="M9.60076 1.8005C11.4087 -0.00739324 14.3395 -0.00739324 16.1474 1.8005C17.9553 3.60839 17.9553 6.53927 16.1474 8.34716L8.91542 15.5792C7.79653 16.6981 5.98166 16.6981 4.86276 15.5792C3.74387 14.4603 3.74387 12.6454 4.86276 11.5265L10.3488 6.0405C10.6417 5.74761 11.1165 5.74761 11.4094 6.0405C11.7023 6.33339 11.7023 6.80827 11.4094 7.10116L5.92342 12.5872C5.39032 13.1203 5.39032 13.9854 5.92342 14.5185C6.45653 15.0516 7.32166 15.0516 7.85476 14.5185L15.0868 7.2865C16.3089 6.06439 16.3089 4.08327 15.0868 2.86116C13.8647 1.63905 11.8835 1.63905 10.6614 2.86116L3.42942 10.0932C1.51832 12.0043 1.51832 15.1014 3.42942 17.0125C5.34053 18.9236 8.43766 18.9236 10.3488 17.0125L14.7378 12.6235C15.0307 12.3306 15.5055 12.3306 15.7984 12.6235C16.0913 12.9164 16.0913 13.3913 15.7984 13.6842L11.4094 18.0732C8.91253 20.5701 4.86566 20.5701 2.36876 18.0732C-0.12813 15.5763 -0.12813 11.5294 2.36876 9.0325L9.60076 1.8005Z" fill="url(#paint0_linear_3122_28265)"/>
<defs>
<linearGradient id="paint0_linear_3122_28265" x1="0.496094" y1="19.9459" x2="17.5033" y2="19.9459" gradientUnits="userSpaceOnUse">
<stop stop-color="#22BB00"/>
<stop offset="1" stop-color="#66BB00"/>
</linearGradient>
</defs>
</svg>
