<svg width="16" height="16" viewBox="0 0 16 16" fill="none" xmlns="http://www.w3.org/2000/svg">
<path fill-rule="evenodd" clip-rule="evenodd" d="M4.58398 4C4.58398 3.58579 4.91977 3.25 5.33398 3.25H14.0007C14.4149 3.25 14.7507 3.58579 14.7507 4C14.7507 4.41421 14.4149 4.75 14.0007 4.75H5.33398C4.91977 4.75 4.58398 4.41421 4.58398 4Z" fill="white"/>
<path fill-rule="evenodd" clip-rule="evenodd" d="M4.58398 8C4.58398 7.58579 4.91977 7.25 5.33398 7.25H14.0007C14.4149 7.25 14.7507 7.58579 14.7507 8C14.7507 8.41421 14.4149 8.75 14.0007 8.75H5.33398C4.91977 8.75 4.58398 8.41421 4.58398 8Z" fill="white"/>
<path fill-rule="evenodd" clip-rule="evenodd" d="M4.58398 12C4.58398 11.5858 4.91977 11.25 5.33398 11.25H14.0007C14.4149 11.25 14.7507 11.5858 14.7507 12C14.7507 12.4142 14.4149 12.75 14.0007 12.75H5.33398C4.91977 12.75 4.58398 12.4142 4.58398 12Z" fill="white"/>
<path fill-rule="evenodd" clip-rule="evenodd" d="M1.25 4C1.25 3.58579 1.58579 3.25 2 3.25H2.00667C2.42088 3.25 2.75667 3.58579 2.75667 4C2.75667 4.41421 2.42088 4.75 2.00667 4.75H2C1.58579 4.75 1.25 4.41421 1.25 4Z" fill="white"/>
<path fill-rule="evenodd" clip-rule="evenodd" d="M1.25 8C1.25 7.58579 1.58579 7.25 2 7.25H2.00667C2.42088 7.25 2.75667 7.58579 2.75667 8C2.75667 8.41421 2.42088 8.75 2.00667 8.75H2C1.58579 8.75 1.25 8.41421 1.25 8Z" fill="white"/>
<path fill-rule="evenodd" clip-rule="evenodd" d="M1.25 12C1.25 11.5858 1.58579 11.25 2 11.25H2.00667C2.42088 11.25 2.75667 11.5858 2.75667 12C2.75667 12.4142 2.42088 12.75 2.00667 12.75H2C1.58579 12.75 1.25 12.4142 1.25 12Z" fill="white"/>
</svg>
