<svg width="16" height="16" viewBox="0 0 16 16" fill="none" xmlns="http://www.w3.org/2000/svg">
<g clip-path="url(#clip0_792_100)">
<path fill-rule="evenodd" clip-rule="evenodd" d="M10.8037 0.136357C11.0965 -0.156536 11.5714 -0.156536 11.8643 0.136357L14.531 2.80302C14.6716 2.94368 14.7507 3.13444 14.7507 3.33335C14.7507 3.53227 14.6716 3.72303 14.531 3.86368L11.8643 6.53035C11.5714 6.82324 11.0965 6.82324 10.8037 6.53035C10.5108 6.23746 10.5108 5.76258 10.8037 5.46969L12.94 3.33335L10.8037 1.19702C10.5108 0.904124 10.5108 0.42925 10.8037 0.136357Z" fill="white"/>
<path fill-rule="evenodd" clip-rule="evenodd" d="M4.66667 4.08331C4.15833 4.08331 3.67082 4.28525 3.31138 4.64469C2.95193 5.00414 2.75 5.49165 2.75 5.99998V7.33331C2.75 7.74753 2.41421 8.08331 2 8.08331C1.58579 8.08331 1.25 7.74753 1.25 7.33331V5.99998C1.25 5.09382 1.60997 4.22478 2.25072 3.58403C2.89147 2.94328 3.76051 2.58331 4.66667 2.58331H14C14.4142 2.58331 14.75 2.9191 14.75 3.33331C14.75 3.74753 14.4142 4.08331 14 4.08331H4.66667Z" fill="white"/>
<path fill-rule="evenodd" clip-rule="evenodd" d="M5.197 9.46967C5.48989 9.76256 5.48989 10.2374 5.197 10.5303L3.06066 12.6667L5.197 14.803C5.48989 15.0959 5.48989 15.5708 5.197 15.8637C4.9041 16.1566 4.42923 16.1566 4.13634 15.8637L1.46967 13.197C1.17678 12.9041 1.17678 12.4292 1.46967 12.1363L4.13634 9.46967C4.42923 9.17678 4.9041 9.17678 5.197 9.46967Z" fill="white"/>
<path fill-rule="evenodd" clip-rule="evenodd" d="M14 7.91669C14.4142 7.91669 14.75 8.25247 14.75 8.66669V10C14.75 10.9062 14.39 11.7752 13.7493 12.416C13.1085 13.0567 12.2395 13.4167 11.3333 13.4167H2C1.58579 13.4167 1.25 13.0809 1.25 12.6667C1.25 12.2525 1.58579 11.9167 2 11.9167H11.3333C11.8417 11.9167 12.3292 11.7148 12.6886 11.3553C13.0481 10.9959 13.25 10.5084 13.25 10V8.66669C13.25 8.25247 13.5858 7.91669 14 7.91669Z" fill="white"/>
</g>
<defs>
<clipPath id="clip0_792_100">
<rect width="16" height="16" fill="white"/>
</clipPath>
</defs>
</svg>
