<svg width="18" height="18" viewBox="0 0 18 18" fill="none" xmlns="http://www.w3.org/2000/svg">
<path fill-rule="evenodd" clip-rule="evenodd" d="M8.53954 1.46354C8.81038 1.2529 9.18962 1.2529 9.46046 1.46354L15.7105 6.32466C15.8931 6.46675 16 6.68523 16 6.91667V14.5556C16 15.1228 15.7747 15.6669 15.3735 16.068C14.9724 16.4691 14.4284 16.6944 13.8611 16.6944H4.13889C3.57162 16.6944 3.02759 16.4691 2.62647 16.068C2.22535 15.6669 2 15.1228 2 14.5556V6.91667C2 6.68523 2.10685 6.46675 2.28954 6.32466L8.53954 1.46354ZM3.5 7.28348V14.5556C3.5 14.725 3.56731 14.8875 3.68713 15.0073C3.80694 15.1271 3.96945 15.1944 4.13889 15.1944H13.8611C14.0306 15.1944 14.1931 15.1271 14.3129 15.0073C14.4327 14.8875 14.5 14.725 14.5 14.5556V7.28348L9 3.0057L3.5 7.28348Z" fill="white"/>
<path fill-rule="evenodd" clip-rule="evenodd" d="M6.1665 9C6.1665 8.58579 6.50229 8.25 6.9165 8.25H11.0832C11.4974 8.25 11.8332 8.58579 11.8332 9V15.9444C11.8332 16.3587 11.4974 16.6944 11.0832 16.6944C10.669 16.6944 10.3332 16.3587 10.3332 15.9444V9.75H7.6665V15.9444C7.6665 16.3587 7.33072 16.6944 6.9165 16.6944C6.50229 16.6944 6.1665 16.3587 6.1665 15.9444V9Z" fill="white"/>
</svg>
