<svg width="20" height="20" viewBox="0 0 20 20" fill="none" xmlns="http://www.w3.org/2000/svg">
<path fill-rule="evenodd" clip-rule="evenodd" d="M8.95994 2.8629C9.27626 2.68065 9.63492 2.58472 10 2.58472C10.3651 2.58472 10.7237 2.68065 11.0401 2.8629C11.0406 2.86321 11.0411 2.86352 11.0417 2.86383L15.7083 5.53049C16.0247 5.71316 16.2875 5.97583 16.4704 6.29212C16.6532 6.60842 16.7496 6.96724 16.75 7.33258V12.6667C16.7496 13.032 16.6532 13.3916 16.4704 13.7079C16.2875 14.0242 16.0247 14.2869 15.7083 14.4695L15.7054 14.4712L11.0417 17.1362C11.0411 17.1365 11.0405 17.1369 11.0399 17.1372C10.7236 17.3194 10.365 17.4153 10 17.4153C9.63498 17.4153 9.27639 17.3194 8.96012 17.1372C8.95952 17.1369 8.95893 17.1365 8.95833 17.1362L4.29456 14.4712L4.29167 14.4695C3.97527 14.2869 3.71248 14.0242 3.52965 13.7079C3.34682 13.3916 3.25038 13.0328 3.25 12.6675L3.25 7.33335C3.25037 6.96801 3.34682 6.60842 3.52965 6.29212C3.71248 5.97583 3.97527 5.71317 4.29167 5.5305L4.29456 5.52883L8.95994 2.8629ZM10 4.08472C9.8976 4.08472 9.79701 4.11167 9.70833 4.16287L9.70544 4.16454L5.0405 6.83021C4.95243 6.88133 4.87927 6.95462 4.8283 7.04279C4.77716 7.13126 4.75016 7.23161 4.75 7.3338V12.6662C4.75016 12.7684 4.77716 12.8688 4.8283 12.9572C4.87927 13.0454 4.95243 13.1187 5.0405 13.1698C5.04089 13.17 5.04128 13.1703 5.04167 13.1705L9.70834 15.8372C9.79701 15.8884 9.8976 15.9153 10 15.9153C10.1024 15.9153 10.203 15.8884 10.2917 15.8372L10.2946 15.8355L14.9583 13.1705C14.9587 13.1703 14.9591 13.17 14.9595 13.1698C15.0476 13.1187 15.1207 13.0454 15.1717 12.9572C15.2228 12.8689 15.2498 12.7686 15.25 12.6665C15.25 12.6663 15.25 12.6667 15.25 12.6665L15.25 7.33412C15.25 7.33391 15.25 7.33432 15.25 7.33412C15.2498 7.23204 15.2228 7.13118 15.1717 7.04279C15.1207 6.95462 15.0476 6.88133 14.9595 6.83021C14.9591 6.82999 14.9587 6.82976 14.9583 6.82954L10.2917 4.16287C10.203 4.11168 10.1024 4.08472 10 4.08472Z" fill="white"/>
<path fill-rule="evenodd" clip-rule="evenodd" d="M3.53061 6.26444C3.73801 5.9059 4.19681 5.78337 4.55535 5.99078L9.99981 9.14021L15.4443 5.99078C15.8028 5.78337 16.2616 5.9059 16.469 6.26444C16.6764 6.62299 16.5539 7.08179 16.1954 7.28919L10.3754 10.6559C10.143 10.7903 9.8566 10.7903 9.62427 10.6559L3.80427 7.28919C3.44572 7.08179 3.3232 6.62299 3.53061 6.26444Z" fill="white"/>
<path fill-rule="evenodd" clip-rule="evenodd" d="M10 9.25C10.4142 9.25 10.75 9.58579 10.75 10V16.72C10.75 17.1342 10.4142 17.47 10 17.47C9.58579 17.47 9.25 17.1342 9.25 16.72V10C9.25 9.58579 9.58579 9.25 10 9.25Z" fill="white"/>
</svg>
