<svg width="20" height="20" viewBox="0 0 20 20" fill="none" xmlns="http://www.w3.org/2000/svg">
<path d="M15.8933 5.07333C15.5528 4.73267 15.1485 4.46243 14.7036 4.27805C14.2586 4.09368 13.7817 3.99878 13.3 3.99878C12.8183 3.99878 12.3414 4.09368 11.8964 4.27805C11.4515 4.46243 11.0472 4.73267 10.7067 5.07333L10 5.78L9.29333 5.07333C8.60554 4.38553 7.67269 3.99914 6.7 3.99914C5.72731 3.99914 4.79446 4.38553 4.10666 5.07333C3.41887 5.76112 3.03247 6.69397 3.03247 7.66666C3.03247 8.63935 3.41887 9.5722 4.10666 10.26L4.81333 10.9667L10 16.1533L15.1867 10.9667L15.8933 10.26C16.234 9.91949 16.5042 9.51521 16.6886 9.07023C16.873 8.62526 16.9679 8.14832 16.9679 7.66666C16.9679 7.185 16.873 6.70807 16.6886 6.26309C16.5042 5.81812 16.234 5.41383 15.8933 5.07333V5.07333Z" fill="#44BB00"/>
</svg>
