<svg width="12" height="14" viewBox="0 0 12 14" fill="none" xmlns="http://www.w3.org/2000/svg">
<path fill-rule="evenodd" clip-rule="evenodd" d="M1 0.25C0.585786 0.25 0.25 0.585786 0.25 1V7V13C0.25 13.4142 0.585786 13.75 1 13.75H8C10.0711 13.75 11.75 12.0711 11.75 10C11.75 8.49318 10.8613 7.19393 9.5794 6.59784C10.227 5.92389 10.625 5.00843 10.625 4C10.625 1.92893 8.94607 0.25 6.875 0.25H1ZM6.875 6.25C8.11764 6.25 9.125 5.24264 9.125 4C9.125 2.75736 8.11764 1.75 6.875 1.75H1.75V6.25H6.875ZM1.75 7.75V12.25H8C9.24264 12.25 10.25 11.2426 10.25 10C10.25 8.75736 9.24264 7.75 8 7.75H6.875H1.75Z" fill="white"/>
</svg>
