<svg width="24" height="25" viewBox="0 0 24 25" fill="none" xmlns="http://www.w3.org/2000/svg">
<path fill-rule="evenodd" clip-rule="evenodd" d="M12 20.446C7.44365 20.446 3.75 16.7524 3.75 12.196C3.75 7.6397 7.44365 3.94604 12 3.94604C16.5563 3.94604 20.25 7.6397 20.25 12.196C20.25 16.7524 16.5563 20.446 12 20.446ZM2.25 12.196C2.25 17.5808 6.61522 21.946 12 21.946C17.3848 21.946 21.75 17.5808 21.75 12.196C21.75 6.81127 17.3848 2.44604 12 2.44604C6.61522 2.44604 2.25 6.81127 2.25 12.196Z" fill="#0081B8"/>
<path fill-rule="evenodd" clip-rule="evenodd" d="M11.4697 15.2264C11.7626 15.5193 12.2374 15.5193 12.5303 15.2264L16.5303 11.2264C16.8232 10.9335 16.8232 10.4586 16.5303 10.1657C16.2374 9.87282 15.7626 9.87282 15.4697 10.1657L12 13.6354L8.53033 10.1657C8.23744 9.87282 7.76256 9.87282 7.46967 10.1657C7.17678 10.4586 7.17678 10.9335 7.46967 11.2264L11.4697 15.2264Z" fill="#0081B8"/>
</svg>
