<svg width="17" height="14" viewBox="0 0 17 14" fill="none" xmlns="http://www.w3.org/2000/svg">
<path fill-rule="evenodd" clip-rule="evenodd" d="M1.08819 0.696067C1.55643 0.696067 1.93601 1.07565 1.93601 1.54389V12.8482C1.93601 13.3165 1.55643 13.6961 1.08819 13.6961C0.619947 13.6961 0.240363 13.3165 0.240363 12.8482V1.54389C0.240363 1.07565 0.619947 0.696067 1.08819 0.696067Z" fill="white"/>
<path fill-rule="evenodd" clip-rule="evenodd" d="M7.8708 0.696067C8.33904 0.696067 8.71862 1.07565 8.71862 1.54389V12.8482C8.71862 13.3165 8.33904 13.6961 7.8708 13.6961C7.40255 13.6961 7.02297 13.3165 7.02297 12.8482V1.54389C7.02297 1.07565 7.40255 0.696067 7.8708 0.696067Z" fill="white"/>
<path fill-rule="evenodd" clip-rule="evenodd" d="M8.71862 6.91347C8.71862 7.38171 8.33904 7.76129 7.8708 7.76129L1.08806 7.76128C0.619818 7.76128 0.240234 7.3817 0.240234 6.91346C0.240235 6.44521 0.61982 6.06563 1.08806 6.06563L7.8708 6.06564C8.33904 6.06564 8.71862 6.44523 8.71862 6.91347Z" fill="white"/>
<path fill-rule="evenodd" clip-rule="evenodd" d="M14.2872 0.753157C14.5675 0.869243 14.7502 1.14272 14.7502 1.44607V13.1961C14.7502 13.6103 14.4144 13.9461 14.0002 13.9461C13.586 13.9461 13.2502 13.6103 13.2502 13.1961V3.25673L12.5306 3.9764C12.2377 4.26929 11.7628 4.26929 11.4699 3.9764C11.177 3.6835 11.177 3.20863 11.4699 2.91574L13.4699 0.915737C13.6844 0.701238 14.007 0.637071 14.2872 0.753157Z" fill="white"/>
<path fill-rule="evenodd" clip-rule="evenodd" d="M11.2502 13.1961C11.2502 12.7819 11.586 12.4461 12.0002 12.4461H16.0002C16.4144 12.4461 16.7502 12.7819 16.7502 13.1961C16.7502 13.6103 16.4144 13.9461 16.0002 13.9461H12.0002C11.586 13.9461 11.2502 13.6103 11.2502 13.1961Z" fill="white"/>
</svg>
