<svg width="18" height="14" viewBox="0 0 18 14" fill="none" xmlns="http://www.w3.org/2000/svg">
<path fill-rule="evenodd" clip-rule="evenodd" d="M1.34795 0.696045C1.8162 0.696045 2.19578 1.07563 2.19578 1.54387V12.8482C2.19578 13.3165 1.8162 13.696 1.34795 13.696C0.879713 13.696 0.500128 13.3165 0.500128 12.8482V1.54387C0.500128 1.07563 0.879713 0.696045 1.34795 0.696045Z" fill="white"/>
<path fill-rule="evenodd" clip-rule="evenodd" d="M8.13056 0.696045C8.5988 0.696045 8.97839 1.07563 8.97839 1.54387V12.8482C8.97839 13.3165 8.5988 13.696 8.13056 13.696C7.66232 13.696 7.28274 13.3165 7.28274 12.8482V1.54387C7.28274 1.07563 7.66232 0.696045 8.13056 0.696045Z" fill="white"/>
<path fill-rule="evenodd" clip-rule="evenodd" d="M8.97839 6.91344C8.97839 7.38169 8.5988 7.76127 8.13056 7.76127L1.34782 7.76126C0.879583 7.76126 0.499999 7.38167 0.5 6.91343C0.500001 6.44519 0.879586 6.06561 1.34783 6.06561L8.13056 6.06562C8.5988 6.06562 8.97839 6.4452 8.97839 6.91344Z" fill="white"/>
<path fill-rule="evenodd" clip-rule="evenodd" d="M14.7058 2.3051C14.372 2.18151 14.0133 2.14046 13.6602 2.18545C13.3071 2.23044 12.9702 2.36013 12.6781 2.56347C12.386 2.76681 12.1473 3.03777 11.9825 3.35324C11.8178 3.66872 11.7317 4.01936 11.7317 4.37529C11.7317 4.78168 11.4023 5.11113 10.9959 5.11113C10.5895 5.11113 10.26 4.78168 10.26 4.37529C10.26 3.78208 10.4034 3.19768 10.6781 2.67188C10.9527 2.14609 11.3504 1.69449 11.8373 1.35559C12.3242 1.0167 12.8857 0.800545 13.4742 0.725564C14.0626 0.650583 14.6605 0.718996 15.2168 0.924972C15.7731 1.13095 16.2713 1.46838 16.669 1.9085C17.0667 2.34862 17.3521 2.87838 17.5009 3.45263C17.6497 4.02688 17.6574 4.62858 17.5234 5.20645C17.3894 5.78431 17.1176 6.32121 16.7313 6.77137C16.4666 7.07977 16.0021 7.11523 15.6937 6.85056C15.3853 6.5859 15.3498 6.12134 15.6145 5.81294C15.8463 5.54284 16.0093 5.2207 16.0897 4.87398C16.1701 4.52726 16.1655 4.16624 16.0762 3.82169C15.987 3.47715 15.8157 3.15929 15.5771 2.89521C15.3385 2.63114 15.0395 2.42868 14.7058 2.3051Z" fill="white"/>
<path fill-rule="evenodd" clip-rule="evenodd" d="M10.26 12.9602C10.26 12.5538 10.5895 12.2243 10.9959 12.2243L16.8826 12.2243C17.289 12.2243 17.6185 12.5538 17.6185 12.9602C17.6185 13.3666 17.289 13.696 16.8826 13.696L10.9959 13.696C10.5895 13.696 10.26 13.3666 10.26 12.9602Z" fill="white"/>
<path fill-rule="evenodd" clip-rule="evenodd" d="M16.7745 5.51085C17.0956 5.75994 17.154 6.22218 16.9049 6.54329L11.5774 13.4112C11.3283 13.7323 10.8661 13.7907 10.545 13.5416C10.2239 13.2925 10.1655 12.8303 10.4146 12.5092L15.742 5.64126C15.9911 5.32015 16.4534 5.26176 16.7745 5.51085Z" fill="white"/>
</svg>
