<svg width="18" height="14" viewBox="0 0 18 14" fill="none" xmlns="http://www.w3.org/2000/svg">
<path fill-rule="evenodd" clip-rule="evenodd" d="M1.08819 0.696045C1.55643 0.696045 1.93601 1.07563 1.93601 1.54387V12.8482C1.93601 13.3165 1.55643 13.696 1.08819 13.696C0.619947 13.696 0.240363 13.3165 0.240363 12.8482V1.54387C0.240363 1.07563 0.619947 0.696045 1.08819 0.696045Z" fill="#31C6C7"/>
<path fill-rule="evenodd" clip-rule="evenodd" d="M7.8708 0.696045C8.33904 0.696045 8.71862 1.07563 8.71862 1.54387V12.8482C8.71862 13.3165 8.33904 13.696 7.8708 13.696C7.40255 13.696 7.02297 13.3165 7.02297 12.8482V1.54387C7.02297 1.07563 7.40255 0.696045 7.8708 0.696045Z" fill="#31C6C7"/>
<path fill-rule="evenodd" clip-rule="evenodd" d="M8.71862 6.91344C8.71862 7.38169 8.33904 7.76127 7.8708 7.76127L1.08806 7.76126C0.619818 7.76126 0.240234 7.38167 0.240234 6.91343C0.240235 6.44519 0.61982 6.06561 1.08806 6.06561L7.8708 6.06562C8.33904 6.06562 8.71862 6.4452 8.71862 6.91344Z" fill="#31C6C7"/>
<path fill-rule="evenodd" clip-rule="evenodd" d="M12.5608 0.717566C13.0626 0.663008 13.5703 0.712452 14.0522 0.862812C14.5341 1.01317 14.9798 1.26122 15.3616 1.59149C15.7433 1.92175 16.0529 2.32715 16.2711 2.78238C16.4892 3.23761 16.6112 3.7329 16.6294 4.23737C16.6476 4.74183 16.5617 5.24464 16.377 5.71442C16.1922 6.18419 15.9127 6.61086 15.5557 6.96781C15.2246 7.2989 14.6878 7.2989 14.3567 6.96781C14.0256 6.63671 14.0256 6.0999 14.3567 5.7688C14.5489 5.5766 14.6995 5.34685 14.7989 5.0939C14.8984 4.84094 14.9447 4.5702 14.9349 4.29856C14.925 4.02693 14.8594 3.76023 14.7419 3.51511C14.6245 3.26998 14.4577 3.05169 14.2522 2.87386C14.0466 2.69602 13.8066 2.56246 13.5471 2.48149C13.2877 2.40053 13.0143 2.37391 12.7441 2.40329C12.4739 2.43266 12.2126 2.51741 11.9766 2.65224C11.7406 2.78707 11.5349 2.96909 11.3723 3.18695C11.0923 3.56224 10.5611 3.63948 10.1858 3.35947C9.8105 3.07946 9.73326 2.54823 10.0133 2.17294C10.3151 1.76835 10.6971 1.43032 11.1355 1.17991C11.5738 0.929514 12.059 0.772125 12.5608 0.717566Z" fill="#31C6C7"/>
<path fill-rule="evenodd" clip-rule="evenodd" d="M13.1322 5.23582C13.8671 5.16782 14.6069 5.29283 15.2786 5.59848C15.9503 5.90414 16.5306 6.37984 16.962 6.97856C17.3935 7.57727 17.6612 8.27824 17.7386 9.01214C17.816 9.74603 17.7005 10.4874 17.4035 11.163C17.1065 11.8386 16.6383 12.4249 16.0452 12.864C15.452 13.3031 14.7546 13.5797 14.0217 13.6666C13.2889 13.7534 12.5461 13.6475 11.8667 13.3592C11.1874 13.0708 10.5951 12.6102 10.1484 12.0228C9.86503 11.65 9.93743 11.1181 10.3102 10.8347C10.6829 10.5513 11.2148 10.6237 11.4982 10.9964C11.7662 11.3489 12.1216 11.6253 12.5292 11.7983C12.9368 11.9712 13.3825 12.0348 13.8222 11.9827C14.2619 11.9306 14.6804 11.7646 15.0362 11.5012C15.3921 11.2377 15.673 10.8859 15.8513 10.4806C16.0295 10.0752 16.0988 9.63039 16.0523 9.19005C16.0058 8.74971 15.8452 8.32913 15.5864 7.9699C15.3275 7.61067 14.9793 7.32525 14.5763 7.14185C14.1733 6.95846 13.7294 6.88346 13.2885 6.92426C12.8222 6.9674 12.4093 6.62441 12.3661 6.15816C12.323 5.69191 12.666 5.27897 13.1322 5.23582Z" fill="#31C6C7"/>
</svg>
