<svg width="18" height="14" viewBox="0 0 18 14" fill="none" xmlns="http://www.w3.org/2000/svg">
<path fill-rule="evenodd" clip-rule="evenodd" d="M1.08819 0.695952C1.55643 0.695952 1.93601 1.07554 1.93601 1.54378V12.8481C1.93601 13.3164 1.55643 13.6959 1.08819 13.6959C0.619947 13.6959 0.240363 13.3164 0.240363 12.8481V1.54378C0.240363 1.07554 0.619947 0.695952 1.08819 0.695952Z" fill="white"/>
<path fill-rule="evenodd" clip-rule="evenodd" d="M7.8708 0.695952C8.33904 0.695952 8.71862 1.07554 8.71862 1.54378V12.8481C8.71862 13.3164 8.33904 13.6959 7.8708 13.6959C7.40255 13.6959 7.02297 13.3164 7.02297 12.8481V1.54378C7.02297 1.07554 7.40255 0.695952 7.8708 0.695952Z" fill="white"/>
<path fill-rule="evenodd" clip-rule="evenodd" d="M8.71862 6.91335C8.71862 7.38159 8.33904 7.76118 7.8708 7.76118L1.08806 7.76117C0.619818 7.76117 0.240234 7.38158 0.240234 6.91334C0.240235 6.4451 0.61982 6.06552 1.08806 6.06552L7.8708 6.06553C8.33904 6.06553 8.71862 6.44511 8.71862 6.91335Z" fill="white"/>
<path fill-rule="evenodd" clip-rule="evenodd" d="M14.5074 0.532264C14.874 0.725182 15.0147 1.17872 14.8218 1.54526L12.2425 6.44595H17.0002C17.4144 6.44595 17.7502 6.78174 17.7502 7.19595C17.7502 7.61017 17.4144 7.94595 17.0002 7.94595H11.0002C10.7375 7.94595 10.494 7.80849 10.3582 7.58358C10.2224 7.35868 10.2142 7.07912 10.3365 6.84664L13.4944 0.846643C13.6874 0.480097 14.1409 0.339345 14.5074 0.532264Z" fill="white"/>
<path fill-rule="evenodd" clip-rule="evenodd" d="M16.0002 4.44595C16.4144 4.44595 16.7502 4.78174 16.7502 5.19595V13.196C16.7502 13.6102 16.4144 13.946 16.0002 13.946C15.586 13.946 15.2502 13.6102 15.2502 13.196V5.19595C15.2502 4.78174 15.586 4.44595 16.0002 4.44595Z" fill="white"/>
</svg>
