<svg width="18" height="14" viewBox="0 0 18 14" fill="none" xmlns="http://www.w3.org/2000/svg">
<path fill-rule="evenodd" clip-rule="evenodd" d="M0.871099 0.696252C1.35212 0.696252 1.74207 1.07583 1.74207 1.54406V12.8482C1.74207 13.3165 1.35212 13.696 0.871099 13.696C0.390077 13.696 0.00013183 13.3165 0.00013183 12.8482V1.54406C0.00013183 1.07583 0.390077 0.696252 0.871099 0.696252Z" fill="white"/>
<path fill-rule="evenodd" clip-rule="evenodd" d="M7.83883 0.696252C8.31985 0.696252 8.7098 1.07583 8.7098 1.54406V12.8482C8.7098 13.3165 8.31985 13.696 7.83883 13.696C7.35781 13.696 6.96787 13.3165 6.96787 12.8482V1.54406C6.96787 1.07583 7.35781 0.696252 7.83883 0.696252Z" fill="white"/>
<path fill-rule="evenodd" clip-rule="evenodd" d="M8.7098 6.91355C8.7098 7.38179 8.31985 7.76136 7.83883 7.76136L0.870966 7.76135C0.389944 7.76135 -5.74771e-07 7.38177 0 6.91354C5.74772e-07 6.44531 0.389946 6.06573 0.870968 6.06573L7.83883 6.06574C8.31986 6.06574 8.7098 6.44532 8.7098 6.91355Z" fill="white"/>
<path fill-rule="evenodd" clip-rule="evenodd" d="M14.5162 6.06573C14.5162 6.53396 14.1263 6.91354 13.6453 6.91354L11.3227 6.91355C10.8417 6.91355 10.4517 6.53398 10.4517 6.06574C10.4517 5.59751 10.8417 5.21793 11.3227 5.21793L13.6453 5.21792C14.1263 5.21792 14.5162 5.59749 14.5162 6.06573Z" fill="white"/>
<path fill-rule="evenodd" clip-rule="evenodd" d="M12.6953 0.721559C13.162 0.835122 13.4457 1.29543 13.329 1.74968L12.1677 6.27135C12.0511 6.7256 11.5782 7.00179 11.1115 6.88822C10.6449 6.77466 10.3612 6.31435 10.4778 5.8601L11.6391 1.33843C11.7558 0.88418 12.2286 0.607996 12.6953 0.721559Z" fill="white"/>
<path fill-rule="evenodd" clip-rule="evenodd" d="M17.4195 1.54406C17.4195 2.0123 17.0295 2.39188 16.5485 2.39188H12.484C12.003 2.39188 11.613 2.0123 11.613 1.54406C11.613 1.07583 12.003 0.696252 12.484 0.696252L16.5485 0.696252C17.0295 0.696252 17.4195 1.07583 17.4195 1.54406Z" fill="white"/>
<path fill-rule="evenodd" clip-rule="evenodd" d="M13.2439 5.23595C13.9988 5.16795 14.7588 5.29296 15.4489 5.59861C16.1389 5.90426 16.735 6.37996 17.1782 6.97866C17.6214 7.57736 17.8964 8.27832 17.976 9.01221C18.0555 9.7461 17.9369 10.4875 17.6317 11.163C17.3266 11.8386 16.8456 12.4249 16.2363 12.864C15.627 13.3031 14.9105 13.5797 14.1576 13.6666C13.4048 13.7534 12.6417 13.6475 11.9438 13.3592C11.246 13.0709 10.6375 12.6102 10.1787 12.0228C9.8875 11.6501 9.96188 11.1182 10.3448 10.8348C10.7277 10.5513 11.2741 10.6237 11.5653 10.9965C11.8406 11.3489 12.2057 11.6253 12.6244 11.7983C13.0431 11.9713 13.5009 12.0349 13.9527 11.9827C14.4044 11.9306 14.8343 11.7646 15.1999 11.5012C15.5654 11.2377 15.854 10.8859 16.0371 10.4806C16.2202 10.0753 16.2914 9.63045 16.2436 9.19012C16.1959 8.74979 16.0309 8.32921 15.765 7.96999C15.4991 7.61077 15.1414 7.32535 14.7274 7.14196C14.3134 6.95857 13.8573 6.88357 13.4044 6.92437C12.9254 6.96751 12.5012 6.62452 12.4569 6.15828C12.4126 5.69204 12.7649 5.2791 13.2439 5.23595Z" fill="white"/>
</svg>
