<svg width="19" height="14" viewBox="0 0 19 14" fill="none" xmlns="http://www.w3.org/2000/svg">
<path fill-rule="evenodd" clip-rule="evenodd" d="M0.871099 0.69621C1.35212 0.69621 1.74207 1.07579 1.74207 1.54402V12.8482C1.74207 13.3164 1.35212 13.696 0.871099 13.696C0.390077 13.696 0.00013183 13.3164 0.00013183 12.8482V1.54402C0.00013183 1.07579 0.390077 0.69621 0.871099 0.69621Z" fill="white"/>
<path fill-rule="evenodd" clip-rule="evenodd" d="M7.83883 0.69621C8.31985 0.69621 8.7098 1.07579 8.7098 1.54402V12.8482C8.7098 13.3164 8.31985 13.696 7.83883 13.696C7.35781 13.696 6.96787 13.3164 6.96787 12.8482V1.54402C6.96787 1.07579 7.35781 0.69621 7.83883 0.69621Z" fill="white"/>
<path fill-rule="evenodd" clip-rule="evenodd" d="M8.7098 6.91351C8.7098 7.38174 8.31985 7.76132 7.83883 7.76132L0.870966 7.76131C0.389944 7.76131 -5.74771e-07 7.38173 0 6.9135C5.74772e-07 6.44527 0.389946 6.06569 0.870968 6.06569L7.83883 6.0657C8.31986 6.0657 8.7098 6.44528 8.7098 6.91351Z" fill="white"/>
<path fill-rule="evenodd" clip-rule="evenodd" d="M14 6.696C12.4812 6.696 11.25 7.92722 11.25 9.446C11.25 10.9648 12.4812 12.196 14 12.196C15.5188 12.196 16.75 10.9648 16.75 9.446C16.75 7.92722 15.5188 6.696 14 6.696ZM9.75 9.446C9.75 7.09879 11.6528 5.196 14 5.196C16.3472 5.196 18.25 7.09879 18.25 9.446C18.25 11.7932 16.3472 13.696 14 13.696C11.6528 13.696 9.75 11.7932 9.75 9.446Z" fill="white"/>
<path fill-rule="evenodd" clip-rule="evenodd" d="M13.2314 0.482578C13.6254 0.610351 13.8412 1.03334 13.7134 1.42736L11.4434 8.42736C11.3157 8.82137 10.8927 9.0372 10.4986 8.90943C10.1046 8.78166 9.8888 8.35866 10.0166 7.96465L12.2866 0.96465C12.4143 0.570636 12.8373 0.354805 13.2314 0.482578Z" fill="white"/>
</svg>
