<svg width="12" height="14" viewBox="0 0 12 14" fill="none" xmlns="http://www.w3.org/2000/svg">
<path fill-rule="evenodd" clip-rule="evenodd" d="M6.53935 1.74994L3.91435 12.2499H1C0.585786 12.2499 0.25 12.5857 0.25 12.9999C0.25 13.4142 0.585786 13.7499 1 13.7499H4.48451C4.4952 13.7502 4.50586 13.7502 4.51649 13.7499H8C8.41421 13.7499 8.75 13.4142 8.75 12.9999C8.75 12.5857 8.41421 12.2499 8 12.2499H5.46051L8.08551 1.74994H11C11.4142 1.74994 11.75 1.41415 11.75 0.999939C11.75 0.585725 11.4142 0.249939 11 0.249939H7.51588C7.50484 0.249694 7.49383 0.249695 7.48286 0.249939H4C3.58579 0.249939 3.25 0.585725 3.25 0.999939C3.25 1.41415 3.58579 1.74994 4 1.74994H6.53935Z" fill="white"/>
</svg>
