<svg width="18" height="18" viewBox="0 0 18 18" fill="none" xmlns="http://www.w3.org/2000/svg">
<path fill-rule="evenodd" clip-rule="evenodd" d="M7.25001 1.00002C7.25001 0.585808 7.5858 0.250022 8.00001 0.250022H17C17.4142 0.250022 17.75 0.585808 17.75 1.00002C17.75 1.41424 17.4142 1.75002 17 1.75002H8.00001C7.5858 1.75002 7.25001 1.41424 7.25001 1.00002Z" fill="white"/>
<path fill-rule="evenodd" clip-rule="evenodd" d="M7.40001 6.00002C7.40001 5.58581 7.7358 5.25002 8.15001 5.25002H17C17.4142 5.25002 17.75 5.58581 17.75 6.00002C17.75 6.41424 17.4142 6.75002 17 6.75002H8.15001C7.7358 6.75002 7.40001 6.41424 7.40001 6.00002Z" fill="white"/>
<path fill-rule="evenodd" clip-rule="evenodd" d="M2.53702 0.307112C2.81728 0.423198 3.00001 0.696675 3.00001 1.00002V6.00002C3.00001 6.41424 2.66422 6.75002 2.25001 6.75002C1.8358 6.75002 1.50001 6.41424 1.50001 6.00002V2.80907C1.20553 3.07291 0.752667 3.06334 0.469681 2.78035C0.176787 2.48746 0.176787 2.01259 0.469681 1.71969L1.71968 0.469692C1.93418 0.255193 2.25677 0.191027 2.53702 0.307112Z" fill="white"/>
<path fill-rule="evenodd" clip-rule="evenodd" d="M7.25001 12C7.25001 11.5858 7.5858 11.25 8.00001 11.25H17C17.4142 11.25 17.75 11.5858 17.75 12C17.75 12.4142 17.4142 12.75 17 12.75H8.00001C7.5858 12.75 7.25001 12.4142 7.25001 12Z" fill="white"/>
<path fill-rule="evenodd" clip-rule="evenodd" d="M7.40001 17C7.40001 16.5858 7.7358 16.25 8.15001 16.25H17C17.4142 16.25 17.75 16.5858 17.75 17C17.75 17.4142 17.4142 17.75 17 17.75H8.15001C7.7358 17.75 7.40001 17.4142 7.40001 17Z" fill="white"/>
<path fill-rule="evenodd" clip-rule="evenodd" d="M2.00001 12.75C1.86194 12.75 1.75001 12.862 1.75001 13C1.75001 13.4142 1.41422 13.75 1.00001 13.75C0.585797 13.75 0.250011 13.4142 0.250011 13C0.250011 12.0335 1.03351 11.25 2.00001 11.25H2.61449C3.46612 11.25 4.22222 11.795 4.49152 12.6029C4.7113 13.2623 4.56903 13.9886 4.11673 14.5163L2.63066 16.25H4.00001C4.41422 16.25 4.75001 16.5858 4.75001 17C4.75001 17.4142 4.41422 17.75 4.00001 17.75H1.00001C0.707114 17.75 0.441017 17.5795 0.318627 17.3134C0.196237 17.0473 0.239952 16.7343 0.430566 16.5119L2.97784 13.5401C3.08724 13.4124 3.12166 13.2368 3.0685 13.0773C3.00336 12.8818 2.82048 12.75 2.61449 12.75H2.00001Z" fill="white"/>
<path fill-rule="evenodd" clip-rule="evenodd" d="M0.250011 6.00002C0.250011 5.58581 0.585797 5.25002 1.00001 5.25002H3.50001C3.91422 5.25002 4.25001 5.58581 4.25001 6.00002C4.25001 6.41424 3.91422 6.75002 3.50001 6.75002H1.00001C0.585797 6.75002 0.250011 6.41424 0.250011 6.00002Z" fill="white"/>
</svg>
