<svg width="12" height="15" viewBox="0 0 12 15" fill="none" xmlns="http://www.w3.org/2000/svg">
<path fill-rule="evenodd" clip-rule="evenodd" d="M2.75 1C2.75 0.585786 2.41421 0.25 2 0.25C1.58579 0.25 1.25 0.585786 1.25 1V7C1.25 9.62335 3.37665 11.75 6 11.75C8.62335 11.75 10.75 9.62335 10.75 7V1C10.75 0.585786 10.4142 0.25 10 0.25C9.58579 0.25 9.25 0.585786 9.25 1V7C9.25 8.79493 7.79493 10.25 6 10.25C4.20507 10.25 2.75 8.79493 2.75 7V1ZM1 13.25C0.585786 13.25 0.25 13.5858 0.25 14C0.25 14.4142 0.585786 14.75 1 14.75H11C11.4142 14.75 11.75 14.4142 11.75 14C11.75 13.5858 11.4142 13.25 11 13.25H1Z" fill="white"/>
</svg>
