<svg width="38" height="42" fill="none" xmlns="http://www.w3.org/2000/svg"><path d="M23.956 2.42H14.04v17.818h9.915V2.42z" fill="#FF5F00"/><path d="M14.67 11.337A11.311 11.311 0 0119 2.43a11.331 11.331 0 100 17.818 11.31 11.31 0 01-4.328-8.91z" fill="#EB001B"/><path d="M37.332 11.334a11.33 11.33 0 01-18.334 8.907 11.33 11.33 0 000-17.818 11.331 11.331 0 0118.334 8.91zm-1.088 7.016v-.365h.148v-.073h-.369v.076h.148v.365l.073-.003zm.727 0v-.44h-.098l-.132.314-.132-.315h-.117v.44h.067v-.33l.122.287h.085l.123-.287v.334l.082-.003z" fill="#F79E1B"/><path d="M16.554 41.793h-2.97l1.858-11.58h2.97l-1.858 11.58zm10.768-11.297a7.269 7.269 0 00-2.664-.493c-2.933 0-4.999 1.577-5.012 3.831-.024 1.663 1.48 2.587 2.604 3.142 1.149.566 1.54.936 1.54 1.441-.012.776-.93 1.134-1.784 1.134-1.186 0-1.822-.185-2.787-.616l-.391-.185-.416 2.6c.697.319 1.98.603 3.313.615 3.116 0 5.145-1.552 5.17-3.954.011-1.318-.782-2.329-2.494-3.154-1.039-.53-1.675-.887-1.675-1.43.012-.492.538-.997 1.71-.997a5.014 5.014 0 012.213.444l.27.123.403-2.5zm3.948 7.194l1.185-3.24c-.012.025.244-.677.391-1.108l.208.998s.562 2.771.684 3.35H31.27zm3.666-7.477h-2.298c-.708 0-1.247.21-1.552.96l-4.412 10.62h3.116l.624-1.737h3.813c.086.406.355 1.737.355 1.737h2.75l-2.396-11.58zm-23.833 0L8.194 38.11l-.318-1.601c-.538-1.848-2.224-3.856-4.106-4.854l2.664 10.127h3.14l4.67-11.568h-3.141z" fill="#00579F"/><path d="M5.494 30.213H.714l-.048.234c3.728.961 6.197 3.277 7.211 6.061l-1.039-5.322c-.17-.74-.696-.948-1.344-.973z" fill="#FAA61A"/></svg>