<svg width="38" height="36" fill="none" xmlns="http://www.w3.org/2000/svg"><path fill-rule="evenodd" clip-rule="evenodd" d="M4 .594A3.282 3.282 0 00.719 3.875v26.25a5.155 5.155 0 005.156 5.156h26.25a5.155 5.155 0 005.156-5.156v-11.25A3.282 3.282 0 0034 15.594h-4.219V3.875A3.282 3.282 0 0026.5.594H4zM26.969 17V3.875a.47.47 0 00-.469-.469H4a.47.47 0 00-.469.469v26.25a2.343 2.343 0 002.344 2.344h21.656a5.137 5.137 0 01-.562-2.344V17zm5.156 15.469a2.343 2.343 0 002.344-2.344v-11.25a.47.47 0 00-.469-.469h-4.219v11.719a2.343 2.343 0 002.344 2.344zM8.219 9.5c0-.777.63-1.406 1.406-1.406h11.25a1.406 1.406 0 010 2.812H9.625c-.777 0-1.406-.63-1.406-1.406zm1.406 5.85a1.406 1.406 0 100 2.813h11.25a1.406 1.406 0 000-2.813H9.625zm-1.406 9.263c0-.777.63-1.407 1.406-1.407h5.625a1.406 1.406 0 010 2.813H9.625c-.777 0-1.406-.63-1.406-1.406z" fill="#6C89A9"/></svg>