<svg width="45" height="46" fill="none" xmlns="http://www.w3.org/2000/svg"><path d="M35.114 28.832c.757.291 1.048 1.425 1.106 1.92.117.902-.145 1.25-.436 1.25-.29 0-.698-.349-1.134-1.046-.437-.7-.611-1.484-.378-1.892.145-.262.465-.378.843-.232zm-4.42 3.287c.465 0 .989.204 1.454.61.901.757 1.164 1.63.698 2.27-.262.32-.698.523-1.192.523-.495 0-1.018-.174-1.367-.494-.815-.698-1.047-1.863-.525-2.502.204-.262.524-.407.931-.407zm-10.18 8.407C9.458 40.526.5 31.566.5 20.512.5 9.46 9.46.5 20.512.5c11.054 0 20.014 8.96 20.014 20.012 0 3.752-1.048 7.273-2.821 10.27-.06.086-.205.057-.234-.06-.697-4.915-3.694-7.621-8.057-8.435-.379-.059-.437-.291.058-.349 1.338-.117 3.228-.088 4.218.087a13.4 13.4 0 00.087-1.542c0-7.301-5.934-13.236-13.236-13.236-7.3 0-13.235 5.935-13.235 13.236 0 7.302 5.935 13.236 13.236 13.236h.61a17.855 17.855 0 01-.262-3.578c.03-.815.204-.931.553-.291 1.833 3.17 4.451 6.021 9.57 7.156 4.19.931 8.378 2.007 12.887 7.737.407.495-.204 1.018-.67.611-4.595-4.073-8.784-5.41-12.594-5.41-4.277.03-7.185.581-10.124.581h.001z" fill="#FF8C00"/></svg>