<svg width="34" height="40" fill="none" xmlns="http://www.w3.org/2000/svg"><path d="M28.848 3.536c-1.803-2.051-5.062-2.93-9.23-2.93H7.516c-.853 0-1.578.619-1.712 1.458L.767 33.957c-.1.629.388 1.199 1.026 1.199h7.47l1.877-11.878-.058.372a1.726 1.726 0 011.705-1.458h3.55c6.973 0 12.434-2.828 14.029-11.006a19.6 19.6 0 00.124-.707c-.202-.107-.202-.107 0 0 .475-3.023-.004-5.08-1.642-6.943z" fill="#27346A"/><path d="M13.998 9.39c.2-.095.421-.147.654-.147h9.487c1.123 0 2.17.073 3.128.226a13.16 13.16 0 011.552.345 8.587 8.587 0 011.67.664c.476-3.023-.003-5.08-1.64-6.942-1.805-2.051-5.063-2.93-9.232-2.93H7.516a1.73 1.73 0 00-1.71 1.458L.766 33.956c-.1.63.388 1.198 1.025 1.198h7.472l3.892-24.635c.08-.506.405-.92.842-1.13z" fill="#27346A"/><path d="M30.366 11.186c-1.595 8.177-7.056 11.006-14.03 11.006h-3.55c-.852 0-1.572.619-1.704 1.458L8.748 38.418a.908.908 0 00.897 1.05h6.297c.745 0 1.38-.543 1.496-1.277l.062-.32 1.186-7.508.077-.415a1.514 1.514 0 011.496-1.276h.942c6.1 0 10.877-2.473 12.273-9.627.583-2.99.281-5.485-1.26-7.239a6.01 6.01 0 00-1.724-1.327c-.037.23-.077.465-.124.707z" fill="#2790C3"/><path d="M28.82 9.814c-.244-.07-.495-.135-.753-.192a14.23 14.23 0 00-.8-.152 19.73 19.73 0 00-3.13-.227h-9.485a1.51 1.51 0 00-1.496 1.277L11.14 23.278l-.058.372a1.724 1.724 0 011.704-1.458h3.55c6.975 0 12.435-2.828 14.03-11.006.048-.242.087-.476.124-.707a8.612 8.612 0 00-1.312-.553 10.779 10.779 0 00-.358-.112z" fill="#1F264F"/></svg>