<svg width="11" height="11" fill="none" xmlns="http://www.w3.org/2000/svg"><path d="M4.053 9.464a2 2 0 012.067 0l1.53.924a.5.5 0 00.745-.542l-.406-1.74a2 2 0 01.638-1.966l1.355-1.174a.5.5 0 00-.285-.876l-1.785-.154a2 2 0 01-1.669-1.211l-.696-1.64a.5.5 0 00-.92 0l-.697 1.64a2 2 0 01-1.67 1.211L.475 4.09a.5.5 0 00-.285.876L1.543 6.14a2 2 0 01.637 1.962l-.404 1.745a.5.5 0 00.745.54l1.532-.924z" fill="url(#paint0_linear_2737_27175)"/><defs><linearGradient id="paint0_linear_2737_27175" x1="-.703" y1="11" x2="10.876" y2="11" gradientUnits="userSpaceOnUse"><stop stop-color="#2B0"/><stop offset="1" stop-color="#6B0"/></linearGradient></defs></svg>