<svg width="24" height="25" viewBox="0 0 24 25" fill="none" xmlns="http://www.w3.org/2000/svg">
<path fill-rule="evenodd" clip-rule="evenodd" d="M2.24609 3.58435C2.24609 3.17014 2.58188 2.83435 2.99609 2.83435H21.0036C21.4178 2.83435 21.7536 3.17014 21.7536 3.58435C21.7536 3.99856 21.4178 4.33435 21.0036 4.33435H2.99609C2.58188 4.33435 2.24609 3.99856 2.24609 3.58435ZM7.24818 7.5856C7.24818 6.6191 8.03168 5.8356 8.99818 5.8356H15.0015C15.968 5.8356 16.7515 6.6191 16.7515 7.5856V9.58727C16.7515 10.5538 15.968 11.3373 15.0015 11.3373H8.99818C8.03168 11.3373 7.24818 10.5538 7.24818 9.58727V7.5856ZM8.99818 7.3356C8.86011 7.3356 8.74818 7.44753 8.74818 7.5856V9.58727C8.74818 9.72534 8.86011 9.83727 8.99818 9.83727H15.0015C15.1396 9.83727 15.2515 9.72534 15.2515 9.58727V7.5856C15.2515 7.44753 15.1396 7.3356 15.0015 7.3356H8.99818ZM2.24609 14.5889C2.24609 14.1747 2.58188 13.8389 2.99609 13.8389H21.0036C21.4178 13.8389 21.7536 14.1747 21.7536 14.5889C21.7536 15.0031 21.4178 15.3389 21.0036 15.3389H2.99609C2.58188 15.3389 2.24609 15.0031 2.24609 14.5889ZM4.24693 18.5902C4.24693 17.6237 5.03043 16.8402 5.99693 16.8402H18.0028C18.9693 16.8402 19.7528 17.6237 19.7528 18.5902V20.5919C19.7528 21.5583 18.9693 22.3419 18.0028 22.3419H5.99693C5.03043 22.3419 4.24693 21.5584 4.24693 20.5919V18.5902ZM5.99693 18.3402C5.85886 18.3402 5.74693 18.4521 5.74693 18.5902V20.5919C5.74693 20.7299 5.85886 20.8419 5.99693 20.8419H18.0028C18.1408 20.8419 18.2528 20.7299 18.2528 20.5919V18.5902C18.2528 18.4521 18.1408 18.3402 18.0028 18.3402H5.99693Z" fill="white"/>
</svg>
