<svg width="25" height="25" viewBox="0 0 25 25" fill="none" xmlns="http://www.w3.org/2000/svg">
<path fill-rule="evenodd" clip-rule="evenodd" d="M2.74609 4.58435C2.74609 3.61785 3.5296 2.83435 4.49609 2.83435H9.49901C10.4655 2.83435 11.249 3.61785 11.249 4.58435V9.58727C11.249 10.5538 10.4655 11.3373 9.49901 11.3373H4.49609C3.5296 11.3373 2.74609 10.5538 2.74609 9.58727V4.58435ZM4.49609 4.33435C4.35802 4.33435 4.24609 4.44628 4.24609 4.58435V9.58727C4.24609 9.72534 4.35802 9.83727 4.49609 9.83727H9.49901C9.63708 9.83727 9.74901 9.72534 9.74901 9.58727V4.58435C9.74901 4.44628 9.63708 4.33435 9.49901 4.33435H4.49609Z" fill="white"/>
<path fill-rule="evenodd" clip-rule="evenodd" d="M13.7507 4.58435C13.7507 3.61785 14.5342 2.83435 15.5007 2.83435H20.5036C21.4701 2.83435 22.2536 3.61785 22.2536 4.58435V9.58727C22.2536 10.5538 21.4701 11.3373 20.5036 11.3373H15.5007C14.5342 11.3373 13.7507 10.5538 13.7507 9.58727V4.58435ZM15.5007 4.33435C15.3626 4.33435 15.2507 4.44628 15.2507 4.58435V9.58727C15.2507 9.72534 15.3626 9.83727 15.5007 9.83727H20.5036C20.6417 9.83727 20.7536 9.72534 20.7536 9.58727V4.58435C20.7536 4.44628 20.6417 4.33435 20.5036 4.33435H15.5007Z" fill="white"/>
<path fill-rule="evenodd" clip-rule="evenodd" d="M2.74609 15.5889C2.74609 14.6224 3.5296 13.8389 4.49609 13.8389H9.49901C10.4655 13.8389 11.249 14.6224 11.249 15.5889V20.5919C11.249 21.5583 10.4655 22.3419 9.49901 22.3419H4.49609C3.5296 22.3419 2.74609 21.5583 2.74609 20.5919V15.5889ZM4.49609 15.3389C4.35802 15.3389 4.24609 15.4509 4.24609 15.5889V20.5919C4.24609 20.7299 4.35802 20.8419 4.49609 20.8419H9.49901C9.63708 20.8419 9.74901 20.7299 9.74901 20.5919V15.5889C9.74901 15.4509 9.63708 15.3389 9.49901 15.3389H4.49609Z" fill="white"/>
<path fill-rule="evenodd" clip-rule="evenodd" d="M13.7507 15.5889C13.7507 14.6224 14.5342 13.8389 15.5007 13.8389H20.5036C21.4701 13.8389 22.2536 14.6224 22.2536 15.5889V20.5919C22.2536 21.5583 21.4701 22.3419 20.5036 22.3419H15.5007C14.5342 22.3419 13.7507 21.5583 13.7507 20.5919V15.5889ZM15.5007 15.3389C15.3626 15.3389 15.2507 15.4509 15.2507 15.5889V20.5919C15.2507 20.7299 15.3626 20.8419 15.5007 20.8419H20.5036C20.6417 20.8419 20.7536 20.7299 20.7536 20.5919V15.5889C20.7536 15.4509 20.6417 15.3389 20.5036 15.3389H15.5007Z" fill="white"/>
</svg>
