<svg width="24" height="24" viewBox="0 0 24 24" fill="none" xmlns="http://www.w3.org/2000/svg">
<path fill-rule="evenodd" clip-rule="evenodd" d="M3.24707 4.9967C3.24707 4.03021 4.03057 3.2467 4.99707 3.2467H19.0037C19.9702 3.2467 20.7537 4.03021 20.7537 4.9967V6.99837C20.7537 7.96487 19.9702 8.74837 19.0037 8.74837H4.99707C4.03057 8.74837 3.24707 7.96487 3.24707 6.99837V4.9967ZM4.99707 4.7467C4.859 4.7467 4.74707 4.85863 4.74707 4.9967V6.99837C4.74707 7.13644 4.859 7.24837 4.99707 7.24837H19.0037C19.1418 7.24837 19.2537 7.13644 19.2537 6.99837V4.9967C19.2537 4.85863 19.1418 4.7467 19.0037 4.7467H4.99707ZM3.24707 12C3.24707 11.5858 3.58286 11.25 3.99707 11.25H16.0021C16.4163 11.25 16.7521 11.5858 16.7521 12C16.7521 12.4143 16.4163 12.75 16.0021 12.75H3.99707C3.58286 12.75 3.24707 12.4143 3.24707 12ZM3.24707 16.0017C3.24707 15.5875 3.58286 15.2517 3.99707 15.2517H19.0033C19.4175 15.2517 19.7533 15.5875 19.7533 16.0017C19.7533 16.4159 19.4175 16.7517 19.0033 16.7517H3.99707C3.58286 16.7517 3.24707 16.4159 3.24707 16.0017ZM3.24707 20.0034C3.24707 19.5892 3.58286 19.2534 3.99707 19.2534H11C11.4142 19.2534 11.75 19.5892 11.75 20.0034C11.75 20.4176 11.4142 20.7534 11 20.7534H3.99707C3.58286 20.7534 3.24707 20.4176 3.24707 20.0034Z" fill="url(#paint0_linear_3122_27875)"/>
<defs>
<linearGradient id="paint0_linear_3122_27875" x1="3.24707" y1="20.7534" x2="20.7537" y2="20.7534" gradientUnits="userSpaceOnUse">
<stop stop-color="#22BB00"/>
<stop offset="1" stop-color="#66BB00"/>
</linearGradient>
</defs>
</svg>
