<svg width="25" height="25" viewBox="0 0 25 25" fill="none" xmlns="http://www.w3.org/2000/svg">
<path fill-rule="evenodd" clip-rule="evenodd" d="M3.74658 5.58472C3.74658 4.61822 4.53008 3.83472 5.49658 3.83472H19.5032C20.4697 3.83472 21.2532 4.61822 21.2532 5.58472V7.58638C21.2532 8.55288 20.4697 9.33638 19.5032 9.33638H5.49658C4.53008 9.33638 3.74658 8.55288 3.74658 7.58638V5.58472ZM5.49658 5.33472C5.35851 5.33472 5.24658 5.44665 5.24658 5.58472V7.58638C5.24658 7.72445 5.35851 7.83638 5.49658 7.83638H19.5032C19.6413 7.83638 19.7532 7.72445 19.7532 7.58638V5.58472C19.7532 5.44665 19.6413 5.33472 19.5032 5.33472H5.49658ZM3.74658 12.588C3.74658 12.1738 4.08237 11.838 4.49658 11.838H16.5016C16.9158 11.838 17.2516 12.1738 17.2516 12.588C17.2516 13.0023 16.9158 13.338 16.5016 13.338H4.49658C4.08237 13.338 3.74658 13.0023 3.74658 12.588ZM3.74658 16.5897C3.74658 16.1755 4.08237 15.8397 4.49658 15.8397H19.5028C19.917 15.8397 20.2528 16.1755 20.2528 16.5897C20.2528 17.0039 19.917 17.3397 19.5028 17.3397H4.49658C4.08237 17.3397 3.74658 17.0039 3.74658 16.5897ZM3.74658 20.5914C3.74658 20.1772 4.08237 19.8414 4.49658 19.8414H11.4995C11.9137 19.8414 12.2495 20.1772 12.2495 20.5914C12.2495 21.0056 11.9137 21.3414 11.4995 21.3414H4.49658C4.08237 21.3414 3.74658 21.0056 3.74658 20.5914Z" fill="white"/>
</svg>
