<svg width="24" height="25" viewBox="0 0 24 25" fill="none" xmlns="http://www.w3.org/2000/svg">
<path fill-rule="evenodd" clip-rule="evenodd" d="M21.7536 5.58435C21.7536 4.06557 20.5224 2.83435 19.0036 2.83435H4.9961C3.47731 2.83435 2.2461 4.06557 2.2461 5.58435V19.5919C2.2461 21.1106 3.47731 22.3419 4.9961 22.3419H19.0036C20.5224 22.3419 21.7536 21.1106 21.7536 19.5919V5.58435ZM19.0036 4.33435C19.694 4.33435 20.2536 4.89399 20.2536 5.58435V19.5919C20.2536 20.2822 19.694 20.8419 19.0036 20.8419H4.9961C4.30574 20.8419 3.7461 20.2822 3.7461 19.5919V5.58435C3.7461 4.89399 4.30574 4.33435 4.9961 4.33435H19.0036Z" fill="white"/>
<path fill-rule="evenodd" clip-rule="evenodd" d="M2.24609 9.58685C2.24609 10.0011 2.58188 10.3369 2.99609 10.3369H21.0036C21.4178 10.3369 21.7536 10.0011 21.7536 9.58685C21.7536 9.17264 21.4178 8.83685 21.0036 8.83685H2.99609C2.58188 8.83685 2.24609 9.17264 2.24609 9.58685Z" fill="white"/>
<path fill-rule="evenodd" clip-rule="evenodd" d="M2.24609 15.5894C2.24609 16.0036 2.58188 16.3394 2.99609 16.3394H21.0036C21.4178 16.3394 21.7536 16.0036 21.7536 15.5894C21.7536 15.1751 21.4178 14.8394 21.0036 14.8394H2.99609C2.58188 14.8394 2.24609 15.1751 2.24609 15.5894Z" fill="white"/>
<path fill-rule="evenodd" clip-rule="evenodd" d="M11.9998 22.3419C12.4141 22.3419 12.7498 22.0061 12.7498 21.5919V9.58685C12.7498 9.17264 12.4141 8.83685 11.9998 8.83685C11.5856 8.83685 11.2498 9.17264 11.2498 9.58685V21.5919C11.2498 22.0061 11.5856 22.3419 11.9998 22.3419Z" fill="white"/>
</svg>
