<svg width="24" height="25" viewBox="0 0 24 25" fill="none" xmlns="http://www.w3.org/2000/svg">
<path fill-rule="evenodd" clip-rule="evenodd" d="M21.7536 5.19238C21.7536 3.6736 20.5224 2.44238 19.0036 2.44238H4.9961C3.47731 2.44238 2.2461 3.6736 2.2461 5.19238V19.1999C2.2461 20.7187 3.47731 21.9499 4.9961 21.9499H19.0036C20.5224 21.9499 21.7536 20.7187 21.7536 19.1999V5.19238ZM19.0036 3.94238C19.694 3.94238 20.2536 4.50203 20.2536 5.19238V19.1999C20.2536 19.8902 19.694 20.4499 19.0036 20.4499H4.9961C4.30574 20.4499 3.7461 19.8902 3.7461 19.1999V5.19238C3.7461 4.50203 4.30574 3.94238 4.9961 3.94238H19.0036Z" fill="url(#paint0_linear_3122_27194)"/>
<path fill-rule="evenodd" clip-rule="evenodd" d="M2.24609 9.19488C2.24609 9.6091 2.58188 9.94488 2.99609 9.94488H21.0036C21.4178 9.94488 21.7536 9.6091 21.7536 9.19488C21.7536 8.78067 21.4178 8.44488 21.0036 8.44488H2.99609C2.58188 8.44488 2.24609 8.78067 2.24609 9.19488Z" fill="url(#paint1_linear_3122_27194)"/>
<path fill-rule="evenodd" clip-rule="evenodd" d="M2.24609 15.1974C2.24609 15.6116 2.58188 15.9474 2.99609 15.9474H21.0036C21.4178 15.9474 21.7536 15.6116 21.7536 15.1974C21.7536 14.7832 21.4178 14.4474 21.0036 14.4474H2.99609C2.58188 14.4474 2.24609 14.7832 2.24609 15.1974Z" fill="url(#paint2_linear_3122_27194)"/>
<path fill-rule="evenodd" clip-rule="evenodd" d="M11.9998 21.9499C12.4141 21.9499 12.7498 21.6141 12.7498 21.1999V9.19488C12.7498 8.78067 12.4141 8.44488 11.9998 8.44488C11.5856 8.44488 11.2498 8.78067 11.2498 9.19488V21.1999C11.2498 21.6141 11.5856 21.9499 11.9998 21.9499Z" fill="url(#paint3_linear_3122_27194)"/>
<defs>
<linearGradient id="paint0_linear_3122_27194" x1="2.24609" y1="21.95" x2="21.7536" y2="21.95" gradientUnits="userSpaceOnUse">
<stop stop-color="#22BB00"/>
<stop offset="1" stop-color="#66BB00"/>
</linearGradient>
<linearGradient id="paint1_linear_3122_27194" x1="2.24609" y1="21.95" x2="21.7536" y2="21.95" gradientUnits="userSpaceOnUse">
<stop stop-color="#22BB00"/>
<stop offset="1" stop-color="#66BB00"/>
</linearGradient>
<linearGradient id="paint2_linear_3122_27194" x1="2.24609" y1="21.95" x2="21.7536" y2="21.95" gradientUnits="userSpaceOnUse">
<stop stop-color="#22BB00"/>
<stop offset="1" stop-color="#66BB00"/>
</linearGradient>
<linearGradient id="paint3_linear_3122_27194" x1="2.24609" y1="21.95" x2="21.7536" y2="21.95" gradientUnits="userSpaceOnUse">
<stop stop-color="#22BB00"/>
<stop offset="1" stop-color="#66BB00"/>
</linearGradient>
</defs>
</svg>
