<svg width="24" height="24" viewBox="0 0 24 24" fill="none" xmlns="http://www.w3.org/2000/svg">
<path fill-rule="evenodd" clip-rule="evenodd" d="M5 3.75C4.30921 3.75 3.75 4.30921 3.75 5V6.25H6.25V3.75H5ZM3.75 12.75V16.25H6.25V12.75H3.75ZM2.25 12V7V5C2.25 3.48079 3.48079 2.25 5 2.25H7H17H19C20.5192 2.25 21.75 3.48079 21.75 5V7V12V17V19C21.75 20.5192 20.5192 21.75 19 21.75H17H7H5C3.48079 21.75 2.25 20.5192 2.25 19V17V12ZM3.75 11.25H6.25V7.75H3.75V11.25ZM7.75 12.75V17V20.25H16.25V17V12.75H7.75ZM16.25 11.25H7.75V7V3.75H16.25V7V11.25ZM17.75 12.75V16.25H20.25V12.75H17.75ZM20.25 11.25H17.75V7.75H20.25V11.25ZM20.25 5V6.25H17.75V3.75H19C19.6908 3.75 20.25 4.30921 20.25 5ZM20.25 17.75V19C20.25 19.6908 19.6908 20.25 19 20.25H17.75V17.75H20.25ZM5 20.25H6.25V17.75H3.75V19C3.75 19.6908 4.30921 20.25 5 20.25Z" fill="url(#paint0_linear_3122_26980)"/>
<defs>
<linearGradient id="paint0_linear_3122_26980" x1="2.25" y1="21.7501" x2="21.75" y2="21.7501" gradientUnits="userSpaceOnUse">
<stop stop-color="#22BB00"/>
<stop offset="1" stop-color="#66BB00"/>
</linearGradient>
</defs>
</svg>
