<svg width="24" height="25" viewBox="0 0 24 25" fill="none" xmlns="http://www.w3.org/2000/svg">
<path fill-rule="evenodd" clip-rule="evenodd" d="M5 4.33807C4.30921 4.33807 3.75 4.89729 3.75 5.58807V6.83807H6.25V4.33807H5ZM3.75 13.3381V16.8381H6.25V13.3381H3.75ZM2.25 12.5881V7.58807V5.58807C2.25 4.06886 3.48079 2.83807 5 2.83807H7H17H19C20.5192 2.83807 21.75 4.06886 21.75 5.58807V7.58807V12.5881V17.5881V19.5881C21.75 21.1073 20.5192 22.3381 19 22.3381H17H7H5C3.48079 22.3381 2.25 21.1073 2.25 19.5881V17.5881V12.5881ZM3.75 11.8381H6.25V8.33807H3.75V11.8381ZM7.75 13.3381V17.5881V20.8381H16.25V17.5881V13.3381H7.75ZM16.25 11.8381H7.75V7.58807V4.33807H16.25V7.58807V11.8381ZM17.75 13.3381V16.8381H20.25V13.3381H17.75ZM20.25 11.8381H17.75V8.33807H20.25V11.8381ZM20.25 5.58807V6.83807H17.75V4.33807H19C19.6908 4.33807 20.25 4.89729 20.25 5.58807ZM20.25 18.3381V19.5881C20.25 20.2789 19.6908 20.8381 19 20.8381H17.75V18.3381H20.25ZM5 20.8381H6.25V18.3381H3.75V19.5881C3.75 20.2789 4.30921 20.8381 5 20.8381Z" fill="white"/>
</svg>
