<svg width="24" height="25" fill="none" xmlns="http://www.w3.org/2000/svg"><path fill-rule="evenodd" clip-rule="evenodd" d="M2.246 3.584a.75.75 0 01.75-.75h18.008a.75.75 0 010 1.5H2.996a.75.75 0 01-.75-.75zm5.002 4.002c0-.967.784-1.75 1.75-1.75h6.004c.966 0 1.75.783 1.75 1.75v2.001a1.75 1.75 0 01-1.75 1.75H8.998a1.75 1.75 0 01-1.75-1.75V7.586zm1.75-.25a.25.25 0 00-.25.25v2.001c0 .138.112.25.25.25h6.004a.25.25 0 00.25-.25V7.586a.25.25 0 00-.25-.25H8.998zm-6.752 7.253a.75.75 0 01.75-.75h18.008a.75.75 0 010 1.5H2.996a.75.75 0 01-.75-.75zm2 4.001c0-.966.784-1.75 1.75-1.75h12.007c.966 0 1.75.784 1.75 1.75v2.002a1.75 1.75 0 01-1.75 1.75H5.997a1.75 1.75 0 01-1.75-1.75V18.59zm1.75-.25a.25.25 0 00-.25.25v2.002c0 .138.113.25.25.25h12.007a.25.25 0 00.25-.25V18.59a.25.25 0 00-.25-.25H5.997z" fill="#fff"/></svg>