<svg width="24" height="24" fill="none" xmlns="http://www.w3.org/2000/svg"><path fill-rule="evenodd" clip-rule="evenodd" d="M2.246 3.996c0-.966.784-1.75 1.75-1.75H9c.967 0 1.75.784 1.75 1.75V9A1.75 1.75 0 019 10.75H3.996A1.75 1.75 0 012.246 9V3.996zm1.75-.25a.25.25 0 00-.25.25V9c0 .138.112.25.25.25H9A.25.25 0 009.25 9V3.996a.25.25 0 00-.25-.25H3.996z" fill="url(#paint0_linear_3122_28167)"/><path fill-rule="evenodd" clip-rule="evenodd" d="M13.25 3.996c0-.966.784-1.75 1.75-1.75h5.004c.966 0 1.75.784 1.75 1.75V9a1.75 1.75 0 01-1.75 1.75H15A1.75 1.75 0 0113.25 9V3.996zm1.75-.25a.25.25 0 00-.25.25V9c0 .138.113.25.25.25h5.004a.25.25 0 00.25-.25V3.996a.25.25 0 00-.25-.25H15z" fill="url(#paint1_linear_3122_28167)"/><path fill-rule="evenodd" clip-rule="evenodd" d="M2.246 15c0-.966.784-1.75 1.75-1.75H9c.967 0 1.75.784 1.75 1.75v5.004A1.75 1.75 0 019 21.754H3.996a1.75 1.75 0 01-1.75-1.75V15zm1.75-.25a.25.25 0 00-.25.25v5.004c0 .138.112.25.25.25H9a.25.25 0 00.25-.25V15a.25.25 0 00-.25-.25H3.996z" fill="url(#paint2_linear_3122_28167)"/><path fill-rule="evenodd" clip-rule="evenodd" d="M13.25 15c0-.966.784-1.75 1.75-1.75h5.004c.966 0 1.75.784 1.75 1.75v5.004a1.75 1.75 0 01-1.75 1.75H15a1.75 1.75 0 01-1.75-1.75V15zm1.75-.25a.25.25 0 00-.25.25v5.004c0 .138.113.25.25.25h5.004a.25.25 0 00.25-.25V15a.25.25 0 00-.25-.25H15z" fill="url(#paint3_linear_3122_28167)"/><defs><linearGradient id="paint0_linear_3122_28167" x1="2.246" y1="21.754" x2="21.754" y2="21.754" gradientUnits="userSpaceOnUse"><stop stop-color="#2B0"/><stop offset="1" stop-color="#6B0"/></linearGradient><linearGradient id="paint1_linear_3122_28167" x1="2.246" y1="21.754" x2="21.754" y2="21.754" gradientUnits="userSpaceOnUse"><stop stop-color="#2B0"/><stop offset="1" stop-color="#6B0"/></linearGradient><linearGradient id="paint2_linear_3122_28167" x1="2.246" y1="21.754" x2="21.754" y2="21.754" gradientUnits="userSpaceOnUse"><stop stop-color="#2B0"/><stop offset="1" stop-color="#6B0"/></linearGradient><linearGradient id="paint3_linear_3122_28167" x1="2.246" y1="21.754" x2="21.754" y2="21.754" gradientUnits="userSpaceOnUse"><stop stop-color="#2B0"/><stop offset="1" stop-color="#6B0"/></linearGradient></defs></svg>