<svg width="25" height="25" fill="none" xmlns="http://www.w3.org/2000/svg"><path fill-rule="evenodd" clip-rule="evenodd" d="M2.746 4.584c0-.966.784-1.75 1.75-1.75H9.5c.966 0 1.75.784 1.75 1.75v5.003a1.75 1.75 0 01-1.75 1.75H4.496a1.75 1.75 0 01-1.75-1.75V4.584zm1.75-.25a.25.25 0 00-.25.25v5.003c0 .138.112.25.25.25H9.5a.25.25 0 00.25-.25V4.584a.25.25 0 00-.25-.25H4.496zm9.254.25c0-.966.784-1.75 1.75-1.75h5.004c.966 0 1.75.784 1.75 1.75v5.003a1.75 1.75 0 01-1.75 1.75H15.5a1.75 1.75 0 01-1.75-1.75V4.584zm1.75-.25a.25.25 0 00-.25.25v5.003c0 .138.113.25.25.25h5.004a.25.25 0 00.25-.25V4.584a.25.25 0 00-.25-.25H15.5zM2.746 15.589c0-.967.784-1.75 1.75-1.75H9.5c.966 0 1.75.783 1.75 1.75v5.003a1.75 1.75 0 01-1.75 1.75H4.496a1.75 1.75 0 01-1.75-1.75v-5.003zm1.75-.25a.25.25 0 00-.25.25v5.003c0 .138.112.25.25.25H9.5a.25.25 0 00.25-.25v-5.003a.25.25 0 00-.25-.25H4.496zm9.254.25c0-.967.784-1.75 1.75-1.75h5.004c.966 0 1.75.783 1.75 1.75v5.003a1.75 1.75 0 01-1.75 1.75H15.5a1.75 1.75 0 01-1.75-1.75v-5.003zm1.75-.25a.25.25 0 00-.25.25v5.003c0 .138.113.25.25.25h5.004a.25.25 0 00.25-.25v-5.003a.25.25 0 00-.25-.25H15.5z" fill="#fff"/></svg>