<svg width="24" height="24" fill="none" xmlns="http://www.w3.org/2000/svg"><path fill-rule="evenodd" clip-rule="evenodd" d="M3.247 4.997c0-.967.784-1.75 1.75-1.75h14.007c.966 0 1.75.783 1.75 1.75v2.001a1.75 1.75 0 01-1.75 1.75H4.997a1.75 1.75 0 01-1.75-1.75V4.997zm1.75-.25a.25.25 0 00-.25.25v2.001c0 .138.112.25.25.25h14.007a.25.25 0 00.25-.25V4.997a.25.25 0 00-.25-.25H4.997zM3.247 12a.75.75 0 01.75-.75h12.005a.75.75 0 010 1.5H3.997a.75.75 0 01-.75-.75zm0 4.002a.75.75 0 01.75-.75h15.006a.75.75 0 010 1.5H3.997a.75.75 0 01-.75-.75zm0 4.001a.75.75 0 01.75-.75H11a.75.75 0 010 1.5H3.997a.75.75 0 01-.75-.75z" fill="url(#paint0_linear_3122_27875)"/><defs><linearGradient id="paint0_linear_3122_27875" x1="3.247" y1="20.753" x2="20.754" y2="20.753" gradientUnits="userSpaceOnUse"><stop stop-color="#2B0"/><stop offset="1" stop-color="#6B0"/></linearGradient></defs></svg>