<svg width="25" height="25" fill="none" xmlns="http://www.w3.org/2000/svg"><path fill-rule="evenodd" clip-rule="evenodd" d="M3.747 5.585c0-.967.783-1.75 1.75-1.75h14.006c.967 0 1.75.783 1.75 1.75v2.001a1.75 1.75 0 01-1.75 1.75H5.497a1.75 1.75 0 01-1.75-1.75V5.585zm1.75-.25a.25.25 0 00-.25.25v2.001c0 .138.112.25.25.25h14.006a.25.25 0 00.25-.25V5.585a.25.25 0 00-.25-.25H5.497zm-1.75 7.253a.75.75 0 01.75-.75h12.005a.75.75 0 010 1.5H4.497a.75.75 0 01-.75-.75zm0 4.002a.75.75 0 01.75-.75h15.006a.75.75 0 010 1.5H4.497a.75.75 0 01-.75-.75zm0 4.001a.75.75 0 01.75-.75h7.002a.75.75 0 010 1.5H4.497a.75.75 0 01-.75-.75z" fill="#fff"/></svg>