<svg width="24" height="25" fill="none" xmlns="http://www.w3.org/2000/svg"><path fill-rule="evenodd" clip-rule="evenodd" d="M6.5 5.446a1.75 1.75 0 100 3.5 1.75 1.75 0 000-3.5zm-3.25 1.75a3.25 3.25 0 116.5 0 3.25 3.25 0 01-6.5 0z" fill="url(#paint0_linear_3122_27531)"/><path fill-rule="evenodd" clip-rule="evenodd" d="M12.25 4.696a.75.75 0 01.75-.75h7a.75.75 0 010 1.5h-7a.75.75 0 01-.75-.75z" fill="url(#paint1_linear_3122_27531)"/><path fill-rule="evenodd" clip-rule="evenodd" d="M12.25 9.696a.75.75 0 01.75-.75h7a.75.75 0 010 1.5h-7a.75.75 0 01-.75-.75z" fill="url(#paint2_linear_3122_27531)"/><path fill-rule="evenodd" clip-rule="evenodd" d="M3.25 14.696a.75.75 0 01.75-.75h16a.75.75 0 010 1.5H4a.75.75 0 01-.75-.75z" fill="url(#paint3_linear_3122_27531)"/><path fill-rule="evenodd" clip-rule="evenodd" d="M3.25 19.696a.75.75 0 01.75-.75h16a.75.75 0 010 1.5H4a.75.75 0 01-.75-.75z" fill="url(#paint4_linear_3122_27531)"/><defs><linearGradient id="paint0_linear_3122_27531" x1="3.25" y1="20.446" x2="20.75" y2="20.446" gradientUnits="userSpaceOnUse"><stop stop-color="#2B0"/><stop offset="1" stop-color="#6B0"/></linearGradient><linearGradient id="paint1_linear_3122_27531" x1="3.25" y1="20.446" x2="20.75" y2="20.446" gradientUnits="userSpaceOnUse"><stop stop-color="#2B0"/><stop offset="1" stop-color="#6B0"/></linearGradient><linearGradient id="paint2_linear_3122_27531" x1="3.25" y1="20.446" x2="20.75" y2="20.446" gradientUnits="userSpaceOnUse"><stop stop-color="#2B0"/><stop offset="1" stop-color="#6B0"/></linearGradient><linearGradient id="paint3_linear_3122_27531" x1="3.25" y1="20.446" x2="20.75" y2="20.446" gradientUnits="userSpaceOnUse"><stop stop-color="#2B0"/><stop offset="1" stop-color="#6B0"/></linearGradient><linearGradient id="paint4_linear_3122_27531" x1="3.25" y1="20.446" x2="20.75" y2="20.446" gradientUnits="userSpaceOnUse"><stop stop-color="#2B0"/><stop offset="1" stop-color="#6B0"/></linearGradient></defs></svg>