<svg width="24" height="25" fill="none" xmlns="http://www.w3.org/2000/svg"><path fill-rule="evenodd" clip-rule="evenodd" d="M6.5 5.838a1.75 1.75 0 100 3.5 1.75 1.75 0 000-3.5zm-3.25 1.75a3.25 3.25 0 116.5 0 3.25 3.25 0 01-6.5 0zm9-2.5a.75.75 0 01.75-.75h7a.75.75 0 010 1.5h-7a.75.75 0 01-.75-.75zm0 5a.75.75 0 01.75-.75h7a.75.75 0 010 1.5h-7a.75.75 0 01-.75-.75zm-9 5a.75.75 0 01.75-.75h16a.75.75 0 010 1.5H4a.75.75 0 01-.75-.75zm0 5a.75.75 0 01.75-.75h16a.75.75 0 010 1.5H4a.75.75 0 01-.75-.75z" fill="#fff"/></svg>