<svg width="24" height="24" fill="none" xmlns="http://www.w3.org/2000/svg"><path fill-rule="evenodd" clip-rule="evenodd" d="M4.003 3.75c-.69 0-1.25.56-1.25 1.25v14c0 .58.394 1.068.93 1.209l4.113-4.936a1.75 1.75 0 012.437-.247l1.868 1.495a.25.25 0 00.352-.039l3.337-4.17a1.75 1.75 0 012.46-.272l2.997 2.397V5c0-.69-.56-1.25-1.25-1.25H4.003zm.002 18h-.014A2.75 2.75 0 011.253 19V5a2.75 2.75 0 012.75-2.75h15.994A2.75 2.75 0 0122.747 5v10.932a.745.745 0 010 .137V19a2.75 2.75 0 01-2.75 2.75H4.005zM21.247 19v-2.642l-3.934-3.147a.25.25 0 00-.352.038l-3.336 4.17a1.751 1.751 0 01-2.46.274l-1.868-1.495a.25.25 0 00-.349.035L5.601 20.25h14.396c.69 0 1.25-.56 1.25-1.25zM7.117 8.116a1.25 1.25 0 111.767 1.768 1.25 1.25 0 01-1.768-1.768zm-1.062-1.06a2.75 2.75 0 113.89 3.889 2.75 2.75 0 01-3.89-3.89z" fill="url(#paint0_linear_2636_23417)"/><defs><linearGradient id="paint0_linear_2636_23417" x1="1.253" y1="21.75" x2="22.75" y2="21.75" gradientUnits="userSpaceOnUse"><stop stop-color="#2B0"/><stop offset="1" stop-color="#6B0"/></linearGradient></defs></svg>