<svg width="25" height="25" fill="none" xmlns="http://www.w3.org/2000/svg"><path fill-rule="evenodd" clip-rule="evenodd" d="M4.503 4.338c-.69 0-1.25.56-1.25 1.25v14c0 .58.394 1.068.93 1.209l4.113-4.936a1.75 1.75 0 012.438-.247L12.6 17.11a.25.25 0 00.352-.039l3.337-4.17a1.75 1.75 0 012.46-.272l2.997 2.397V5.588c0-.69-.56-1.25-1.25-1.25H4.503zm.002 18h-.014a2.75 2.75 0 01-2.738-2.75v-14a2.75 2.75 0 012.75-2.75h15.994a2.75 2.75 0 012.75 2.75V16.52a.745.745 0 010 .137v2.931a2.75 2.75 0 01-2.75 2.75H4.505zm17.242-2.75v-2.642L17.813 13.8a.25.25 0 00-.352.039l-3.336 4.17a1.75 1.75 0 01-2.46.273l-1.868-1.495a.25.25 0 00-.349.035l-3.347 4.017h14.396c.69 0 1.25-.56 1.25-1.25zM7.617 8.704a1.25 1.25 0 111.767 1.768 1.25 1.25 0 01-1.768-1.768zm-1.062-1.06a2.75 2.75 0 113.89 3.89 2.75 2.75 0 01-3.89-3.89z" fill="#fff"/></svg>