<svg width="24" height="25" fill="none" xmlns="http://www.w3.org/2000/svg"><path fill-rule="evenodd" clip-rule="evenodd" d="M2.583 20.321a.75.75 0 01.75-.75h17.334a.75.75 0 010 1.5H3.333a.75.75 0 01-.75-.75z" fill="url(#paint0_linear_3122_27473)"/><path fill-rule="evenodd" clip-rule="evenodd" d="M2.583 14.904a.75.75 0 01.75-.75h17.334a.75.75 0 010 1.5H3.333a.75.75 0 01-.75-.75z" fill="url(#paint1_linear_3122_27473)"/><path fill-rule="evenodd" clip-rule="evenodd" d="M15.584 9.488a.75.75 0 01.75-.75h4.333a.75.75 0 010 1.5h-4.333a.75.75 0 01-.75-.75z" fill="url(#paint2_linear_3122_27473)"/><path fill-rule="evenodd" clip-rule="evenodd" d="M6.53 3.166a.75.75 0 010 1.06l-2.47 2.47 2.47 2.47a.75.75 0 11-1.06 1.06l-3-3a.75.75 0 010-1.06l3-3a.75.75 0 011.06 0z" fill="url(#paint3_linear_3122_27473)"/><path fill-rule="evenodd" clip-rule="evenodd" d="M11.53 3.166a.75.75 0 010 1.06l-2.47 2.47 2.47 2.47a.75.75 0 11-1.06 1.06l-3-3a.75.75 0 010-1.06l3-3a.75.75 0 011.06 0z" fill="url(#paint4_linear_3122_27473)"/><path fill-rule="evenodd" clip-rule="evenodd" d="M15.584 4.071a.75.75 0 01.75-.75h4.333a.75.75 0 010 1.5h-4.333a.75.75 0 01-.75-.75z" fill="url(#paint5_linear_3122_27473)"/><defs><linearGradient id="paint0_linear_3122_27473" x1="2.25" y1="21.071" x2="21.417" y2="21.071" gradientUnits="userSpaceOnUse"><stop stop-color="#2B0"/><stop offset="1" stop-color="#6B0"/></linearGradient><linearGradient id="paint1_linear_3122_27473" x1="2.25" y1="21.071" x2="21.417" y2="21.071" gradientUnits="userSpaceOnUse"><stop stop-color="#2B0"/><stop offset="1" stop-color="#6B0"/></linearGradient><linearGradient id="paint2_linear_3122_27473" x1="2.25" y1="21.071" x2="21.417" y2="21.071" gradientUnits="userSpaceOnUse"><stop stop-color="#2B0"/><stop offset="1" stop-color="#6B0"/></linearGradient><linearGradient id="paint3_linear_3122_27473" x1="2.25" y1="21.071" x2="21.417" y2="21.071" gradientUnits="userSpaceOnUse"><stop stop-color="#2B0"/><stop offset="1" stop-color="#6B0"/></linearGradient><linearGradient id="paint4_linear_3122_27473" x1="2.25" y1="21.071" x2="21.417" y2="21.071" gradientUnits="userSpaceOnUse"><stop stop-color="#2B0"/><stop offset="1" stop-color="#6B0"/></linearGradient><linearGradient id="paint5_linear_3122_27473" x1="2.25" y1="21.071" x2="21.417" y2="21.071" gradientUnits="userSpaceOnUse"><stop stop-color="#2B0"/><stop offset="1" stop-color="#6B0"/></linearGradient></defs></svg>