<svg width="24" height="25" fill="none" xmlns="http://www.w3.org/2000/svg"><path fill-rule="evenodd" clip-rule="evenodd" d="M2.583 20.713a.75.75 0 01.75-.75h17.334a.75.75 0 010 1.5H3.333a.75.75 0 01-.75-.75zm0-5.417a.75.75 0 01.75-.75h17.334a.75.75 0 010 1.5H3.333a.75.75 0 01-.75-.75zM15.584 9.88a.75.75 0 01.75-.75h4.333a.75.75 0 010 1.5h-4.333a.75.75 0 01-.75-.75zM6.53 3.558a.75.75 0 010 1.06l-2.47 2.47 2.47 2.47a.75.75 0 01-1.06 1.06l-3-3a.75.75 0 010-1.06l3-3a.75.75 0 011.06 0zm5 0a.75.75 0 010 1.06l-2.47 2.47 2.47 2.47a.75.75 0 01-1.06 1.06l-3-3a.75.75 0 010-1.06l3-3a.75.75 0 011.06 0zm4.054.905a.75.75 0 01.75-.75h4.333a.75.75 0 010 1.5h-4.333a.75.75 0 01-.75-.75z" fill="#fff"/></svg>