<svg width="24" height="25" fill="none" xmlns="http://www.w3.org/2000/svg"><path fill-rule="evenodd" clip-rule="evenodd" d="M21.754 5.192a2.75 2.75 0 00-2.75-2.75H4.996a2.75 2.75 0 00-2.75 2.75V19.2a2.75 2.75 0 002.75 2.75h14.008a2.75 2.75 0 002.75-2.75V5.192zm-2.75-1.25c.69 0 1.25.56 1.25 1.25V19.2c0 .69-.56 1.25-1.25 1.25H4.996c-.69 0-1.25-.56-1.25-1.25V5.192c0-.69.56-1.25 1.25-1.25h14.008z" fill="url(#paint0_linear_3122_27194)"/><path fill-rule="evenodd" clip-rule="evenodd" d="M2.246 9.195c0 .414.336.75.75.75h18.008a.75.75 0 000-1.5H2.996a.75.75 0 00-.75.75z" fill="url(#paint1_linear_3122_27194)"/><path fill-rule="evenodd" clip-rule="evenodd" d="M2.246 15.197c0 .415.336.75.75.75h18.008a.75.75 0 000-1.5H2.996a.75.75 0 00-.75.75z" fill="url(#paint2_linear_3122_27194)"/><path fill-rule="evenodd" clip-rule="evenodd" d="M12 21.95a.75.75 0 00.75-.75V9.195a.75.75 0 10-1.5 0V21.2c0 .414.336.75.75.75z" fill="url(#paint3_linear_3122_27194)"/><defs><linearGradient id="paint0_linear_3122_27194" x1="2.246" y1="21.95" x2="21.754" y2="21.95" gradientUnits="userSpaceOnUse"><stop stop-color="#2B0"/><stop offset="1" stop-color="#6B0"/></linearGradient><linearGradient id="paint1_linear_3122_27194" x1="2.246" y1="21.95" x2="21.754" y2="21.95" gradientUnits="userSpaceOnUse"><stop stop-color="#2B0"/><stop offset="1" stop-color="#6B0"/></linearGradient><linearGradient id="paint2_linear_3122_27194" x1="2.246" y1="21.95" x2="21.754" y2="21.95" gradientUnits="userSpaceOnUse"><stop stop-color="#2B0"/><stop offset="1" stop-color="#6B0"/></linearGradient><linearGradient id="paint3_linear_3122_27194" x1="2.246" y1="21.95" x2="21.754" y2="21.95" gradientUnits="userSpaceOnUse"><stop stop-color="#2B0"/><stop offset="1" stop-color="#6B0"/></linearGradient></defs></svg>