<svg width="24" height="25" fill="none" xmlns="http://www.w3.org/2000/svg"><path fill-rule="evenodd" clip-rule="evenodd" d="M21.754 5.584a2.75 2.75 0 00-2.75-2.75H4.996a2.75 2.75 0 00-2.75 2.75v14.008a2.75 2.75 0 002.75 2.75h14.008a2.75 2.75 0 002.75-2.75V5.584zm-2.75-1.25c.69 0 1.25.56 1.25 1.25v14.008c0 .69-.56 1.25-1.25 1.25H4.996c-.69 0-1.25-.56-1.25-1.25V5.584c0-.69.56-1.25 1.25-1.25h14.008z" fill="#fff"/><path fill-rule="evenodd" clip-rule="evenodd" d="M2.246 9.587c0 .414.336.75.75.75h18.008a.75.75 0 000-1.5H2.996a.75.75 0 00-.75.75zm0 6.003c0 .414.336.75.75.75h18.008a.75.75 0 000-1.5H2.996a.75.75 0 00-.75.75z" fill="#fff"/><path fill-rule="evenodd" clip-rule="evenodd" d="M12 22.342a.75.75 0 00.75-.75V9.587a.75.75 0 10-1.5 0v12.005c0 .414.336.75.75.75z" fill="#fff"/></svg>