<svg width="25" height="25" fill="none" xmlns="http://www.w3.org/2000/svg"><path fill-rule="evenodd" clip-rule="evenodd" d="M3.747 4.585a.75.75 0 01.75-.75h16.006a.75.75 0 110 1.5H4.497a.75.75 0 01-.75-.75zm0 4.001a.75.75 0 01.75-.75h16.006a.75.75 0 110 1.5H4.497a.75.75 0 01-.75-.75zm0 4.002a.75.75 0 01.75-.75h16.006a.75.75 0 110 1.5H4.497a.75.75 0 01-.75-.75zm0 4.002a.75.75 0 01.75-.75h16.006a.75.75 0 110 1.5H4.497a.75.75 0 01-.75-.75zm0 4.001a.75.75 0 01.75-.75H12.5a.75.75 0 010 1.5H4.497a.75.75 0 01-.75-.75z" fill="#fff"/></svg>