<svg width="24" height="24" fill="none" xmlns="http://www.w3.org/2000/svg"><path fill-rule="evenodd" clip-rule="evenodd" d="M3.247 3.997a.75.75 0 01.75-.75h16.007a.75.75 0 010 1.5H3.997a.75.75 0 01-.75-.75z" fill="url(#paint0_linear_3122_25710)"/><path fill-rule="evenodd" clip-rule="evenodd" d="M3.247 7.998a.75.75 0 01.75-.75h16.007a.75.75 0 010 1.5H3.997a.75.75 0 01-.75-.75z" fill="url(#paint1_linear_3122_25710)"/><path fill-rule="evenodd" clip-rule="evenodd" d="M3.247 12a.75.75 0 01.75-.75h16.007a.75.75 0 010 1.5H3.997a.75.75 0 01-.75-.75z" fill="url(#paint2_linear_3122_25710)"/><path fill-rule="evenodd" clip-rule="evenodd" d="M3.247 16.002a.75.75 0 01.75-.75h16.007a.75.75 0 010 1.5H3.997a.75.75 0 01-.75-.75z" fill="url(#paint3_linear_3122_25710)"/><path fill-rule="evenodd" clip-rule="evenodd" d="M3.247 20.003a.75.75 0 01.75-.75H12a.75.75 0 010 1.5H3.997a.75.75 0 01-.75-.75z" fill="url(#paint4_linear_3122_25710)"/><defs><linearGradient id="paint0_linear_3122_25710" x1="3.247" y1="20.753" x2="20.754" y2="20.753" gradientUnits="userSpaceOnUse"><stop stop-color="#2B0"/><stop offset="1" stop-color="#6B0"/></linearGradient><linearGradient id="paint1_linear_3122_25710" x1="3.247" y1="20.753" x2="20.754" y2="20.753" gradientUnits="userSpaceOnUse"><stop stop-color="#2B0"/><stop offset="1" stop-color="#6B0"/></linearGradient><linearGradient id="paint2_linear_3122_25710" x1="3.247" y1="20.753" x2="20.754" y2="20.753" gradientUnits="userSpaceOnUse"><stop stop-color="#2B0"/><stop offset="1" stop-color="#6B0"/></linearGradient><linearGradient id="paint3_linear_3122_25710" x1="3.247" y1="20.753" x2="20.754" y2="20.753" gradientUnits="userSpaceOnUse"><stop stop-color="#2B0"/><stop offset="1" stop-color="#6B0"/></linearGradient><linearGradient id="paint4_linear_3122_25710" x1="3.247" y1="20.753" x2="20.754" y2="20.753" gradientUnits="userSpaceOnUse"><stop stop-color="#2B0"/><stop offset="1" stop-color="#6B0"/></linearGradient></defs></svg>