<svg width="24" height="24" fill="none" xmlns="http://www.w3.org/2000/svg"><path fill-rule="evenodd" clip-rule="evenodd" d="M5 3.75c-.69 0-1.25.56-1.25 1.25v1.25h2.5v-2.5H5zm-1.25 9v3.5h2.5v-3.5h-2.5zM2.25 12V5A2.75 2.75 0 015 2.25h14A2.75 2.75 0 0121.75 5v14A2.75 2.75 0 0119 21.75H5A2.75 2.75 0 012.25 19v-7zm1.5-.75h2.5v-3.5h-2.5v3.5zm4 1.5v7.5h8.5v-7.5h-8.5zm8.5-1.5h-8.5v-7.5h8.5v7.5zm1.5 1.5v3.5h2.5v-3.5h-2.5zm2.5-1.5h-2.5v-3.5h2.5v3.5zm0-6.25v1.25h-2.5v-2.5H19c.69 0 1.25.56 1.25 1.25zm0 12.75V19c0 .69-.56 1.25-1.25 1.25h-1.25v-2.5h2.5zM5 20.25h1.25v-2.5h-2.5V19c0 .69.56 1.25 1.25 1.25z" fill="url(#paint0_linear_3122_26980)"/><defs><linearGradient id="paint0_linear_3122_26980" x1="2.25" y1="21.75" x2="21.75" y2="21.75" gradientUnits="userSpaceOnUse"><stop stop-color="#2B0"/><stop offset="1" stop-color="#6B0"/></linearGradient></defs></svg>