<svg width="24" height="25" fill="none" xmlns="http://www.w3.org/2000/svg"><path fill-rule="evenodd" clip-rule="evenodd" d="M5 4.338c-.69 0-1.25.56-1.25 1.25v1.25h2.5v-2.5H5zm-1.25 9v3.5h2.5v-3.5h-2.5zm-1.5-.75v-7A2.75 2.75 0 015 2.838h14a2.75 2.75 0 012.75 2.75v14a2.75 2.75 0 01-2.75 2.75H5a2.75 2.75 0 01-2.75-2.75v-7zm1.5-.75h2.5v-3.5h-2.5v3.5zm4 1.5v7.5h8.5v-7.5h-8.5zm8.5-1.5h-8.5v-7.5h8.5v7.5zm1.5 1.5v3.5h2.5v-3.5h-2.5zm2.5-1.5h-2.5v-3.5h2.5v3.5zm0-6.25v1.25h-2.5v-2.5H19c.69 0 1.25.56 1.25 1.25zm0 12.75v1.25c0 .69-.56 1.25-1.25 1.25h-1.25v-2.5h2.5zM5 20.838h1.25v-2.5h-2.5v1.25c0 .69.56 1.25 1.25 1.25z" fill="#fff"/></svg>