<svg xmlns="http://www.w3.org/2000/svg" viewBox="0 0 263.633 163" class="iconAbove"><path d="M23.51 103.184q9.98 0 13.347 6.428 2.327 4.837 2.327 9.49h-.062q-6.857.612-9.367.612 0-3.306-2.02-5.571-1.898-1.102-3.551-1.102H22.53q-4.286 0-5.204 3.306-.245.98-.245 1.47v.918q0 4.653 4.959 6.796.428.367 6.857 3.122 3.429 1.592 6.367 3.918v.062h-10.53v1.224h13.898v1.653h1.714v18.184h-3.429V163h-26.57v-9.306H4.04v-6.306h3.55v-2.143H4.04v-1.47h12.183v9.919h12.49v-14.939h-9.367v-4.898H7.776v-1.224h5.57v-.062Q6 127.673 6 118.735v-.796q0-7.53 4.592-11.388 4.224-3.367 12.918-3.367zm15.123 30.673v-1.224h4.224v1.224h-4.224zM0 147.387v-2.142h4.04v2.143H0zm63.857-44.203q9.98 0 13.347 6.428 2.327 4.837 2.327 9.49h-.062q-6.857.612-9.367.612 0-3.306-2.02-5.571-1.96-1.102-3.551-1.102h-1.715q-4.224 0-5.143 3.306-.244.98-.244 1.47v.918q0 4.653 4.959 6.796.428.367 6.857 3.122 3.428 1.592 6.367 3.918v.062h-10.53v1.224H78.98v1.653h1.714v18.184h-3.429V163H50.694v-9.306h-6.306v-6.306h3.55v-2.143h-3.55v-1.47H56.57v9.919h12.49v-14.939h-9.367v-4.898H48.122v-1.224h5.572v-.062q-7.347-4.898-7.347-13.836v-.796q0-7.53 4.592-11.388 4.224-3.367 12.918-3.367zm15.123 30.673v-1.224h4.224v1.224H78.98zm-38.633 13.53v-2.142h4.04v2.143h-4.04zm47.449-14.57v-29.388h29.326v9.795q0 .184-.183.184h-17.45v12.919h15.613v.122q0 .49-.122 6.306-.123 0-.123.061h.674v3H102v12.245h-3.612v1.225H102v3.734h15.367v1.347h-1.224v7.347H97.776V163h-8.694v-21.367h-1.286v-7.531h-9.551v-1.286h9.55zm4.96 0h-4.899v1.285h4.898v-1.286zm30.795-29.633h12.245q.245 0 3.918 9.612.306.367 7.715 18.918h3.122v-28.53h10.714v33.98h1.164v13.224h-4.286v2.51h4.286v7.898h-15.98v-10.04h-2.878q-5.755-14.021-7.775-19.41v-10.04h-1.53v30.674h-2.388v10.591h-10.041v-22.775h1.836v-.123q-.122-29.571-.122-36.49zm23.694 28.53h-5.694v2.204h6.674q-.796-2.204-.98-2.204zm8.265 0h-4.837v2.204h-2.387q2.143 5.327 2.571 6.919h.061v-.245q-.245-5.45-.245-6.674h4.837v-2.204zM146.45 163v-1.102h19.347V163H146.45zm23.694-60h11.265q.184.061.184.245v29.143q0 .183-.184.183h-1.347v30.245q0 .184-.183.184h-9.735q-.245 0-.245-.184v-30.98h-3q-.245 0-.245-.183v-1.286q.061-.245.245-.245h3v-26.877q.061-.245.245-.245zm5.633 27.122h-5.817v1.715h5.817v-1.715zM206.756 103q12.55 0 15.795 7.898.98 1.898.98 2.51h-5.266V115h5.694v-.061q0-.429-.428-1.53h9.673V115h-9.184v.122q.735 3.368.98 7.225 0 .245-10.96.796v-.061q0-9.98-6.856-9.98h-1.225q-5.143 0-6.245 4.347-.918 3.673-.918 9.673v8.205l-.123 1.163h-3.795v1.898h3.795v14.51h16.164v-15.061h9.245v15.061h-5.143v9.306h-10.714V163h-8.388v-.796h-8.51v-4.653h5.632v-2.02h-8.449v-6.858h-3.612v-8.51h1.898q-.123-5.143-.123-8.204 0-13.714 1.286-17.265 1.347-4.102 4.102-7.04Q196.96 103 206.755 103zm20.51 53.082v-52.653h11.693v11.204q0 5.571-.183 12.06v.123h.122q1.408-2.755 7.898-14.143 3.306-5.755 3.306-8.693v-.551h12v.244q0 5.756-4.653 12.551l-7.163 10.347 6.98 14.878h6.367v1.775h-7.164v.123q1.776 3.735 2.266 4.408h1.285v5.388h1.776v9.796q-3.061.061-4.53.061h-2.878q-1.53 0-4.225-.061v-6.551h-2.571v-8.633h-1.53l-1.593-4.53h11.94v-1.776H245.51q0-.184-1.959-6h-.061q-1.041 1.898-4.041 6h5.02v1.775h-5.51v2.94h-.734v13.591h.734v3.061q0 .184-.183.184h-11.327q-.184 0-.184-.184v-4.714h5.266v-2.02h-5.266zm12.122-14.633h-7.347v1.775h6.857q0-.306.49-1.775z" fill="#163530"/><defs><linearGradient gradientTransform="rotate(25)" id="a" x1="0%" y1="0%" x2="100%" y2="0%"><stop offset="0%" stop-color="#021802"/><stop offset="100%" stop-color="#60dbcc"/></linearGradient></defs><g transform="translate(68.69 -36.06) scale(2.51277)" fill="url(#a)"><path d="M50.39 50.4s-2.547-8.199-8.847-14.646c-1.771-1.917-6.527-3.745-9.808-.982-5.664 4.766-5.664 15.628-5.664 15.628H50.39zm-27.531-.015a5.4 5.4 0 00-5.4-5.362c-2.401 0-4.411 1.577-5.113 3.743l-9.494.002a1.47 1.47 0 01-.925-.355c-.36-.314-.314-.711-.277-1.029.007-.065.014-.125.008-.125l-.001.001c1.571-5.367 5.161-13.728 5.538-14.445.122-.209.434-.442.74-.555l.286-.086.035.179c1.685 8.027 3.381 10.805 3.455 10.921l.188.302 2.267-.471-5.27-25.438-2.299.477-.027.386c-.01.146-.229 3.638 1.225 11.43l-.003.002.082.423-.359.14c-.564.231-1.045.586-1.515 1.116-.488.545-3.989 8.63-5.921 15.229a1.253 1.253 0 00-.036.204c-.138.921.05 1.703.555 2.322.793.968 2.081.996 2.224.996l11.702-.003v-.005h8.335zm7.281-32.873l.772 3.93a3.228 3.228 0 012.486 3.139 3.233 3.233 0 01-6.467 0 3.23 3.23 0 011.38-2.644l-.838-4.272c-3.393.796-5.93 3.84-5.93 7.485 0 4.238 3.448 7.683 7.684 7.683a7.688 7.688 0 10.913-15.321z"/><path d="M29.227 17.453c.31 0 .613.024.913.059l-.568-2.929-2.598.508.498 2.572a7.699 7.699 0 011.755-.21z"/></g></svg>