<svg width="560" height="88" fill="none" xmlns="http://www.w3.org/2000/svg"><path d="M.06 2h54.001v13.2h-39.6v22.2h32.4v13.2h-32.4V86H.061V2zm93.648 85.2c-5.68 0-10.8-.88-15.36-2.64-4.56-1.84-8.48-4.48-11.76-7.92-3.2-3.52-5.68-7.84-7.44-12.96-1.76-5.2-2.64-11.12-2.64-17.76v-5.04c0-6.32.88-11.96 2.64-16.92 1.76-4.96 4.24-9.16 7.44-12.6 3.28-3.44 7.2-6.04 11.76-7.8C82.988 1.72 88.108.8 93.708.8s10.68.92 15.24 2.76c4.64 1.76 8.56 4.36 11.76 7.8 3.28 3.36 5.8 7.56 7.56 12.6 1.76 4.96 2.64 10.6 2.64 16.92v5.04c0 6.64-.88 12.52-2.64 17.64-1.76 5.12-4.28 9.44-7.56 12.96-3.2 3.52-7.12 6.2-11.76 8.04-4.56 1.76-9.64 2.64-15.24 2.64zm0-13.2c6.64 0 11.96-2.24 15.96-6.72 4.08-4.48 6.12-11.6 6.12-21.36v-5.04c0-8.96-2.04-15.68-6.12-20.16s-9.4-6.72-15.96-6.72c-6.72 0-12.08 2.2-16.08 6.6-4 4.4-6 11.16-6 20.28v5.04c0 9.6 2 16.68 6 21.24 4.08 4.56 9.44 6.84 16.08 6.84zm81.595 13.2c-5.68 0-10.8-.88-15.36-2.64-4.56-1.84-8.48-4.48-11.76-7.92-3.2-3.52-5.68-7.84-7.44-12.96-1.76-5.2-2.64-11.12-2.64-17.76v-5.04c0-6.32.88-11.96 2.64-16.92 1.76-4.96 4.24-9.16 7.44-12.6 3.28-3.44 7.2-6.04 11.76-7.8 4.64-1.84 9.76-2.76 15.36-2.76s10.68.92 15.24 2.76c4.64 1.76 8.56 4.36 11.76 7.8 3.28 3.36 5.8 7.56 7.56 12.6 1.76 4.96 2.64 10.6 2.64 16.92v5.04c0 6.64-.88 12.52-2.64 17.64-1.76 5.12-4.28 9.44-7.56 12.96-3.2 3.52-7.12 6.2-11.76 8.04-4.56 1.76-9.64 2.64-15.24 2.64zm0-13.2c6.64 0 11.96-2.24 15.96-6.72 4.08-4.48 6.12-11.6 6.12-21.36v-5.04c0-8.96-2.04-15.68-6.12-20.16s-9.4-6.72-15.96-6.72c-6.72 0-12.08 2.2-16.08 6.6-4 4.4-6 11.16-6 20.28v5.04c0 9.6 2 16.68 6 21.24 4.08 4.56 9.44 6.84 16.08 6.84zm47.395-72h28.2c12.88 0 22.68 3.36 29.4 10.08 6.8 6.64 10.2 16.16 10.2 28.56v5.52c0 12.88-3.4 22.76-10.2 29.64-6.8 6.8-16.6 10.2-29.4 10.2h-28.2V2zm27.6 70.8c8.72 0 15.08-2.04 19.08-6.12 4-4.16 6-11 6-20.52v-5.52c0-8.8-2.04-15.24-6.12-19.32-4-4.08-10.32-6.12-18.96-6.12h-13.2v57.6h13.2zM300.661 2h29.4c10.88 0 18.88 2.36 24 7.08 5.2 4.72 7.8 11.12 7.8 19.2 0 5.52-1.28 10.32-3.84 14.4-2.56 4-6.44 7.04-11.64 9.12l17.88 34.2h-16.08l-15.36-31.56c-.88.08-1.44.12-1.68.12h-16.08V86h-14.4V2zm28.8 39.36c6.16 0 10.56-1.16 13.2-3.48 2.72-2.32 4.08-5.52 4.08-9.6 0-3.84-1.4-6.96-4.2-9.36-2.8-2.48-7.16-3.72-13.08-3.72h-14.4v26.16h14.4zM396.033 2h16.8l30 84h-15.36l-6.96-21h-33l-7.08 21h-14.4l30-84zm20.16 49.8l-11.88-36h-.24l-12.12 36h24.24zm42.249-36.6h-25.8V2h66v13.2h-25.8V86h-14.4V15.2zM505.252 2h54v13.2h-39.6v21h32.4v13.2h-32.4v23.4h39.6V86h-54V2z" fill="#F1F3F5"/></svg>