<svg width="20" height="20" fill="none" xmlns="http://www.w3.org/2000/svg"><g clip-path="url(#clip0_403_1962)"><path d="M18.993 17.532a4.225 4.225 0 00-2.336-6.19 4.231 4.231 0 00-3.596.478 8.153 8.153 0 00-.795.666c-.535.454-1.264.638-2.013.674a5.909 5.909 0 01-.282.006c-.794 0-1.6-.124-2.167-.597l-.012-.01a.232.232 0 00-.024-.02 7.59 7.59 0 01-.293-.33 2.73 2.73 0 01-.551-1.362 5.537 5.537 0 01-.056-.818c0-.856.178-1.707.692-2.315.225-.24.437-.492.633-.756.45-.683.692-1.483.695-2.302v-.02A4.228 4.228 0 004.708.408h-.046a4.229 4.229 0 00-3.547 6.53c.206.279.43.544.669.793.507.603.678 1.45.678 2.298.003.324-.025.648-.082.966a.375.375 0 00-.005.045 2.63 2.63 0 01-.467 1.093 4.228 4.228 0 002.725 7.46h.029a4.196 4.196 0 002.202-.62s.002 0 .007-.005a.091.091 0 00.02-.011v-.003a4.196 4.196 0 00.967-.827c.568-.432 1.344-.555 2.113-.555.853 0 1.706.178 2.315.692.24.225.492.437.756.633a4.227 4.227 0 005.951-1.365z" fill="url(#paint0_linear_403_1962)"/><path d="M18.894 6.961A4.227 4.227 0 0017.442.957L17.419.94a4.23 4.23 0 00-6.282 3.76v.008a4.21 4.21 0 001.31 2.988l.006.007a4.228 4.228 0 006.44-.743z" fill="url(#paint1_linear_403_1962)"/></g><defs><linearGradient id="paint0_linear_403_1962" x1=".406" y1="19.592" x2="19.591" y2="19.592" gradientUnits="userSpaceOnUse"><stop stop-color="#2B0"/><stop offset="1" stop-color="#6B0"/></linearGradient><linearGradient id="paint1_linear_403_1962" x1=".406" y1="19.592" x2="19.591" y2="19.592" gradientUnits="userSpaceOnUse"><stop stop-color="#2B0"/><stop offset="1" stop-color="#6B0"/></linearGradient><clipPath id="clip0_403_1962"><path fill="#fff" d="M0 0h20v20H0z"/></clipPath></defs></svg>