<svg xmlns="http://www.w3.org/2000/svg" width="232.88" height="46.65" viewBox="0 0 582.19 116.62"><defs><style>.a{fill:#414549}.b{fill:#36b920}</style></defs><path class="a" d="M110.76 32.23L98.87 46.54a1.74 1.74 0 01-2.35.34 1.66 1.66 0 01-.28-2.4l11.6-14.79-.93-.82-13.12 13.46a1.67 1.67 0 01-2.33.12l-.06-.05a1.67 1.67 0 01-.18-2.32l11.6-14.79-.93-.82-13.12 13.46a1.67 1.67 0 01-2.42 0 1.72 1.72 0 010-2.37L99 21.93l-1.72-1.51-19.09 17.71A6.6 6.6 0 0076.38 44l1.67 9.17-7.68 8.37L60 50.15c3.56-5.38 2.47-13.53-3-19.48-6.24-6.8-16.88-9.29-22.47-4.16s-4 15.94 2.21 22.75c5.46 6 13.48 7.73 19.15 4.65l10.7 11.71-20.51 22.31 4 4.12 20.29-22.32L90.69 92l4.12-3.64-20.66-22.74L82 57.1l10 .47A6.62 6.62 0 0097.47 55l15-21.26z"/><path class="b" d="M103.51 98.41s-2.28-9.62 6.93-17.62c0 0 5.79 11.01-6.93 17.62z"/><path class="b" d="M114.51 90.59s-4.28-8.35 2.39-17.79c0-.01 7.83 8.82-2.39 17.79z"/><path class="b" d="M123.71 80.55s-6-6.91-1.89-17.42c0 0 9.48 6.53 1.89 17.42zm6-12.66s-7.19-4.92-5.8-15.65c0 .01 10.33 3.76 5.8 15.65zm2.8-14.61s-7.27-2.54-8.55-12c.04-.03 9.67.78 8.55 12zM103.88 99s7.44-6.52 18.81-2.12c0-.05-7.02 10.22-18.81 2.12zm11.06-7.48s5.72-8.28 18.05-6.76c.01 0-4.39 11.88-18.05 6.76z"/><path class="b" d="M124.42 81s2.84-9.34 14.68-11.57c0-.05-.54 12.23-14.68 11.57zm5.98-13s.41-9.76 11.31-14.89c0-.04 2.55 11.97-11.31 14.89zm2.86-14.41s-1.75-8.86 6.6-15.92c0 0 4.81 10.22-6.6 15.92zm-1.88-14.54s-7.08-.59-10.42-8.77c.04 0 8.83-1.52 10.42 8.77zm.89-.16a17.67 17.67 0 011.93-16.6s6.87 8.48-1.93 16.6zm-4.82-13.73A17.7 17.7 0 01126 9.6s7.51 6.85 1.45 15.56zm-7.61-12.28A15.79 15.79 0 01115.54 0s7.57 4.46 4.3 12.88zm6.89 12.58s-6.21 1.23-11.07-4.95c.01-.01 7.19-3.51 11.07 4.95zm-7.45-12.07s-5.38 3.33-12.1-.75c0-.01 5.52-5.77 12.1.75zM104.39 1.12s1.48 5.91 11 7.71c-.01-.01-1.5-7.71-11-7.71zm-1.49 97.96a124.71 124.71 0 01-34.64 14.52c-19.66 4.78-24.16 2.66-25 1.84s-.92-3.68 3-3.12 25.4 1.55 56.64-13.24zm-64.52-.67s2.28-9.62-6.93-17.62c0 0-5.79 11.01 6.93 17.62z"/><path class="b" d="M27.38 90.59S31.66 82.24 25 72.8c0-.01-7.84 8.82 2.38 17.79z"/><path class="b" d="M18.18 80.55s6-6.91 1.89-17.42c0 0-9.48 6.53-1.89 17.42zm-6-12.66S19.37 63 18 52.24c0 .01-10.35 3.76-5.82 15.65zm-2.8-14.61s7.27-2.54 8.55-12c0-.03-9.67.78-8.55 12zM38 99s-7.44-6.52-18.81-2.12C19.2 96.83 26.22 107.1 38 99zm-11-7.48s-5.72-8.28-18-6.76c-.09 0 4.29 11.88 18 6.76z"/><path class="b" d="M17.47 81s-2.84-9.38-14.68-11.61c0-.01.54 12.27 14.68 11.61zm-5.98-13S11.08 58.2.18 53.07c0 0-2.55 12.01 11.31 14.93zM8.63 53.59S10.38 44.73 2 37.67c0 0-4.78 10.22 6.63 15.92zm1.88-14.54s7.08-.59 10.42-8.77c0 0-8.83-1.52-10.42 8.77zm-.89-.16a17.67 17.67 0 00-1.93-16.6s-6.87 8.48 1.93 16.6zm4.82-13.73A17.7 17.7 0 0015.86 9.6s-7.48 6.85-1.42 15.56zm7.61-12.28A15.79 15.79 0 0026.35 0s-7.58 4.46-4.3 12.88zm-6.89 12.58s6.21 1.23 11.07-4.95C26.22 20.5 19 17 15.16 25.46zm7.45-12.07s5.38 3.33 12.1-.75c0-.01-5.52-5.77-12.1.75zM37.5 1.12S36 7 26.51 8.83c0-.01 1.49-7.71 10.99-7.71zM39 99.08a124.71 124.71 0 0034.63 14.52c19.66 4.78 24.16 2.66 25 1.84s.92-3.68-3-3.12-25.4 1.55-56.63-13.24zm124.79-5.8h-10.42V36.35h36.25v8.72h-25.83v14.72h22.08v8.72h-22.08zm87.9-28.46a36.81 36.81 0 01-1.85 11.93 26.41 26.41 0 01-5.4 9.34 24.26 24.26 0 01-8.72 6.08 33 33 0 01-23.52 0 24.29 24.29 0 01-8.72-6.08 26.26 26.26 0 01-5.4-9.34 36.85 36.85 0 01-1.85-11.93 36.81 36.81 0 011.85-11.93 26.26 26.26 0 015.4-9.34 24.26 24.26 0 018.72-6.08 33 33 0 0123.52 0 24.38 24.38 0 018.72 6.08 26.26 26.26 0 015.4 9.34 36.81 36.81 0 011.85 11.93zm-10.77 0a28.88 28.88 0 00-1.28-9.08 18.68 18.68 0 00-3.53-6.49 14.11 14.11 0 00-5.36-3.87 17.76 17.76 0 00-6.81-1.28 17.58 17.58 0 00-6.81 1.28 14.11 14.11 0 00-5.36 3.87 18.59 18.59 0 00-3.53 6.49 29.22 29.22 0 00-1.24 9.08 29.18 29.18 0 001.28 9.08 18.4 18.4 0 003.53 6.47 14.32 14.32 0 005.36 3.87 17.58 17.58 0 006.81 1.3 17.4 17.4 0 006.81-1.3 14.55 14.55 0 005.36-3.87 18.4 18.4 0 003.53-6.47 28.93 28.93 0 001.24-9.08zm74.75 0a36.81 36.81 0 01-1.85 11.93 26.41 26.41 0 01-5.4 9.34 24.26 24.26 0 01-8.72 6.08 33 33 0 01-23.52 0 24.29 24.29 0 01-8.72-6.08 26.26 26.26 0 01-5.4-9.34 36.85 36.85 0 01-1.85-11.93 36.81 36.81 0 011.85-11.93 26.41 26.41 0 015.4-9.34 24.26 24.26 0 018.72-6.08 33 33 0 0123.52 0 24.38 24.38 0 018.72 6.08 26.26 26.26 0 015.4 9.34 36.54 36.54 0 011.85 11.93zm-10.76 0a29.18 29.18 0 00-1.28-9.08 18.68 18.68 0 00-3.53-6.49 14.11 14.11 0 00-5.36-3.87 17.76 17.76 0 00-6.81-1.28 17.58 17.58 0 00-6.81 1.28 14.11 14.11 0 00-5.36 3.87 18.59 18.59 0 00-3.53 6.49 29.22 29.22 0 00-1.23 9.08 29.18 29.18 0 001.28 9.08 18.4 18.4 0 003.53 6.47 14.32 14.32 0 005.36 3.87 18.49 18.49 0 0013.62 0 14.55 14.55 0 005.36-3.87 18.4 18.4 0 003.53-6.47 28.93 28.93 0 001.23-9.08zm21.83 28.46V36.35h15.06c1.33 0 2.69 0 4.06.13s2.72.21 4 .38 2.57.38 3.79.62a27.32 27.32 0 013.36.87 29.18 29.18 0 018 3.91 24 24 0 015.85 5.83 25.14 25.14 0 013.57 7.51 32 32 0 011.21 9 35.06 35.06 0 01-1 8.62 25.34 25.34 0 01-3.11 7.34 23.48 23.48 0 01-5.25 5.85 27.07 27.07 0 01-7.51 4.15 39.58 39.58 0 01-8.21 2 71.54 71.54 0 01-10.34.68zm14.72-8.72q9.15 0 14.3-2.51a15.45 15.45 0 006.89-6.55 22.79 22.79 0 002.34-11 24 24 0 00-.77-6.3 17.35 17.35 0 00-2.21-5 15.18 15.18 0 00-3.51-3.77 19.31 19.31 0 00-4.66-2.6 24.8 24.8 0 00-5.4-1.36 48.17 48.17 0 00-6.68-.42h-4.59v39.5h4.29z"/><path class="a" d="M428.89 53.45a15.7 15.7 0 01-3.3 10.1q-3.3 4.15-10.19 6.15v.17l16.93 23.4h-12.51l-15.49-22h-7.15v22h-10.42V36.34h17.33a60.62 60.62 0 018 .49 29.84 29.84 0 016.34 1.47 16.48 16.48 0 017.74 5.7 15.83 15.83 0 012.72 9.45zm-26.55 9.07a49.23 49.23 0 006.06-.32 18.45 18.45 0 004.19-1A8.14 8.14 0 00417 58a9.18 9.18 0 001.21-4.74 8.34 8.34 0 00-1-4.06 6.53 6.53 0 00-3.21-2.8 13.71 13.71 0 00-3.74-1 41.12 41.12 0 00-5.57-.32h-7.45v17.44zm71.73 16.25h-21.44l-5.58 14.51H436l22.59-56.93h9.53l22.59 56.93h-11zm-10.8-28.72q-3 8.94-5.33 14.93L456 70.05h14.7L468.75 65q-2.31-6-5.33-14.93zm54.07 43.23h-10.42v-48.2h-18.38v-8.72h47.14v8.72h-18.34zm36.85-8.72h28v8.72h-38.42V36.35h36.89v8.72h-26.47v14.72h22.72v8.72h-22.72z"/></svg>