<svg width="168" height="88" fill="none" xmlns="http://www.w3.org/2000/svg"><path fill-rule="evenodd" clip-rule="evenodd" d="M129.772 71H46.275c-3.889 0-7.041-3.134-7.041-7s3.152-7 7.041-7H7.042C3.152 57 0 53.866 0 50s3.153-7 7.042-7h40.24c3.889 0 7.041-3.134 7.041-7s-3.152-7-7.042-7h-25.15c-3.888 0-7.041-3.134-7.041-7s3.153-7 7.042-7h40.24c-3.89 0-7.043-3.134-7.043-7s3.153-7 7.042-7h98.587C164.847 1 168 4.134 168 8s-3.153 7-7.042 7h-40.239c3.889 0 7.041 3.134 7.041 7s-3.152 7-7.041 7h22.131c3.889 0 7.042 3.134 7.042 7s-3.153 7-7.042 7h-10.235c-4.903 0-8.878 3.134-8.878 7 0 2.577 2.011 4.91 6.035 7 3.89 0 7.042 3.134 7.042 7s-3.152 7-7.042 7zm31.186-28c-3.889 0-7.042-3.134-7.042-7s3.153-7 7.042-7S168 32.134 168 36s-3.153 7-7.042 7z" fill="#F1F3F5"/><path d="M74.5 69C93.001 69 108 54.002 108 35.5 108 16.998 93.001 2 74.5 2 55.998 2 41 16.998 41 35.5 41 54.002 55.998 69 74.5 69z" fill="#D1D5D9"/><path fill-rule="evenodd" clip-rule="evenodd" d="M74.5 3.25c-17.811 0-32.25 14.439-32.25 32.25S56.689 67.75 74.5 67.75s32.25-14.439 32.25-32.25S92.311 3.25 74.5 3.25zM39.75 35.5C39.75 16.308 55.308.75 74.5.75s34.75 15.558 34.75 34.75S93.692 70.25 74.5 70.25 39.75 54.692 39.75 35.5z" fill="#A1A3A5"/><path fill-rule="evenodd" clip-rule="evenodd" d="M69.132 61.494c1.759.325 3.548.493 5.368.506C89.135 62 101 50.136 101 35.5S89.135 9 74.5 9c-3.76 0-7.336.783-10.576 2.195a26.604 26.604 0 00-13.028 12.247A26.387 26.387 0 0048 35.5a26.403 26.403 0 006.684 17.596" fill="#fff"/><path fill-rule="evenodd" clip-rule="evenodd" d="M63.425 10.049A27.66 27.66 0 0174.5 7.75c15.326 0 27.75 12.424 27.75 27.75S89.826 63.25 74.5 63.25h-.009a31.95 31.95 0 01-5.586-.527 1.25 1.25 0 11.454-2.458c1.684.31 3.399.472 5.145.485C88.448 60.748 99.75 49.444 99.75 35.5c0-13.945-11.305-25.25-25.25-25.25a25.16 25.16 0 00-10.077 2.09A25.354 25.354 0 0052.01 24.012 25.137 25.137 0 0049.25 35.5a25.153 25.153 0 006.369 16.765 1.25 1.25 0 11-1.87 1.66 27.653 27.653 0 01-7-18.426 27.662 27.662 0 013.034-12.627A27.854 27.854 0 0163.425 10.05z" fill="#A1A3A5"/><path fill-rule="evenodd" clip-rule="evenodd" d="M56.827 55.286a1.25 1.25 0 011.758-.181 25.225 25.225 0 006.864 3.975 1.25 1.25 0 11-.897 2.334 27.722 27.722 0 01-7.544-4.37 1.25 1.25 0 01-.181-1.758zm12.868-38.834A20.272 20.272 0 0175 15.75a1.25 1.25 0 110 2.5c-1.611 0-3.17.214-4.652.616C62.801 20.909 57.25 27.808 57.25 36a1.25 1.25 0 11-2.5 0c0-9.35 6.335-17.216 14.945-19.548zm37.42 52.432l-6-6 1.768-1.768 6 6-1.768 1.768z" fill="#A1A3A5"/><path fill-rule="evenodd" clip-rule="evenodd" d="M107.031 67.03a4.846 4.846 0 000 6.854l11.085 11.086a4.846 4.846 0 106.854-6.854L113.885 67.03a4.846 4.846 0 00-6.854 0z" fill="#D1D5D9"/><path fill-rule="evenodd" clip-rule="evenodd" d="M106.147 66.146a6.097 6.097 0 018.622 0l11.085 11.086a6.096 6.096 0 11-8.622 8.622l-11.085-11.086a6.096 6.096 0 010-8.622zm6.854 1.768a3.596 3.596 0 10-5.086 5.087L119 84.085a3.596 3.596 0 105.086-5.087l-11.085-11.085z" fill="#A1A3A5"/><path fill-rule="evenodd" clip-rule="evenodd" d="M111.116 68.116a1.25 1.25 0 011.768 0l11 11a1.25 1.25 0 01-1.768 1.768l-11-11a1.25 1.25 0 010-1.768z" fill="#fff"/><path fill-rule="evenodd" clip-rule="evenodd" d="M116.075 28c0-.69.559-1.25 1.25-1.25H134.5a1.25 1.25 0 110 2.5h-17.175a1.25 1.25 0 01-1.25-1.25zm21.954 0c0-.69.56-1.25 1.25-1.25h2.221a1.25 1.25 0 110 2.5h-2.221c-.69 0-1.25-.56-1.25-1.25zm-19.279 7.777c0-.69.56-1.25 1.25-1.25h8.176a1.25 1.25 0 110 2.5H120c-.69 0-1.25-.56-1.25-1.25zM5.03 49c0-.69.559-1.25 1.25-1.25h4.22a1.25 1.25 0 010 2.5H6.28A1.25 1.25 0 015.03 49zm10.045 0c0-.69.56-1.25 1.25-1.25H33.5a1.25 1.25 0 010 2.5H16.325c-.69 0-1.25-.56-1.25-1.25zm13.675 8.777c0-.69.56-1.25 1.25-1.25h8.176a1.25 1.25 0 010 2.5H30c-.69 0-1.25-.56-1.25-1.25z" fill="#A1A3A5"/></svg>