<svg width="17" height="17" viewBox="0 0 17 17" fill="none" xmlns="http://www.w3.org/2000/svg">
<path fill-rule="evenodd" clip-rule="evenodd" d="M8.79584 4.23761C9.08873 3.94472 9.56361 3.94472 9.8565 4.23761L13.1898 7.57095C13.4827 7.86384 13.4827 8.33871 13.1898 8.63161L9.8565 11.9649C9.56361 12.2578 9.08873 12.2578 8.79584 11.9649C8.50295 11.672 8.50295 11.1972 8.79584 10.9043L11.5988 8.10128L8.79584 5.29827C8.50295 5.00538 8.50295 4.53051 8.79584 4.23761Z" fill="#A1A3A5"/>
<path fill-rule="evenodd" clip-rule="evenodd" d="M4.12983 4.23761C4.42272 3.94472 4.89759 3.94472 5.19049 4.23761L8.52382 7.57095C8.66447 7.7116 8.74349 7.90237 8.74349 8.10128C8.74349 8.30019 8.66447 8.49096 8.52382 8.63161L5.19049 11.9649C4.89759 12.2578 4.42272 12.2578 4.12983 11.9649C3.83693 11.672 3.83693 11.1972 4.12983 10.9043L6.93283 8.10128L4.12983 5.29827C3.83693 5.00538 3.83693 4.53051 4.12983 4.23761Z" fill="#A1A3A5"/>
</svg>
