<svg width="32" height="32" viewBox="0 0 32 32" fill="none" xmlns="http://www.w3.org/2000/svg">
<path d="M16 9.75C15.655 9.75 15.375 10.03 15.375 10.375C15.375 10.72 15.655 11 16 11C16.345 11 16.625 10.72 16.625 10.375C16.625 10.03 16.345 9.75 16 9.75Z" fill="white"/>
<path d="M31.9998 10.3696C31.9996 10.3532 31.9987 10.3368 31.9972 10.3204C31.9969 10.3169 31.9969 10.3133 31.9966 10.3098C31.9946 10.2908 31.9917 10.2719 31.988 10.2531C31.9864 10.2449 31.9842 10.2371 31.9823 10.229C31.9797 10.2183 31.9771 10.2075 31.974 10.1969C31.9714 10.1881 31.9683 10.1794 31.9653 10.1708C31.962 10.1611 31.9586 10.1515 31.9548 10.142C31.9514 10.1334 31.9476 10.125 31.9438 10.1166C31.9396 10.1073 31.9352 10.0981 31.9305 10.0889C31.9263 10.0808 31.922 10.0729 31.9175 10.065C31.9124 10.056 31.9069 10.0471 31.9013 10.0384C31.8964 10.0308 31.8915 10.0233 31.8863 10.0159C31.8803 10.0074 31.874 9.99906 31.8676 9.99081C31.8619 9.98363 31.8564 9.9765 31.8505 9.96963C31.8481 9.96681 31.8461 9.96381 31.8436 9.96106L25.2186 2.46106C25.217 2.45931 25.2153 2.45781 25.2137 2.45613C25.2034 2.44469 25.1925 2.43388 25.1813 2.42319C25.1771 2.41919 25.1731 2.41494 25.1688 2.41106C25.1556 2.39913 25.1418 2.38794 25.1274 2.37713C25.1247 2.37506 25.1221 2.37269 25.1193 2.37069C25.1022 2.35825 25.0846 2.3465 25.0661 2.33569C25.0658 2.33556 25.0656 2.33538 25.0654 2.33525C25.0287 2.31394 24.9895 2.29594 24.9478 2.282C24.9474 2.28188 24.9471 2.28181 24.9468 2.28175C24.9405 2.27969 24.934 2.27831 24.9277 2.27644C24.9131 2.27206 24.8984 2.26769 24.8837 2.26444C24.8786 2.26331 24.8734 2.26275 24.8682 2.26181C24.8519 2.25863 24.8356 2.25575 24.8192 2.25388C24.8141 2.25331 24.809 2.25325 24.8039 2.25281C24.7873 2.25138 24.7708 2.25025 24.7542 2.25019C24.7529 2.25019 24.7515 2.25 24.7501 2.25H7.25C7.24856 2.25 7.24713 2.25019 7.24563 2.25025C7.22956 2.25038 7.21338 2.2515 7.19719 2.25288C7.19169 2.25338 7.18619 2.25344 7.18069 2.254C7.16481 2.25581 7.149 2.25863 7.13312 2.26169C7.1275 2.26275 7.12181 2.26338 7.11625 2.26456C7.10187 2.26775 7.0875 2.27206 7.07319 2.27631C7.06662 2.27825 7.05981 2.27969 7.05331 2.28181C7.053 2.28194 7.05262 2.282 7.05231 2.28206C7.0105 2.296 6.97125 2.314 6.93469 2.33531C6.93444 2.33544 6.93425 2.33563 6.934 2.33575C6.9155 2.34656 6.89781 2.35825 6.88075 2.37075C6.87794 2.37281 6.87537 2.37513 6.87262 2.37725C6.85838 2.38806 6.8445 2.39925 6.83131 2.41113C6.827 2.41506 6.82294 2.41931 6.81875 2.42331C6.80762 2.43394 6.79669 2.44481 6.78644 2.45619C6.78487 2.45794 6.78312 2.45944 6.78156 2.46113L0.156563 9.96113C0.154125 9.96388 0.152063 9.96688 0.149625 9.96969C0.14375 9.97656 0.138125 9.98369 0.132563 9.99088C0.126125 9.99913 0.119812 10.0074 0.113812 10.0159C0.108625 10.0233 0.103687 10.0308 0.0988125 10.0384C0.0931875 10.0473 0.08775 10.0561 0.082625 10.0651C0.078125 10.0729 0.07375 10.0809 0.069625 10.089C0.0649375 10.0981 0.0605 10.1074 0.0563125 10.1167C0.0525 10.1251 0.04875 10.1334 0.0453125 10.1421C0.0415 10.1516 0.038125 10.1612 0.0348125 10.1708C0.0318125 10.1795 0.02875 10.1881 0.026125 10.1969C0.023 10.2076 0.0204375 10.2183 0.017875 10.2291C0.0159375 10.2371 0.01375 10.2451 0.012125 10.2532C0.008375 10.272 0.0054375 10.2909 0.0035 10.3099C0.003125 10.3134 0.003125 10.3169 0.002875 10.3204C0.0014375 10.3368 0.0005 10.3533 0.000375 10.3697C0.00025 10.3714 0 10.373 0 10.3748C0 10.3799 0.000625 10.3849 0.00075 10.39C0.0010625 10.403 0.0015625 10.4159 0.0026875 10.4289C0.003375 10.4371 0.004375 10.4451 0.005375 10.4532C0.0068125 10.4644 0.0084375 10.4755 0.0105 10.4866C0.0120625 10.4953 0.01375 10.504 0.0156875 10.5126C0.018 10.5227 0.0206875 10.5329 0.0235 10.543C0.0259375 10.5518 0.028375 10.5606 0.0311875 10.5693C0.034375 10.579 0.038125 10.5886 0.0418125 10.5983C0.0450625 10.6068 0.048125 10.6153 0.0516875 10.6236C0.0559375 10.6334 0.060875 10.6429 0.0656875 10.6526C0.0695 10.6603 0.073 10.6681 0.077125 10.6756C0.082875 10.6861 0.0894375 10.6962 0.0958125 10.7064C0.09975 10.7126 0.103312 10.7191 0.107437 10.7253C0.118062 10.7409 0.129438 10.7562 0.141625 10.7711L0.14225 10.7718C0.1425 10.7721 0.14275 10.7724 0.143 10.7728L15.5166 29.5211C15.5179 29.5226 15.5194 29.524 15.5208 29.5256C15.5341 29.5415 15.548 29.5569 15.5628 29.5714C15.5645 29.5731 15.5664 29.5746 15.5681 29.5762C15.5813 29.5888 15.5951 29.6008 15.6093 29.6121C15.6137 29.6157 15.6182 29.6192 15.6228 29.6226C15.6375 29.6338 15.6526 29.6444 15.6683 29.6543C15.67 29.6553 15.6716 29.6565 15.6733 29.6576C15.6906 29.6681 15.7086 29.6777 15.7268 29.6866C15.7316 29.6889 15.7364 29.691 15.7412 29.6932C15.7564 29.7001 15.772 29.7065 15.7878 29.7122C15.7917 29.7136 15.7956 29.7152 15.7995 29.7165C15.8189 29.7231 15.8386 29.7287 15.8587 29.7334C15.8626 29.7343 15.8666 29.7349 15.8706 29.7358C15.8871 29.7393 15.9038 29.7421 15.9207 29.7442C15.9263 29.7449 15.9318 29.7456 15.9374 29.7462C15.958 29.7483 15.9788 29.7497 15.9999 29.7497C16.0209 29.7497 16.0417 29.7483 16.0624 29.7462C16.0679 29.7456 16.0734 29.7449 16.079 29.7442C16.0959 29.7421 16.1126 29.7393 16.1291 29.7358C16.1331 29.7349 16.1371 29.7343 16.141 29.7334C16.1611 29.7288 16.1808 29.7231 16.2002 29.7165C16.2041 29.7152 16.208 29.7136 16.2119 29.7122C16.2277 29.7064 16.2432 29.7001 16.2585 29.6932C16.2633 29.691 16.2681 29.6889 16.2729 29.6866C16.2911 29.6777 16.3091 29.6681 16.3264 29.6576C16.3281 29.6565 16.3297 29.6553 16.3314 29.6543C16.3471 29.6444 16.3621 29.6338 16.3769 29.6227C16.3814 29.6193 16.3859 29.6157 16.3904 29.6121C16.4046 29.6008 16.4184 29.5888 16.4316 29.5763C16.4333 29.5746 16.4351 29.5731 16.4369 29.5714C16.4517 29.5569 16.4656 29.5415 16.4789 29.5256C16.4802 29.524 16.4818 29.5227 16.4831 29.5211L31.8567 10.7728C31.8569 10.7724 31.8572 10.7721 31.8574 10.7718L31.8581 10.7711C31.8703 10.7562 31.8817 10.7409 31.8923 10.7253C31.8964 10.7191 31.8999 10.7126 31.9039 10.7064C31.9102 10.6962 31.9168 10.6861 31.9226 10.6756C31.9267 10.6681 31.9302 10.6603 31.934 10.6526C31.9388 10.6429 31.9437 10.6334 31.948 10.6236C31.9516 10.6153 31.9546 10.6068 31.9579 10.5983C31.9616 10.5887 31.9653 10.5791 31.9685 10.5693C31.9713 10.5606 31.9737 10.5518 31.9762 10.543C31.979 10.5329 31.9817 10.5228 31.984 10.5126C31.9859 10.5039 31.9876 10.4953 31.9892 10.4866C31.9912 10.4754 31.9929 10.4644 31.9943 10.4532C31.9953 10.4451 31.9963 10.437 31.997 10.4289C31.9981 10.4159 31.9986 10.4029 31.9989 10.39C31.9994 10.3849 32 10.3799 32 10.3748C32 10.373 31.9998 10.3714 31.9998 10.3696ZM24.9998 4.10169L29.989 9.74981H23.1171L24.9998 4.10169ZM23.8828 3.49981L22.0118 9.11281L17.3344 3.49981H23.8828ZM14.6656 3.49981L9.98812 9.11281L8.11712 3.49981H14.6656ZM7.00019 4.10169L8.88288 9.74981H2.011L7.00019 4.10169ZM1.94575 10.9998H9.2995L14.3363 26.1103L1.94575 10.9998ZM16 27.1484L10.6171 10.9998H13.5C13.8452 10.9998 14.125 10.72 14.125 10.3748C14.125 10.0296 13.8452 9.74981 13.5 9.74981H11.0844L16 3.85106L20.9156 9.74981H18.4412C18.0961 9.74981 17.8162 10.0296 17.8162 10.3748C17.8162 10.72 18.0961 10.9998 18.4412 10.9998H21.3829L16 27.1484ZM17.6636 26.1103L22.7005 10.9998H30.0543L17.6636 26.1103Z" fill="white"/>
</svg>
