<svg width="12" height="12" fill="none" xmlns="http://www.w3.org/2000/svg"><path d="M8.5 6.5V7a8.466 8.466 0 01-.957 3.923l-.114.21-.873-.487c.58-1.04.905-2.205.94-3.418L7.5 7v-.5h1zM5.5 5h1v2l-.002.19a6.47 6.47 0 01-1.346 3.774l-.115.145-.775-.632a5.472 5.472 0 001.235-3.294L5.5 7V5zM6 3a2.5 2.5 0 012.5 2.5h-1a1.5 1.5 0 00-3 0V7c0 1.117-.41 2.172-1.135 2.989l-.106.114-.724-.69a3.484 3.484 0 00.962-2.261L3.5 7V5.5A2.5 2.5 0 016 3zm0-2a4.5 4.5 0 014.5 4.5V7c0 .849-.1 1.685-.298 2.495l-.07.27-.965-.264a9.487 9.487 0 00.33-2.217L9.5 7V5.5a3.5 3.5 0 00-5.596-2.803l-.712-.713A4.481 4.481 0 016 1zM2.484 2.692l.713.712a3.483 3.483 0 00-.695 1.976L2.5 5.5l.002 1a3.48 3.48 0 01-.38 1.588l-.079.146-.868-.497c.19-.332.3-.703.323-1.091l.004-.146v-1a4.47 4.47 0 01.982-2.808z" fill="#F90"/></svg>