<svg width="168" height="88" fill="none" xmlns="http://www.w3.org/2000/svg"><path fill-rule="evenodd" clip-rule="evenodd" d="M129.772 76H46.275c-3.889 0-7.041-3.134-7.041-7s3.152-7 7.041-7H7.042C3.152 62 0 58.866 0 55s3.153-7 7.042-7h40.24c3.889 0 7.041-3.134 7.041-7s-3.152-7-7.042-7h-25.15c-3.888 0-7.041-3.134-7.041-7s3.153-7 7.042-7h40.24c-3.89 0-7.043-3.134-7.043-7s3.153-7 7.042-7h98.587C164.847 6 168 9.134 168 13s-3.153 7-7.042 7h-40.239c3.889 0 7.041 3.134 7.041 7s-3.152 7-7.041 7h22.131c3.889 0 7.042 3.134 7.042 7s-3.153 7-7.042 7h-10.235c-4.903 0-8.878 3.134-8.878 7 0 2.577 2.011 4.91 6.035 7 3.89 0 7.042 3.134 7.042 7s-3.152 7-7.042 7zm31.186-28c-3.889 0-7.042-3.134-7.042-7s3.153-7 7.042-7S168 37.134 168 41s-3.153 7-7.042 7z" fill="#F1F3F5"/><path d="M133.021 34h-17.279m24.321 0h-2.235M44.221 54H26.44m-5.86 0h-4.246m26.887 8.777h-9.054" stroke="#A1A3A5" stroke-width="2.5" stroke-linecap="round" stroke-linejoin="round"/></svg>