<svg width="88" height="88" fill="none" xmlns="http://www.w3.org/2000/svg"><path d="M4 81l3-54.5h41L49 45l21 .5L73 81H4z" fill="#F1F3F5"/><path d="M60.5 44.5l-2-18h-10l1 18h11zM81 46H71l2.5 35H84l-3-35z" fill="#D1D5D9"/><path d="M82.496 45.27A1.374 1.374 0 0081.125 44h-19.73l-.897-17.944a1.375 1.375 0 00-1.373-1.306H49.5v-6.875A12.37 12.37 0 0033 6.209a12.37 12.37 0 00-16.5 11.666v6.875H6.875a1.375 1.375 0 00-1.373 1.306l-2.75 55A1.375 1.375 0 004.125 82.5h79.75a1.374 1.374 0 001.371-1.48l-2.75-35.75zm-4.121 30.084l2.93 4.396h-5.86l2.93-4.396zm3.726.63l-2.392-3.587-2.565-25.647h2.708L82.1 75.984zM74.38 46.75l2.578 25.772-3.018 4.526-2.33-30.298h2.77zM58.642 44h-2.588l-.97-16.5h2.732l.826 16.5zm-6.314-16.5L53.3 44h-2.904l-.825-16.5h2.758zM37.126 8.25a9.636 9.636 0 019.625 9.625v6.875h-5.5v-6.875a12.356 12.356 0 00-4.594-9.613c.156-.008.312-.012.469-.012zM33 9.18a9.637 9.637 0 015.5 8.695v6.875h-11v-6.875A9.637 9.637 0 0133 9.181zm-13.75 8.695a9.636 9.636 0 0110.094-9.613 12.354 12.354 0 00-4.594 9.613v6.875h-5.5v-6.875zM35.852 79.75H5.57L8.183 27.5H16.5v8.89l-3.513 2.341a1.376 1.376 0 00-.612 1.144v11a1.375 1.375 0 001.375 1.375H22a1.375 1.375 0 001.375-1.375v-11a1.375 1.375 0 00-.612-1.144l-3.513-2.342V27.5H38.5v4.125a1.375 1.375 0 002.75 0V27.5h5.567l.825 16.5h-7.767a1.375 1.375 0 00-1.371 1.27l-2.652 34.48zM17.875 38.778l2.75 1.833V49.5h-5.5v-8.89l2.75-1.832zm23.273 7.972h27.704l2.538 33H38.61l2.538-33z" fill="#A1A3A5"/><path d="M61.875 52.25a1.375 1.375 0 00-1.375 1.375v11a4.13 4.13 0 01-4.125 4.125h-2.75a4.13 4.13 0 01-4.125-4.125v-11a1.375 1.375 0 00-2.75 0v11a6.883 6.883 0 006.875 6.875h2.75a6.883 6.883 0 006.875-6.875v-11a1.375 1.375 0 00-1.375-1.375z" fill="#A1A3A5"/></svg>