<svg width="32" height="32" fill="none" xmlns="http://www.w3.org/2000/svg"><path fill-rule="evenodd" clip-rule="evenodd" d="M16.074 0c.753 0 1.272.593 1.787 1.18.305.347.607.692.792.725.19.034.596-.19 1-.415.669-.37 1.333-.74 2.014-.486.688.256.946.976 1.203 1.694.152.424.304.848.449.932.145.085.59.007 1.036-.07.747-.131 1.494-.261 2.048.205.552.464.548 1.223.545 1.98-.002.448-.004.896.104 1.024s.55.202.992.277c.75.126 1.502.252 1.87.878.366.625.113 1.338-.14 2.053-.153.429-.306.86-.244 1.024.061.165.453.392.846.62.666.387 1.336.776 1.469 1.506.13.718-.345 1.315-.824 1.918-.294.37-.59.742-.59.955 0 .213.296.586.59.956.48.602.955 1.199.824 1.917-.133.73-.803 1.119-1.47 1.506-.392.228-.784.455-.845.62-.062.165.091.596.243 1.024.254.715.507 1.428.14 2.053-.367.626-1.119.752-1.869.878-.442.075-.884.149-.992.277-.108.129-.106.576-.104 1.024.003.758.007 1.516-.545 1.98-.554.467-1.3.336-2.048.206-.445-.078-.891-.156-1.036-.071-.145.085-.297.508-.449.933-.257.717-.515 1.438-1.203 1.694-.68.253-1.346-.116-2.014-.487-.404-.224-.81-.45-1-.415-.185.034-.487.378-.792.726-.515.586-1.034 1.179-1.787 1.179-.753 0-1.272-.593-1.787-1.18-.305-.347-.607-.692-.792-.725-.19-.034-.596.19-1 .415-.669.37-1.333.74-2.014.486-.689-.255-.946-.976-1.203-1.694-.152-.424-.304-.848-.449-.932-.144-.085-.59-.007-1.036.07-.747.131-1.494.261-2.048-.205-.552-.465-.548-1.223-.545-1.98.002-.448.004-.896-.104-1.024s-.55-.202-.992-.277c-.75-.126-1.502-.252-1.87-.878-.366-.625-.113-1.338.14-2.053.153-.429.306-.86.244-1.024-.061-.165-.452-.392-.846-.62-.666-.387-1.336-.776-1.469-1.506-.13-.718.345-1.315.824-1.918.294-.37.591-.742.591-.955 0-.213-.297-.586-.59-.956-.48-.602-.955-1.199-.825-1.917.133-.73.803-1.119 1.47-1.506.393-.228.784-.455.845-.62.062-.165-.09-.595-.243-1.024-.254-.716-.507-1.428-.14-2.053.367-.626 1.119-.752 1.869-.878.442-.075.884-.149.992-.277.108-.129.106-.576.104-1.024-.003-.758-.007-1.516.545-1.98.554-.466 1.3-.336 2.048-.206.446.078.892.156 1.036.071.145-.084.297-.508.449-.933.257-.717.515-1.438 1.203-1.694.68-.253 1.345.116 2.014.487.404.224.81.45 1 .415.185-.034.487-.378.792-.726C14.802.593 15.32 0 16.074 0zm7.76 8.073a.626.626 0 00-.478 1.029l.002.002A9.974 9.974 0 0126.114 16a9.978 9.978 0 01-2.94 7.085 10.017 10.017 0 01-7.1 2.935 10.035 10.035 0 01-3.44-.604h-.002a.628.628 0 00-.808.598c0 .283.189.522.447.599a11.29 11.29 0 003.803.655c3.118 0 5.94-1.261 7.983-3.3A11.222 11.222 0 0027.364 16c0-2.977-1.157-5.685-3.047-7.7a.626.626 0 00-.483-.227zm-1.89-1.586a.626.626 0 100 1.252.626.626 0 000-1.252zM19.912 5.4a11.29 11.29 0 00-3.838-.668 11.26 11.26 0 00-7.983 3.3A11.222 11.222 0 004.784 16c0 2.971 1.152 5.674 3.035 7.687a.626.626 0 10.96-.803l-.003-.003A9.974 9.974 0 016.034 16a9.978 9.978 0 012.94-7.086 10.017 10.017 0 017.1-2.935c1.198 0 2.347.21 3.412.594a.625.625 0 10.426-1.174zm-9.708 18.863a.626.626 0 10-.001 1.251.626.626 0 000-1.251zm2.224-14.406a2.594 2.594 0 100 5.19 2.595 2.595 0 100-5.19zm.954 1.643a1.347 1.347 0 00-.954-.395 1.347 1.347 0 100 2.694 1.347 1.347 0 00.954-2.299zm5.818-1.36l-7.292 11.037a.623.623 0 001.04.683l7.292-11.037a.623.623 0 00-1.04-.683zm.52 6.813a2.595 2.595 0 100 5.19 2.594 2.594 0 002.6-2.595c0-.717-.291-1.366-.762-1.835a2.59 2.59 0 00-1.838-.76zm.954 1.642a1.347 1.347 0 00-.954-.394 1.346 1.346 0 100 2.693 1.345 1.345 0 00.954-2.299zM16.924 2c-.328-.374-.659-.75-.85-.75-.191 0-.522.376-.85.75-.447.511-.892 1.018-1.51 1.13-.625.113-1.227-.22-1.825-.552-.416-.231-.831-.46-.973-.408-.14.052-.3.5-.46.948-.228.636-.455 1.27-.996 1.586-.545.318-1.214.202-1.882.085-.46-.08-.922-.16-1.027-.072-.109.092-.107.558-.105 1.025.003.677.006 1.355-.397 1.832-.403.477-1.07.59-1.74.701-.463.078-.927.156-1 .28-.071.122.086.564.243 1.008.227.64.455 1.281.234 1.873-.218.585-.802.924-1.388 1.264-.418.243-.84.487-.869.648-.03.163.272.54.575.922.43.541.865 1.086.865 1.731s-.434 1.19-.865 1.731c-.303.381-.604.76-.575.922.03.161.45.405.869.648.586.34 1.17.679 1.388 1.264.221.592-.007 1.234-.234 1.873-.157.444-.314.886-.242 1.009.072.123.536.2 1 .279.668.112 1.336.224 1.739.7.403.478.4 1.156.397 1.834-.002.466-.004.932.105 1.024.106.089.566.009 1.027-.072.668-.116 1.337-.233 1.882.085.54.316.768.95.995 1.586.16.447.321.896.461.948.142.053.556-.177.973-.408.598-.332 1.2-.665 1.826-.552.617.112 1.062.619 1.51 1.13.328.374.658.751.85.751.19 0 .52-.377.848-.75.449-.512.893-1.02 1.51-1.13.626-.114 1.228.22 1.826.55.417.232.831.462.973.41.14-.053.3-.502.46-.949.229-.636.455-1.27.996-1.586.545-.319 1.214-.202 1.882-.085.46.08.922.161 1.027.072.11-.092.107-.558.105-1.024-.003-.678-.006-1.356.397-1.833.403-.477 1.07-.589 1.74-.701.463-.078.928-.156 1-.28.072-.122-.085-.564-.243-1.008-.227-.64-.455-1.28-.234-1.873.218-.585.802-.924 1.388-1.264.419-.243.84-.487.869-.648.03-.163-.271-.54-.575-.922-.43-.541-.865-1.086-.865-1.731s.434-1.19.865-1.73c.303-.382.604-.76.575-.923-.03-.16-.45-.405-.869-.648-.586-.34-1.17-.679-1.388-1.264-.221-.592.007-1.233.234-1.873.157-.444.315-.886.243-1.009-.072-.123-.537-.2-1-.279-.67-.112-1.337-.224-1.74-.7-.403-.478-.4-1.156-.397-1.833.002-.467.004-.933-.105-1.025-.105-.089-.566-.008-1.027.072-.668.117-1.337.233-1.881-.085-.542-.316-.769-.95-.996-1.586-.16-.447-.32-.896-.46-.948-.143-.053-.557.177-.974.408-.598.332-1.2.665-1.826.552-.617-.112-1.061-.619-1.51-1.13z" fill="#fff"/></svg>