<svg width="32" height="32" fill="none" xmlns="http://www.w3.org/2000/svg"><path d="M16 9.75A.625.625 0 1016 11a.625.625 0 000-1.25z" fill="#fff"/><path d="M32 10.37a.624.624 0 00-.003-.05v-.01a.641.641 0 00-.009-.057l-.006-.024-.008-.032-.009-.026a.582.582 0 00-.097-.18l-.017-.021-.007-.009-6.625-7.5-.005-.005a.61.61 0 00-.033-.033l-.012-.012a.587.587 0 00-.042-.034l-.008-.006a.635.635 0 00-.172-.089l-.02-.006a.621.621 0 00-.043-.012l-.016-.002a.628.628 0 00-.049-.008l-.015-.001a.604.604 0 00-.05-.003H7.246a.632.632 0 00-.049.003l-.016.001a.627.627 0 00-.048.008l-.017.003-.043.011-.02.006a.627.627 0 00-.118.053h-.001a.615.615 0 00-.053.036l-.008.006a.637.637 0 00-.042.034l-.012.012a.614.614 0 00-.033.033l-.004.005-6.625 7.5-.007.009a.555.555 0 00-.067.095.522.522 0 00-.048.106l-.009.026a.647.647 0 00-.008.032l-.006.024a.602.602 0 00-.009.057v.01a.62.62 0 00-.003.05v.02l.003.039.002.024a.601.601 0 00.026.116l.01.03.01.025.015.029.011.023.019.03.011.02c.011.015.022.03.035.045l.001.002L15.517 29.52c0 .002.002.003.004.005a.628.628 0 00.042.045l.005.005a.608.608 0 00.1.078l.005.004.054.029.014.006.047.02c.004 0 .008.002.011.003a.45.45 0 00.06.017l.012.003a.595.595 0 00.05.008l.016.002a.615.615 0 00.125 0l.017-.002a.595.595 0 00.05-.008l.012-.003a.45.45 0 00.06-.017.7.7 0 00.058-.023l.014-.006a.673.673 0 00.053-.03c.002 0 .004-.002.005-.003a.683.683 0 00.1-.078l.006-.005a.628.628 0 00.042-.045l.004-.005 15.374-18.748v-.001h.001a.64.64 0 00.034-.047l.012-.019.019-.03.011-.023.014-.03.01-.025a.59.59 0 00.01-.029l.008-.026a.645.645 0 00.018-.09l.003-.024a.637.637 0 00.002-.039l.001-.015v-.005zm-7-6.268l4.989 5.648h-6.872L25 4.102zM23.883 3.5l-1.871 5.613L17.334 3.5h6.549zm-9.217 0L9.988 9.113 8.118 3.5h6.548zM7 4.102L8.883 9.75H2.01L7 4.102zM1.946 11H9.3l5.036 15.11L1.946 11zM16 27.148L10.617 11H13.5a.625.625 0 100-1.25h-2.416L16 3.85l4.916 5.899H18.44a.625.625 0 000 1.25h2.942L16 27.148zm1.664-1.038L22.7 11h7.353l-12.39 15.11z" fill="#fff"/></svg>