<svg xmlns="http://www.w3.org/2000/svg" width="232.88" height="46.65" viewBox="0 0 582.19 116.62">
  <defs>
    <style>
      .a {
        fill: #ffffff;
      }

      .b {
        fill: #ffffff;
      }
    </style>
  </defs>
  <g>
    <g>
      <path class="a" d="M110.76,32.23,98.87,46.54a1.74,1.74,0,0,1-2.35.34,1.66,1.66,0,0,1-.28-2.4l11.6-14.79-.93-.82L93.79,42.33a1.67,1.67,0,0,1-2.33.12l-.06-.05a1.67,1.67,0,0,1-.18-2.32l11.6-14.79-.93-.82L88.77,37.93a1.67,1.67,0,0,1-2.42,0,1.72,1.72,0,0,1,0-2.37L99,21.93l-1.72-1.51L78.19,38.13A6.6,6.6,0,0,0,76.38,44l1.67,9.17-7.68,8.37L60,50.15c3.56-5.38,2.47-13.53-3-19.48-6.24-6.8-16.88-9.29-22.47-4.16s-4,15.94,2.21,22.75c5.46,6,13.48,7.73,19.15,4.65L66.59,65.62,46.08,87.93l4,4.12L70.37,69.73,90.69,92l4.12-3.64L74.15,65.62,82,57.1l10,.47A6.62,6.62,0,0,0,97.47,55l15-21.26Z"/>
      <g>
        <g>
          <path class="b" d="M103.51,98.41s-2.28-9.62,6.93-17.62C110.44,80.79,116.23,91.8,103.51,98.41Z"/>
          <path class="b" d="M114.51,90.59s-4.28-8.35,2.39-17.79C116.9,72.79,124.73,81.62,114.51,90.59Z"/>
          <path class="b" d="M123.71,80.55s-6-6.91-1.89-17.42C121.82,63.13,131.3,69.66,123.71,80.55Z"/>
          <path class="b" d="M129.71,67.89s-7.19-4.92-5.8-15.65C123.91,52.25,134.24,56,129.71,67.89Z"/>
          <path class="b" d="M132.51,53.28s-7.27-2.54-8.55-12C124,41.25,133.63,42.06,132.51,53.28Z"/>
          <path class="b" d="M103.88,99s7.44-6.52,18.81-2.12C122.69,96.83,115.67,107.1,103.88,99Z"/>
          <path class="b" d="M114.94,91.52s5.72-8.28,18.05-6.76C133,84.76,128.6,96.64,114.94,91.52Z"/>
          <path class="b" d="M124.42,81s2.84-9.34,14.68-11.57C139.1,69.38,138.56,81.66,124.42,81Z"/>
          <path class="b" d="M130.4,68s.41-9.76,11.31-14.89C141.71,53.07,144.26,65.08,130.4,68Z"/>
          <path class="b" d="M133.26,53.59s-1.75-8.86,6.6-15.92C139.86,37.67,144.67,47.89,133.26,53.59Z"/>
          <g>
            <path class="b" d="M131.38,39.05s-7.08-.59-10.42-8.77C121,30.28,129.79,28.76,131.38,39.05Z"/>
            <path class="b" d="M132.27,38.89a17.67,17.67,0,0,1,1.93-16.6S141.07,30.77,132.27,38.89Z"/>
          </g>
          <path class="b" d="M127.45,25.16A17.7,17.7,0,0,1,126,9.6S133.51,16.45,127.45,25.16Z"/>
          <path class="b" d="M119.84,12.88A15.79,15.79,0,0,1,115.54,0S123.11,4.46,119.84,12.88Z"/>
          <path class="b" d="M126.73,25.46s-6.21,1.23-11.07-4.95C115.67,20.5,122.85,17,126.73,25.46Z"/>
          <path class="b" d="M119.28,13.39s-5.38,3.33-12.1-.75C107.18,12.63,112.7,6.87,119.28,13.39Z"/>
          <path class="b" d="M104.39,1.12s1.48,5.91,11,7.71C115.38,8.82,113.89,1.12,104.39,1.12Z"/>
          <path class="b" d="M102.9,99.08A124.71,124.71,0,0,1,68.26,113.6c-19.66,4.78-24.16,2.66-25,1.84s-.92-3.68,3-3.12S71.66,113.87,102.9,99.08Z"/>
        </g>
        <g>
          <path class="b" d="M38.38,98.41s2.28-9.62-6.93-17.62C31.45,80.79,25.66,91.8,38.38,98.41Z"/>
          <path class="b" d="M27.38,90.59S31.66,82.24,25,72.8C25,72.79,17.16,81.62,27.38,90.59Z"/>
          <path class="b" d="M18.18,80.55s6-6.91,1.89-17.42C20.07,63.13,10.59,69.66,18.18,80.55Z"/>
          <path class="b" d="M12.18,67.89S19.37,63,18,52.24C18,52.25,7.65,56,12.18,67.89Z"/>
          <path class="b" d="M9.38,53.28s7.27-2.54,8.55-12C17.93,41.25,8.26,42.06,9.38,53.28Z"/>
          <path class="b" d="M38,99s-7.44-6.52-18.81-2.12C19.2,96.83,26.22,107.1,38,99Z"/>
          <path class="b" d="M27,91.52s-5.72-8.28-18-6.76C8.91,84.76,13.29,96.64,27,91.52Z"/>
          <path class="b" d="M17.47,81S14.63,71.62,2.79,69.39C2.79,69.38,3.33,81.66,17.47,81Z"/>
          <path class="b" d="M11.49,68S11.08,58.2.18,53.07C.18,53.07-2.37,65.08,11.49,68Z"/>
          <path class="b" d="M8.63,53.59S10.38,44.73,2,37.67C2,37.67-2.78,47.89,8.63,53.59Z"/>
          <g>
            <path class="b" d="M10.51,39.05s7.08-.59,10.42-8.77C20.93,30.28,12.1,28.76,10.51,39.05Z"/>
            <path class="b" d="M9.62,38.89a17.67,17.67,0,0,0-1.93-16.6S.82,30.77,9.62,38.89Z"/>
          </g>
          <path class="b" d="M14.44,25.16A17.7,17.7,0,0,0,15.86,9.6S8.38,16.45,14.44,25.16Z"/>
          <path class="b" d="M22.05,12.88A15.79,15.79,0,0,0,26.35,0S18.77,4.46,22.05,12.88Z"/>
          <path class="b" d="M15.16,25.46s6.21,1.23,11.07-4.95C26.22,20.5,19,17,15.16,25.46Z"/>
          <path class="b" d="M22.61,13.39s5.38,3.33,12.1-.75C34.71,12.63,29.19,6.87,22.61,13.39Z"/>
          <path class="b" d="M37.5,1.12S36,7,26.51,8.83C26.51,8.82,28,1.12,37.5,1.12Z"/>
          <path class="b" d="M39,99.08A124.71,124.71,0,0,0,73.63,113.6c19.66,4.78,24.16,2.66,25,1.84s.92-3.68-3-3.12S70.23,113.87,39,99.08Z"/>
        </g>
      </g>
    </g>
    <g>
      <path class="b" d="M163.79,93.28H153.37V36.35h36.25v8.72H163.79V59.79h22.08v8.72H163.79Z"/>
      <path class="b" d="M251.69,64.82a36.81,36.81,0,0,1-1.85,11.93,26.41,26.41,0,0,1-5.4,9.34,24.26,24.26,0,0,1-8.72,6.08,33,33,0,0,1-23.52,0,24.29,24.29,0,0,1-8.72-6.08,26.26,26.26,0,0,1-5.4-9.34,36.85,36.85,0,0,1-1.85-11.93,36.81,36.81,0,0,1,1.85-11.93,26.26,26.26,0,0,1,5.4-9.34,24.26,24.26,0,0,1,8.72-6.08,33,33,0,0,1,23.52,0,24.38,24.38,0,0,1,8.72,6.08,26.26,26.26,0,0,1,5.4,9.34A36.81,36.81,0,0,1,251.69,64.82Zm-10.77,0a28.88,28.88,0,0,0-1.28-9.08,18.68,18.68,0,0,0-3.53-6.49,14.11,14.11,0,0,0-5.36-3.87,17.76,17.76,0,0,0-6.81-1.28,17.58,17.58,0,0,0-6.81,1.28,14.11,14.11,0,0,0-5.36,3.87,18.59,18.59,0,0,0-3.53,6.49A29.22,29.22,0,0,0,207,64.82a29.18,29.18,0,0,0,1.28,9.08,18.4,18.4,0,0,0,3.53,6.47,14.32,14.32,0,0,0,5.36,3.87,17.58,17.58,0,0,0,6.81,1.3,17.4,17.4,0,0,0,6.81-1.3,14.55,14.55,0,0,0,5.36-3.87,18.4,18.4,0,0,0,3.53-6.47A28.93,28.93,0,0,0,240.92,64.82Z"/>
      <path class="b" d="M315.67,64.82a36.81,36.81,0,0,1-1.85,11.93,26.41,26.41,0,0,1-5.4,9.34,24.26,24.26,0,0,1-8.72,6.08,33,33,0,0,1-23.52,0,24.29,24.29,0,0,1-8.72-6.08,26.26,26.26,0,0,1-5.4-9.34,36.85,36.85,0,0,1-1.85-11.93,36.81,36.81,0,0,1,1.85-11.93,26.41,26.41,0,0,1,5.4-9.34,24.26,24.26,0,0,1,8.72-6.08,33,33,0,0,1,23.52,0,24.38,24.38,0,0,1,8.72,6.08,26.26,26.26,0,0,1,5.4,9.34A36.54,36.54,0,0,1,315.67,64.82Zm-10.76,0a29.18,29.18,0,0,0-1.28-9.08,18.68,18.68,0,0,0-3.53-6.49,14.11,14.11,0,0,0-5.36-3.87,17.76,17.76,0,0,0-6.81-1.28,17.58,17.58,0,0,0-6.81,1.28,14.11,14.11,0,0,0-5.36,3.87,18.59,18.59,0,0,0-3.53,6.49A29.22,29.22,0,0,0,271,64.82a29.18,29.18,0,0,0,1.28,9.08,18.4,18.4,0,0,0,3.53,6.47,14.32,14.32,0,0,0,5.36,3.87,18.49,18.49,0,0,0,13.62,0,14.55,14.55,0,0,0,5.36-3.87,18.4,18.4,0,0,0,3.53-6.47A28.93,28.93,0,0,0,304.91,64.82Z"/>
      <path class="b" d="M326.74,93.28V36.35H341.8c1.33,0,2.69,0,4.06.13s2.72.21,4,.38,2.57.38,3.79.62a27.32,27.32,0,0,1,3.36.87,29.18,29.18,0,0,1,8,3.91,24,24,0,0,1,5.85,5.83,25.14,25.14,0,0,1,3.57,7.51,32,32,0,0,1,1.21,9,35.06,35.06,0,0,1-1,8.62,25.34,25.34,0,0,1-3.11,7.34,23.48,23.48,0,0,1-5.25,5.85,27.07,27.07,0,0,1-7.51,4.15,39.58,39.58,0,0,1-8.21,2,71.54,71.54,0,0,1-10.34.68Zm14.72-8.72q9.15,0,14.3-2.51a15.45,15.45,0,0,0,6.89-6.55,22.79,22.79,0,0,0,2.34-11,24,24,0,0,0-.77-6.3,17.35,17.35,0,0,0-2.21-5,15.18,15.18,0,0,0-3.51-3.77,19.31,19.31,0,0,0-4.66-2.6,24.8,24.8,0,0,0-5.4-1.36,48.17,48.17,0,0,0-6.68-.42h-4.59V84.55h4.29Z"/>
      <path class="a" d="M428.89,53.45a15.7,15.7,0,0,1-3.3,10.1q-3.3,4.15-10.19,6.15v.17l16.93,23.4H419.82l-15.49-22h-7.15v22H386.76V36.34h17.33a60.62,60.62,0,0,1,8,.49,29.84,29.84,0,0,1,6.34,1.47A16.48,16.48,0,0,1,426.17,44,15.83,15.83,0,0,1,428.89,53.45Zm-26.55,9.07a49.23,49.23,0,0,0,6.06-.32,18.45,18.45,0,0,0,4.19-1A8.14,8.14,0,0,0,417,58a9.18,9.18,0,0,0,1.21-4.74,8.34,8.34,0,0,0-1-4.06A6.53,6.53,0,0,0,414,46.4a13.71,13.71,0,0,0-3.74-1,41.12,41.12,0,0,0-5.57-.32h-7.45V62.52Z"/>
      <path class="a" d="M474.07,78.77H452.63l-5.58,14.51H436l22.59-56.93h9.53l22.59,56.93h-11Zm-10.8-28.72q-3,8.94-5.33,14.93L456,70.05H470.7L468.75,65q-2.31-6-5.33-14.93Z"/>
      <path class="a" d="M517.34,93.28H506.92V45.08H488.54V36.36h47.14v8.72H517.34Z"/>
      <path class="a" d="M554.19,84.56h28v8.72H543.77V36.35h36.89v8.72H554.19V59.79h22.72v8.72H554.19Z"/>
    </g>
  </g>
</svg>
